G75*
%MOIN*%
%OFA0B0*%
%FSLAX25Y25*%
%IPPOS*%
%LPD*%
%AMOC8*
5,1,8,0,0,1.08239X$1,22.5*
%
%ADD10C,0.00000*%
%ADD11R,0.05118X0.05906*%
%ADD12R,0.05906X0.05118*%
%ADD13C,0.06600*%
%ADD14R,0.04331X0.02362*%
%ADD15R,0.08700X0.02400*%
%ADD16C,0.07400*%
%ADD17R,0.07000X0.07000*%
%ADD18C,0.07000*%
%ADD19OC8,0.06000*%
%ADD20C,0.06000*%
%ADD21C,0.00600*%
%ADD22C,0.02700*%
%ADD23C,0.01600*%
D10*
X0021800Y0021800D02*
X0021800Y0160501D01*
X0252745Y0160343D01*
X0252745Y0021800D01*
X0021800Y0021800D01*
D11*
X0099713Y0054556D03*
X0107194Y0054556D03*
X0107194Y0064556D03*
X0099713Y0064556D03*
X0045146Y0114989D03*
X0037666Y0114989D03*
X0158868Y0126800D03*
X0166348Y0126800D03*
X0209753Y0116643D03*
X0217233Y0116643D03*
D12*
X0177238Y0131292D03*
X0177238Y0138772D03*
X0122829Y0138787D03*
X0122829Y0146267D03*
X0110034Y0146262D03*
X0110034Y0138781D03*
X0094359Y0129910D03*
X0094359Y0122430D03*
X0074202Y0063926D03*
X0074202Y0056446D03*
X0099722Y0044622D03*
X0099722Y0037141D03*
D13*
X0201485Y0138217D03*
X0217233Y0138217D03*
X0047706Y0139989D03*
X0037706Y0139989D03*
D14*
X0122942Y0063296D03*
X0122942Y0055816D03*
X0133965Y0055816D03*
X0133965Y0059556D03*
X0133965Y0063296D03*
D15*
X0141133Y0138797D03*
X0141133Y0143797D03*
X0141133Y0148797D03*
X0141133Y0153797D03*
X0161733Y0153797D03*
X0161733Y0148797D03*
X0161733Y0143797D03*
X0161733Y0138797D03*
D16*
X0054991Y0063891D03*
X0037191Y0063891D03*
X0037191Y0038291D03*
X0054991Y0038291D03*
D17*
X0198965Y0047036D03*
D18*
X0224556Y0047036D03*
D19*
X0227233Y0086131D03*
X0217233Y0086131D03*
X0207233Y0086131D03*
X0197233Y0086131D03*
X0187233Y0086131D03*
X0177233Y0086131D03*
X0167233Y0086131D03*
X0157233Y0086131D03*
X0147233Y0086131D03*
X0137233Y0086131D03*
X0127233Y0086131D03*
X0117233Y0086131D03*
X0107233Y0086131D03*
X0097233Y0086131D03*
X0087233Y0086131D03*
X0077233Y0086131D03*
X0067233Y0086131D03*
X0057233Y0086131D03*
X0047233Y0086131D03*
X0037233Y0086131D03*
X0027233Y0086131D03*
X0027233Y0096131D03*
X0037233Y0096131D03*
X0047233Y0096131D03*
X0057233Y0096131D03*
X0067233Y0096131D03*
X0077233Y0096131D03*
X0087233Y0096131D03*
X0097233Y0096131D03*
X0107233Y0096131D03*
X0117233Y0096131D03*
X0127233Y0096131D03*
X0137233Y0096131D03*
X0147233Y0096131D03*
X0157233Y0096131D03*
X0167233Y0096131D03*
X0177233Y0096131D03*
X0187233Y0096131D03*
X0197233Y0096131D03*
X0207233Y0096131D03*
X0217233Y0096131D03*
X0227233Y0096131D03*
X0237233Y0096131D03*
X0247233Y0096131D03*
X0247233Y0086131D03*
X0237233Y0086131D03*
D20*
X0074209Y0119910D02*
X0068209Y0119910D01*
X0068209Y0129910D02*
X0074209Y0129910D01*
X0074209Y0139910D02*
X0068209Y0139910D01*
D21*
X0071209Y0139910D02*
X0047706Y0139989D01*
X0037706Y0139989D02*
X0037666Y0114989D01*
X0045146Y0114989D02*
X0057233Y0102902D01*
X0110053Y0102902D01*
X0110034Y0138781D01*
X0122829Y0138787D01*
X0141133Y0138797D01*
X0141133Y0143797D02*
X0152259Y0143797D01*
X0152259Y0101052D01*
X0157233Y0096131D01*
X0162233Y0091131D02*
X0162233Y0083769D01*
X0198965Y0047036D01*
X0177233Y0086131D02*
X0182275Y0091156D01*
X0182275Y0143797D01*
X0161733Y0143797D01*
X0161733Y0138797D02*
X0177238Y0138772D01*
X0177238Y0131292D02*
X0177238Y0126800D01*
X0172306Y0126800D01*
X0172306Y0086131D01*
X0167233Y0086131D01*
X0162233Y0091131D02*
X0132233Y0091131D01*
X0127233Y0096131D01*
X0112233Y0091131D02*
X0112233Y0076131D01*
X0107233Y0086131D02*
X0107194Y0064556D01*
X0108454Y0063296D01*
X0122942Y0063296D01*
X0122942Y0055816D02*
X0112233Y0055816D01*
X0108454Y0055816D01*
X0107194Y0054556D01*
X0099713Y0054556D02*
X0099722Y0044622D01*
X0133965Y0044556D01*
X0133965Y0055816D01*
X0099713Y0054556D02*
X0099713Y0064556D01*
X0099753Y0081170D01*
X0057233Y0081131D01*
X0057233Y0086131D01*
X0057233Y0096131D01*
X0057233Y0102902D01*
X0037233Y0096131D02*
X0037233Y0086131D01*
X0037191Y0063891D01*
X0037191Y0038291D01*
X0054991Y0038291D02*
X0054991Y0063891D01*
X0074202Y0063926D01*
X0074202Y0073454D01*
X0107233Y0096131D02*
X0112233Y0091131D01*
X0102233Y0122469D02*
X0094359Y0122430D01*
X0094359Y0129910D02*
X0071209Y0129910D01*
X0122829Y0146267D02*
X0125299Y0143797D01*
X0141133Y0143797D01*
X0158868Y0126800D02*
X0158868Y0104496D01*
X0167233Y0096131D01*
X0187233Y0096131D02*
X0189241Y0096131D01*
X0209753Y0116643D01*
X0217233Y0116643D02*
X0217233Y0096131D01*
X0217233Y0116643D02*
X0217233Y0138217D01*
X0172306Y0126800D02*
X0166348Y0126800D01*
D22*
X0102233Y0122469D03*
X0112233Y0076131D03*
X0112233Y0055816D03*
X0074202Y0073454D03*
D23*
X0076724Y0074551D02*
X0098037Y0074551D01*
X0098041Y0076149D02*
X0074879Y0076149D01*
X0074749Y0076204D02*
X0073655Y0076204D01*
X0072644Y0075785D01*
X0071870Y0075011D01*
X0071452Y0074001D01*
X0071452Y0072907D01*
X0071870Y0071896D01*
X0072502Y0071264D01*
X0072502Y0067885D01*
X0070669Y0067885D01*
X0069849Y0067065D01*
X0069849Y0065618D01*
X0059804Y0065600D01*
X0059315Y0066780D01*
X0057880Y0068215D01*
X0056006Y0068991D01*
X0053977Y0068991D01*
X0052102Y0068215D01*
X0050668Y0066780D01*
X0049891Y0064906D01*
X0049891Y0062877D01*
X0050668Y0061002D01*
X0052102Y0059568D01*
X0053291Y0059075D01*
X0053291Y0043107D01*
X0052102Y0042615D01*
X0050668Y0041180D01*
X0049891Y0039306D01*
X0049891Y0037277D01*
X0050668Y0035402D01*
X0052102Y0033968D01*
X0053977Y0033191D01*
X0056006Y0033191D01*
X0057880Y0033968D01*
X0059315Y0035402D01*
X0060091Y0037277D01*
X0060091Y0039306D01*
X0059315Y0041180D01*
X0057880Y0042615D01*
X0056691Y0043107D01*
X0056691Y0059075D01*
X0057880Y0059568D01*
X0059315Y0061002D01*
X0059811Y0062200D01*
X0069849Y0062218D01*
X0069849Y0060787D01*
X0070173Y0060462D01*
X0070144Y0060445D01*
X0069808Y0060110D01*
X0069571Y0059699D01*
X0069449Y0059242D01*
X0069449Y0056925D01*
X0073722Y0056925D01*
X0073722Y0055966D01*
X0074681Y0055966D01*
X0074681Y0052087D01*
X0077391Y0052087D01*
X0077849Y0052209D01*
X0078260Y0052446D01*
X0078595Y0052781D01*
X0078832Y0053192D01*
X0078954Y0053650D01*
X0078954Y0055966D01*
X0074681Y0055966D01*
X0074681Y0056925D01*
X0078954Y0056925D01*
X0078954Y0059242D01*
X0078832Y0059699D01*
X0078595Y0060110D01*
X0078260Y0060445D01*
X0078230Y0060462D01*
X0078554Y0060787D01*
X0078554Y0067065D01*
X0077734Y0067885D01*
X0075902Y0067885D01*
X0075902Y0071264D01*
X0076533Y0071896D01*
X0076952Y0072907D01*
X0076952Y0074001D01*
X0076533Y0075011D01*
X0075759Y0075785D01*
X0074749Y0076204D01*
X0073524Y0076149D02*
X0038914Y0076149D01*
X0038911Y0074551D02*
X0071680Y0074551D01*
X0071452Y0072952D02*
X0038908Y0072952D01*
X0038905Y0071354D02*
X0072412Y0071354D01*
X0072502Y0069755D02*
X0038902Y0069755D01*
X0038900Y0068704D02*
X0038925Y0081731D01*
X0039056Y0081731D01*
X0041633Y0084308D01*
X0041633Y0087953D01*
X0039056Y0090531D01*
X0038933Y0090531D01*
X0038933Y0091731D01*
X0039056Y0091731D01*
X0041633Y0094308D01*
X0041633Y0097953D01*
X0039056Y0100531D01*
X0035411Y0100531D01*
X0032833Y0097953D01*
X0032833Y0094308D01*
X0035411Y0091731D01*
X0035533Y0091731D01*
X0035533Y0090531D01*
X0035411Y0090531D01*
X0032833Y0087953D01*
X0032833Y0084308D01*
X0035411Y0081731D01*
X0035525Y0081731D01*
X0035500Y0068711D01*
X0034302Y0068215D01*
X0032868Y0066780D01*
X0032091Y0064906D01*
X0032091Y0062877D01*
X0032868Y0061002D01*
X0034302Y0059568D01*
X0035491Y0059075D01*
X0035491Y0043107D01*
X0034302Y0042615D01*
X0032868Y0041180D01*
X0032091Y0039306D01*
X0032091Y0037277D01*
X0032868Y0035402D01*
X0034302Y0033968D01*
X0036177Y0033191D01*
X0038206Y0033191D01*
X0040080Y0033968D01*
X0041515Y0035402D01*
X0042291Y0037277D01*
X0042291Y0039306D01*
X0041515Y0041180D01*
X0040080Y0042615D01*
X0038891Y0043107D01*
X0038891Y0059075D01*
X0040080Y0059568D01*
X0041515Y0061002D01*
X0042291Y0062877D01*
X0042291Y0064906D01*
X0041515Y0066780D01*
X0040080Y0068215D01*
X0038900Y0068704D01*
X0040138Y0068157D02*
X0052044Y0068157D01*
X0050576Y0066558D02*
X0041607Y0066558D01*
X0042269Y0064960D02*
X0049914Y0064960D01*
X0049891Y0063361D02*
X0042291Y0063361D01*
X0041830Y0061763D02*
X0050353Y0061763D01*
X0051506Y0060164D02*
X0040677Y0060164D01*
X0038891Y0058566D02*
X0053291Y0058566D01*
X0053291Y0056967D02*
X0038891Y0056967D01*
X0038891Y0055369D02*
X0053291Y0055369D01*
X0053291Y0053770D02*
X0038891Y0053770D01*
X0038891Y0052172D02*
X0053291Y0052172D01*
X0053291Y0050573D02*
X0038891Y0050573D01*
X0038891Y0048975D02*
X0053291Y0048975D01*
X0053291Y0047376D02*
X0038891Y0047376D01*
X0038891Y0045778D02*
X0053291Y0045778D01*
X0053291Y0044179D02*
X0038891Y0044179D01*
X0040115Y0042581D02*
X0052068Y0042581D01*
X0050586Y0040982D02*
X0041597Y0040982D01*
X0042259Y0039384D02*
X0049924Y0039384D01*
X0049891Y0037785D02*
X0042291Y0037785D01*
X0041840Y0036187D02*
X0050343Y0036187D01*
X0051482Y0034588D02*
X0040701Y0034588D01*
X0033682Y0034588D02*
X0024100Y0034588D01*
X0024100Y0032990D02*
X0095928Y0032990D01*
X0096075Y0032905D02*
X0096533Y0032782D01*
X0099243Y0032782D01*
X0099243Y0036662D01*
X0100202Y0036662D01*
X0100202Y0037621D01*
X0104475Y0037621D01*
X0104475Y0039937D01*
X0104352Y0040395D01*
X0104115Y0040806D01*
X0103780Y0041141D01*
X0103750Y0041158D01*
X0104075Y0041483D01*
X0104075Y0042913D01*
X0133260Y0042857D01*
X0133261Y0042856D01*
X0133961Y0042856D01*
X0134666Y0042855D01*
X0134668Y0042856D01*
X0134670Y0042856D01*
X0135165Y0043351D01*
X0135664Y0043848D01*
X0135664Y0043850D01*
X0135665Y0043852D01*
X0135665Y0044552D01*
X0135667Y0045257D01*
X0135665Y0045258D01*
X0135665Y0053235D01*
X0136711Y0053235D01*
X0137531Y0054055D01*
X0137531Y0057229D01*
X0137571Y0057270D01*
X0137808Y0057680D01*
X0137931Y0058138D01*
X0137931Y0059556D01*
X0137931Y0060974D01*
X0137808Y0061432D01*
X0137571Y0061842D01*
X0137531Y0061883D01*
X0137531Y0065057D01*
X0136711Y0065877D01*
X0131220Y0065877D01*
X0130400Y0065057D01*
X0130400Y0061883D01*
X0130360Y0061842D01*
X0130123Y0061432D01*
X0130000Y0060974D01*
X0130000Y0059556D01*
X0133965Y0059556D01*
X0133965Y0059556D01*
X0130000Y0059556D01*
X0130000Y0058138D01*
X0130123Y0057680D01*
X0130360Y0057270D01*
X0130400Y0057229D01*
X0130400Y0054055D01*
X0131220Y0053235D01*
X0132265Y0053235D01*
X0132265Y0046259D01*
X0104075Y0046313D01*
X0104075Y0047761D01*
X0103255Y0048581D01*
X0101419Y0048581D01*
X0101417Y0050203D01*
X0102852Y0050203D01*
X0103454Y0050804D01*
X0104055Y0050203D01*
X0110333Y0050203D01*
X0111153Y0051023D01*
X0111153Y0053287D01*
X0111686Y0053066D01*
X0112780Y0053066D01*
X0113791Y0053484D01*
X0114422Y0054116D01*
X0119376Y0054116D01*
X0119376Y0054055D01*
X0120196Y0053235D01*
X0125687Y0053235D01*
X0126507Y0054055D01*
X0126507Y0057577D01*
X0125687Y0058397D01*
X0120196Y0058397D01*
X0119376Y0057577D01*
X0119376Y0057516D01*
X0114422Y0057516D01*
X0113791Y0058147D01*
X0112780Y0058566D01*
X0111686Y0058566D01*
X0110972Y0058270D01*
X0110333Y0058909D01*
X0104055Y0058909D01*
X0103454Y0058307D01*
X0102852Y0058909D01*
X0101413Y0058909D01*
X0101413Y0060203D01*
X0102852Y0060203D01*
X0103454Y0060804D01*
X0104055Y0060203D01*
X0110333Y0060203D01*
X0111153Y0061023D01*
X0111153Y0061596D01*
X0119376Y0061596D01*
X0119376Y0061535D01*
X0120196Y0060715D01*
X0125687Y0060715D01*
X0126507Y0061535D01*
X0126507Y0065057D01*
X0125687Y0065877D01*
X0120196Y0065877D01*
X0119376Y0065057D01*
X0119376Y0064996D01*
X0111153Y0064996D01*
X0111153Y0068089D01*
X0110333Y0068909D01*
X0108902Y0068909D01*
X0108925Y0081731D01*
X0109056Y0081731D01*
X0110533Y0083208D01*
X0110533Y0078320D01*
X0109902Y0077688D01*
X0109483Y0076678D01*
X0109483Y0075584D01*
X0109902Y0074573D01*
X0110675Y0073799D01*
X0111686Y0073381D01*
X0112780Y0073381D01*
X0113791Y0073799D01*
X0114564Y0074573D01*
X0114983Y0075584D01*
X0114983Y0076678D01*
X0114564Y0077688D01*
X0113933Y0078320D01*
X0113933Y0083208D01*
X0115411Y0081731D01*
X0119056Y0081731D01*
X0121633Y0084308D01*
X0121633Y0087953D01*
X0119056Y0090531D01*
X0115411Y0090531D01*
X0113933Y0089053D01*
X0113933Y0091835D01*
X0112937Y0092831D01*
X0111546Y0094222D01*
X0111633Y0094308D01*
X0111633Y0097953D01*
X0109056Y0100531D01*
X0105411Y0100531D01*
X0102833Y0097953D01*
X0102833Y0094308D01*
X0105411Y0091731D01*
X0109056Y0091731D01*
X0109142Y0091817D01*
X0110533Y0090427D01*
X0110533Y0089053D01*
X0109056Y0090531D01*
X0105411Y0090531D01*
X0102833Y0087953D01*
X0102833Y0084308D01*
X0105411Y0081731D01*
X0105525Y0081731D01*
X0105502Y0068909D01*
X0104055Y0068909D01*
X0103454Y0068307D01*
X0102852Y0068909D01*
X0101424Y0068909D01*
X0101451Y0080465D01*
X0101453Y0080467D01*
X0101453Y0081170D01*
X0101454Y0081870D01*
X0101452Y0081873D01*
X0101452Y0081876D01*
X0100955Y0082372D01*
X0100461Y0082868D01*
X0100458Y0082868D01*
X0100455Y0082871D01*
X0100195Y0082870D01*
X0101633Y0084308D01*
X0101633Y0087953D01*
X0099056Y0090531D01*
X0095411Y0090531D01*
X0092833Y0087953D01*
X0092833Y0084308D01*
X0094276Y0082865D01*
X0090186Y0082861D01*
X0091633Y0084308D01*
X0091633Y0087953D01*
X0089056Y0090531D01*
X0085411Y0090531D01*
X0082833Y0087953D01*
X0082833Y0084308D01*
X0084286Y0082856D01*
X0080177Y0082852D01*
X0081633Y0084308D01*
X0081633Y0087953D01*
X0079056Y0090531D01*
X0075411Y0090531D01*
X0072833Y0087953D01*
X0072833Y0084308D01*
X0074295Y0082846D01*
X0070168Y0082843D01*
X0071633Y0084308D01*
X0071633Y0087953D01*
X0069056Y0090531D01*
X0065411Y0090531D01*
X0062833Y0087953D01*
X0062833Y0084308D01*
X0064304Y0082837D01*
X0060158Y0082833D01*
X0061633Y0084308D01*
X0061633Y0087953D01*
X0059056Y0090531D01*
X0058933Y0090531D01*
X0058933Y0091731D01*
X0059056Y0091731D01*
X0061633Y0094308D01*
X0061633Y0097953D01*
X0059056Y0100531D01*
X0058933Y0100531D01*
X0058933Y0101202D01*
X0109350Y0101202D01*
X0110054Y0101202D01*
X0110757Y0101202D01*
X0110758Y0101203D01*
X0111256Y0101701D01*
X0111753Y0102198D01*
X0111753Y0102199D01*
X0111754Y0102199D01*
X0111753Y0102908D01*
X0111753Y0103607D01*
X0111736Y0134822D01*
X0113567Y0134822D01*
X0114387Y0135642D01*
X0114387Y0137083D01*
X0118476Y0137085D01*
X0118476Y0135648D01*
X0119296Y0134828D01*
X0126362Y0134828D01*
X0127182Y0135648D01*
X0127182Y0137089D01*
X0135383Y0137094D01*
X0135383Y0137017D01*
X0136203Y0136197D01*
X0146063Y0136197D01*
X0146883Y0137017D01*
X0146883Y0140577D01*
X0146163Y0141297D01*
X0146883Y0142017D01*
X0146883Y0142097D01*
X0150559Y0142097D01*
X0150559Y0101751D01*
X0150555Y0101748D01*
X0150559Y0101048D01*
X0150559Y0100348D01*
X0150563Y0100345D01*
X0150563Y0100339D01*
X0151061Y0099847D01*
X0151555Y0099352D01*
X0151560Y0099352D01*
X0152903Y0098023D01*
X0152833Y0097953D01*
X0152833Y0094308D01*
X0154311Y0092831D01*
X0150156Y0092831D01*
X0151633Y0094308D01*
X0151633Y0097953D01*
X0149056Y0100531D01*
X0145411Y0100531D01*
X0142833Y0097953D01*
X0142833Y0094308D01*
X0144311Y0092831D01*
X0140156Y0092831D01*
X0141633Y0094308D01*
X0141633Y0097953D01*
X0139056Y0100531D01*
X0135411Y0100531D01*
X0132833Y0097953D01*
X0132833Y0094308D01*
X0134311Y0092831D01*
X0132937Y0092831D01*
X0131546Y0094222D01*
X0131633Y0094308D01*
X0131633Y0097953D01*
X0129056Y0100531D01*
X0125411Y0100531D01*
X0122833Y0097953D01*
X0122833Y0094308D01*
X0125411Y0091731D01*
X0129056Y0091731D01*
X0129142Y0091817D01*
X0130533Y0090427D01*
X0131529Y0089431D01*
X0134311Y0089431D01*
X0132833Y0087953D01*
X0132833Y0084308D01*
X0135411Y0081731D01*
X0139056Y0081731D01*
X0141633Y0084308D01*
X0141633Y0087953D01*
X0140156Y0089431D01*
X0144311Y0089431D01*
X0142833Y0087953D01*
X0142833Y0084308D01*
X0145411Y0081731D01*
X0149056Y0081731D01*
X0151633Y0084308D01*
X0151633Y0087953D01*
X0150156Y0089431D01*
X0154311Y0089431D01*
X0152833Y0087953D01*
X0152833Y0084308D01*
X0155411Y0081731D01*
X0159056Y0081731D01*
X0160533Y0083208D01*
X0160533Y0083064D01*
X0194065Y0049532D01*
X0194065Y0042956D01*
X0194885Y0042136D01*
X0203045Y0042136D01*
X0203865Y0042956D01*
X0203865Y0051116D01*
X0203045Y0051936D01*
X0196470Y0051936D01*
X0166675Y0081731D01*
X0169056Y0081731D01*
X0171633Y0084308D01*
X0171633Y0084431D01*
X0172833Y0084431D01*
X0172833Y0084308D01*
X0175411Y0081731D01*
X0179056Y0081731D01*
X0181633Y0084308D01*
X0181633Y0087953D01*
X0181551Y0088035D01*
X0182977Y0089456D01*
X0182979Y0089456D01*
X0183474Y0089952D01*
X0183974Y0090449D01*
X0183974Y0090451D01*
X0183975Y0090452D01*
X0183975Y0091154D01*
X0183976Y0091858D01*
X0183975Y0091859D01*
X0183975Y0093167D01*
X0185411Y0091731D01*
X0189056Y0091731D01*
X0191633Y0094308D01*
X0191633Y0096119D01*
X0192833Y0097319D01*
X0192833Y0094308D01*
X0195411Y0091731D01*
X0199056Y0091731D01*
X0201633Y0094308D01*
X0201633Y0097953D01*
X0199056Y0100531D01*
X0196045Y0100531D01*
X0207804Y0112290D01*
X0212892Y0112290D01*
X0213493Y0112891D01*
X0214094Y0112290D01*
X0215533Y0112290D01*
X0215533Y0100531D01*
X0215411Y0100531D01*
X0212833Y0097953D01*
X0212833Y0094308D01*
X0215411Y0091731D01*
X0219056Y0091731D01*
X0221633Y0094308D01*
X0221633Y0097953D01*
X0219056Y0100531D01*
X0218933Y0100531D01*
X0218933Y0112290D01*
X0220372Y0112290D01*
X0221192Y0113110D01*
X0221192Y0120175D01*
X0220372Y0120995D01*
X0218933Y0120995D01*
X0218933Y0133834D01*
X0219895Y0134233D01*
X0221218Y0135555D01*
X0221933Y0137282D01*
X0221933Y0139152D01*
X0221218Y0140880D01*
X0219895Y0142202D01*
X0218168Y0142917D01*
X0216298Y0142917D01*
X0214571Y0142202D01*
X0213249Y0140880D01*
X0212533Y0139152D01*
X0212533Y0137282D01*
X0213249Y0135555D01*
X0214571Y0134233D01*
X0215533Y0133834D01*
X0215533Y0120995D01*
X0214094Y0120995D01*
X0213493Y0120394D01*
X0212892Y0120995D01*
X0206614Y0120995D01*
X0205794Y0120175D01*
X0205794Y0115088D01*
X0190146Y0099440D01*
X0189056Y0100531D01*
X0185411Y0100531D01*
X0183975Y0099095D01*
X0183975Y0144501D01*
X0182979Y0145497D01*
X0167483Y0145497D01*
X0167483Y0145577D01*
X0166763Y0146297D01*
X0167483Y0147017D01*
X0167483Y0150577D01*
X0167007Y0151052D01*
X0167188Y0151157D01*
X0167523Y0151492D01*
X0167760Y0151902D01*
X0167883Y0152360D01*
X0167883Y0153797D01*
X0161733Y0153797D01*
X0161733Y0153797D01*
X0167883Y0153797D01*
X0167883Y0155234D01*
X0167760Y0155692D01*
X0167523Y0156102D01*
X0167188Y0156438D01*
X0166777Y0156674D01*
X0166320Y0156797D01*
X0161733Y0156797D01*
X0161733Y0153797D01*
X0161733Y0153797D01*
X0155583Y0153797D01*
X0155583Y0152360D01*
X0155705Y0151902D01*
X0155942Y0151492D01*
X0156277Y0151157D01*
X0156458Y0151052D01*
X0155983Y0150577D01*
X0155983Y0147017D01*
X0156703Y0146297D01*
X0155983Y0145577D01*
X0155983Y0142017D01*
X0156703Y0141297D01*
X0155983Y0140577D01*
X0155983Y0137017D01*
X0156803Y0136197D01*
X0166663Y0136197D01*
X0167483Y0137017D01*
X0167483Y0137088D01*
X0172885Y0137079D01*
X0172885Y0135633D01*
X0173486Y0135032D01*
X0172885Y0134431D01*
X0172885Y0128500D01*
X0170307Y0128500D01*
X0170307Y0130333D01*
X0169487Y0131153D01*
X0163209Y0131153D01*
X0162608Y0130552D01*
X0162007Y0131153D01*
X0155729Y0131153D01*
X0154909Y0130333D01*
X0154909Y0123267D01*
X0155729Y0122447D01*
X0157168Y0122447D01*
X0157168Y0103791D01*
X0162920Y0098040D01*
X0162833Y0097953D01*
X0162833Y0094308D01*
X0165411Y0091731D01*
X0169056Y0091731D01*
X0170606Y0093281D01*
X0170606Y0088980D01*
X0169056Y0090531D01*
X0165411Y0090531D01*
X0163933Y0089053D01*
X0163933Y0091835D01*
X0162937Y0092831D01*
X0161529Y0092831D01*
X0160156Y0092831D01*
X0161633Y0094308D01*
X0161633Y0097953D01*
X0159056Y0100531D01*
X0155411Y0100531D01*
X0155307Y0100428D01*
X0153959Y0101762D01*
X0153959Y0144501D01*
X0152963Y0145497D01*
X0146883Y0145497D01*
X0146883Y0145577D01*
X0146163Y0146297D01*
X0146883Y0147017D01*
X0146883Y0150577D01*
X0146163Y0151297D01*
X0146883Y0152017D01*
X0146883Y0155577D01*
X0146063Y0156397D01*
X0136203Y0156397D01*
X0135383Y0155577D01*
X0135383Y0152017D01*
X0136103Y0151297D01*
X0135383Y0150577D01*
X0135383Y0147017D01*
X0136103Y0146297D01*
X0135383Y0145577D01*
X0135383Y0145497D01*
X0127182Y0145497D01*
X0127182Y0149406D01*
X0126362Y0150226D01*
X0119296Y0150226D01*
X0118476Y0149406D01*
X0118476Y0143128D01*
X0119078Y0142527D01*
X0118476Y0141926D01*
X0118476Y0140485D01*
X0114387Y0140483D01*
X0114387Y0141920D01*
X0114062Y0142245D01*
X0114092Y0142262D01*
X0114427Y0142597D01*
X0114664Y0143008D01*
X0114787Y0143465D01*
X0114787Y0145782D01*
X0110513Y0145782D01*
X0110513Y0146741D01*
X0109554Y0146741D01*
X0109554Y0145782D01*
X0105281Y0145782D01*
X0105281Y0143465D01*
X0105404Y0143008D01*
X0105641Y0142597D01*
X0105976Y0142262D01*
X0106006Y0142245D01*
X0105681Y0141920D01*
X0105681Y0135642D01*
X0106501Y0134822D01*
X0108336Y0134822D01*
X0108352Y0104602D01*
X0057937Y0104602D01*
X0049105Y0113434D01*
X0049105Y0118522D01*
X0048285Y0119342D01*
X0042007Y0119342D01*
X0041406Y0118741D01*
X0040805Y0119342D01*
X0039373Y0119342D01*
X0039399Y0135603D01*
X0040368Y0136005D01*
X0041690Y0137327D01*
X0042405Y0139054D01*
X0042405Y0140924D01*
X0041690Y0142651D01*
X0040368Y0143973D01*
X0038640Y0144689D01*
X0036771Y0144689D01*
X0035043Y0143973D01*
X0033721Y0142651D01*
X0033006Y0140924D01*
X0033006Y0139054D01*
X0033721Y0137327D01*
X0035043Y0136005D01*
X0035999Y0135609D01*
X0035973Y0119342D01*
X0034527Y0119342D01*
X0033707Y0118522D01*
X0033707Y0111456D01*
X0034527Y0110636D01*
X0040805Y0110636D01*
X0041406Y0111237D01*
X0042007Y0110636D01*
X0047095Y0110636D01*
X0055533Y0102198D01*
X0055533Y0100531D01*
X0055411Y0100531D01*
X0052833Y0097953D01*
X0052833Y0094308D01*
X0055411Y0091731D01*
X0055533Y0091731D01*
X0055533Y0090531D01*
X0055411Y0090531D01*
X0052833Y0087953D01*
X0052833Y0084308D01*
X0055411Y0081731D01*
X0055533Y0081731D01*
X0055533Y0081129D01*
X0055533Y0080427D01*
X0055534Y0080426D01*
X0055534Y0080425D01*
X0056032Y0079928D01*
X0056529Y0079431D01*
X0056530Y0079431D01*
X0056530Y0079430D01*
X0057235Y0079431D01*
X0057937Y0079431D01*
X0057938Y0079431D01*
X0098049Y0079469D01*
X0098024Y0068909D01*
X0096574Y0068909D01*
X0095754Y0068089D01*
X0095754Y0061023D01*
X0096574Y0060203D01*
X0098013Y0060203D01*
X0098013Y0058909D01*
X0096574Y0058909D01*
X0095754Y0058089D01*
X0095754Y0051023D01*
X0096574Y0050203D01*
X0098017Y0050203D01*
X0098019Y0048581D01*
X0096190Y0048581D01*
X0095370Y0047761D01*
X0095370Y0041483D01*
X0095694Y0041158D01*
X0095664Y0041141D01*
X0095329Y0040806D01*
X0095092Y0040395D01*
X0094970Y0039937D01*
X0094970Y0037621D01*
X0099243Y0037621D01*
X0099243Y0036662D01*
X0094970Y0036662D01*
X0094970Y0034345D01*
X0095092Y0033887D01*
X0095329Y0033477D01*
X0095664Y0033142D01*
X0096075Y0032905D01*
X0094970Y0034588D02*
X0058501Y0034588D01*
X0059640Y0036187D02*
X0094970Y0036187D01*
X0094970Y0037785D02*
X0060091Y0037785D01*
X0060059Y0039384D02*
X0094970Y0039384D01*
X0095506Y0040982D02*
X0059397Y0040982D01*
X0057915Y0042581D02*
X0095370Y0042581D01*
X0095370Y0044179D02*
X0056691Y0044179D01*
X0056691Y0045778D02*
X0095370Y0045778D01*
X0095370Y0047376D02*
X0056691Y0047376D01*
X0056691Y0048975D02*
X0098018Y0048975D01*
X0096204Y0050573D02*
X0056691Y0050573D01*
X0056691Y0052172D02*
X0070694Y0052172D01*
X0070554Y0052209D02*
X0071012Y0052087D01*
X0073722Y0052087D01*
X0073722Y0055966D01*
X0069449Y0055966D01*
X0069449Y0053650D01*
X0069571Y0053192D01*
X0069808Y0052781D01*
X0070144Y0052446D01*
X0070554Y0052209D01*
X0069449Y0053770D02*
X0056691Y0053770D01*
X0056691Y0055369D02*
X0069449Y0055369D01*
X0069449Y0056967D02*
X0056691Y0056967D01*
X0056691Y0058566D02*
X0069449Y0058566D01*
X0069863Y0060164D02*
X0058477Y0060164D01*
X0059630Y0061763D02*
X0069849Y0061763D01*
X0069849Y0066558D02*
X0059407Y0066558D01*
X0057938Y0068157D02*
X0072502Y0068157D01*
X0075902Y0068157D02*
X0095823Y0068157D01*
X0095754Y0066558D02*
X0078554Y0066558D01*
X0078554Y0064960D02*
X0095754Y0064960D01*
X0095754Y0063361D02*
X0078554Y0063361D01*
X0078554Y0061763D02*
X0095754Y0061763D01*
X0098013Y0060164D02*
X0078540Y0060164D01*
X0078954Y0058566D02*
X0096232Y0058566D01*
X0095754Y0056967D02*
X0078954Y0056967D01*
X0078954Y0055369D02*
X0095754Y0055369D01*
X0095754Y0053770D02*
X0078954Y0053770D01*
X0077709Y0052172D02*
X0095754Y0052172D01*
X0101418Y0048975D02*
X0132265Y0048975D01*
X0132265Y0050573D02*
X0110703Y0050573D01*
X0111153Y0052172D02*
X0132265Y0052172D01*
X0130685Y0053770D02*
X0126223Y0053770D01*
X0126507Y0055369D02*
X0130400Y0055369D01*
X0130400Y0056967D02*
X0126507Y0056967D01*
X0130000Y0058566D02*
X0110676Y0058566D01*
X0114077Y0053770D02*
X0119661Y0053770D01*
X0126507Y0061763D02*
X0130314Y0061763D01*
X0130400Y0063361D02*
X0126507Y0063361D01*
X0126507Y0064960D02*
X0130400Y0064960D01*
X0130000Y0060164D02*
X0101413Y0060164D01*
X0103195Y0058566D02*
X0103712Y0058566D01*
X0103685Y0050573D02*
X0103222Y0050573D01*
X0104075Y0047376D02*
X0132265Y0047376D01*
X0135665Y0047376D02*
X0194065Y0047376D01*
X0194065Y0045778D02*
X0135665Y0045778D01*
X0135665Y0044179D02*
X0194065Y0044179D01*
X0194441Y0042581D02*
X0104075Y0042581D01*
X0103939Y0040982D02*
X0250445Y0040982D01*
X0250445Y0039384D02*
X0104475Y0039384D01*
X0104475Y0037785D02*
X0250445Y0037785D01*
X0250445Y0036187D02*
X0104475Y0036187D01*
X0104475Y0036662D02*
X0100202Y0036662D01*
X0100202Y0032782D01*
X0102912Y0032782D01*
X0103370Y0032905D01*
X0103780Y0033142D01*
X0104115Y0033477D01*
X0104352Y0033887D01*
X0104475Y0034345D01*
X0104475Y0036662D01*
X0104475Y0034588D02*
X0250445Y0034588D01*
X0250445Y0032990D02*
X0103516Y0032990D01*
X0100202Y0032990D02*
X0099243Y0032990D01*
X0099243Y0034588D02*
X0100202Y0034588D01*
X0100202Y0036187D02*
X0099243Y0036187D01*
X0074681Y0052172D02*
X0073722Y0052172D01*
X0073722Y0053770D02*
X0074681Y0053770D01*
X0074681Y0055369D02*
X0073722Y0055369D01*
X0075902Y0069755D02*
X0098026Y0069755D01*
X0098030Y0071354D02*
X0075991Y0071354D01*
X0076952Y0072952D02*
X0098033Y0072952D01*
X0101433Y0072952D02*
X0105509Y0072952D01*
X0105506Y0071354D02*
X0101429Y0071354D01*
X0101426Y0069755D02*
X0105503Y0069755D01*
X0108903Y0069755D02*
X0173842Y0069755D01*
X0175441Y0068157D02*
X0111084Y0068157D01*
X0111153Y0066558D02*
X0177039Y0066558D01*
X0178638Y0064960D02*
X0137531Y0064960D01*
X0137531Y0063361D02*
X0180236Y0063361D01*
X0181835Y0061763D02*
X0137617Y0061763D01*
X0137931Y0060164D02*
X0183433Y0060164D01*
X0185032Y0058566D02*
X0137931Y0058566D01*
X0137931Y0059556D02*
X0133965Y0059556D01*
X0137931Y0059556D01*
X0137531Y0056967D02*
X0186630Y0056967D01*
X0188229Y0055369D02*
X0137531Y0055369D01*
X0137246Y0053770D02*
X0189827Y0053770D01*
X0191426Y0052172D02*
X0135665Y0052172D01*
X0135665Y0050573D02*
X0193024Y0050573D01*
X0194065Y0048975D02*
X0135665Y0048975D01*
X0133965Y0059556D02*
X0133965Y0059556D01*
X0114542Y0074551D02*
X0169047Y0074551D01*
X0170645Y0072952D02*
X0108909Y0072952D01*
X0108906Y0071354D02*
X0172244Y0071354D01*
X0175453Y0072952D02*
X0250445Y0072952D01*
X0250445Y0071354D02*
X0177052Y0071354D01*
X0178650Y0069755D02*
X0250445Y0069755D01*
X0250445Y0068157D02*
X0180249Y0068157D01*
X0181847Y0066558D02*
X0250445Y0066558D01*
X0250445Y0064960D02*
X0183446Y0064960D01*
X0185044Y0063361D02*
X0250445Y0063361D01*
X0250445Y0061763D02*
X0186643Y0061763D01*
X0188241Y0060164D02*
X0250445Y0060164D01*
X0250445Y0058566D02*
X0189840Y0058566D01*
X0191438Y0056967D02*
X0250445Y0056967D01*
X0250445Y0055369D02*
X0193037Y0055369D01*
X0194635Y0053770D02*
X0250445Y0053770D01*
X0250445Y0052172D02*
X0225902Y0052172D01*
X0225797Y0052206D02*
X0224973Y0052336D01*
X0224556Y0052336D01*
X0224556Y0047036D01*
X0224556Y0041736D01*
X0224973Y0041736D01*
X0225797Y0041867D01*
X0226590Y0042125D01*
X0227334Y0042503D01*
X0228009Y0042994D01*
X0228599Y0043584D01*
X0229089Y0044258D01*
X0229468Y0045002D01*
X0229725Y0045795D01*
X0229856Y0046619D01*
X0229856Y0047036D01*
X0224556Y0047036D01*
X0224556Y0047036D01*
X0224556Y0047036D01*
X0224556Y0041736D01*
X0224139Y0041736D01*
X0223315Y0041867D01*
X0222521Y0042125D01*
X0221778Y0042503D01*
X0221103Y0042994D01*
X0220513Y0043584D01*
X0220023Y0044258D01*
X0219644Y0045002D01*
X0219386Y0045795D01*
X0219256Y0046619D01*
X0219256Y0047036D01*
X0224556Y0047036D01*
X0229856Y0047036D01*
X0229856Y0047453D01*
X0229725Y0048277D01*
X0229468Y0049071D01*
X0229089Y0049814D01*
X0228599Y0050489D01*
X0228009Y0051079D01*
X0227334Y0051569D01*
X0226590Y0051948D01*
X0225797Y0052206D01*
X0224556Y0052172D02*
X0224556Y0052172D01*
X0224556Y0052336D02*
X0224139Y0052336D01*
X0223315Y0052206D01*
X0222521Y0051948D01*
X0221778Y0051569D01*
X0221103Y0051079D01*
X0220513Y0050489D01*
X0220023Y0049814D01*
X0219644Y0049071D01*
X0219386Y0048277D01*
X0219256Y0047453D01*
X0219256Y0047036D01*
X0224556Y0047036D01*
X0224556Y0047036D01*
X0224556Y0047036D01*
X0224556Y0052336D01*
X0223210Y0052172D02*
X0196234Y0052172D01*
X0203865Y0050573D02*
X0220598Y0050573D01*
X0219613Y0048975D02*
X0203865Y0048975D01*
X0203865Y0047376D02*
X0219256Y0047376D01*
X0219392Y0045778D02*
X0203865Y0045778D01*
X0203865Y0044179D02*
X0220080Y0044179D01*
X0221672Y0042581D02*
X0203490Y0042581D01*
X0224556Y0042581D02*
X0224556Y0042581D01*
X0224556Y0044179D02*
X0224556Y0044179D01*
X0224556Y0045778D02*
X0224556Y0045778D01*
X0224556Y0047376D02*
X0224556Y0047376D01*
X0224556Y0048975D02*
X0224556Y0048975D01*
X0224556Y0050573D02*
X0224556Y0050573D01*
X0228514Y0050573D02*
X0250445Y0050573D01*
X0250445Y0048975D02*
X0229499Y0048975D01*
X0229856Y0047376D02*
X0250445Y0047376D01*
X0250445Y0045778D02*
X0229720Y0045778D01*
X0229031Y0044179D02*
X0250445Y0044179D01*
X0250445Y0042581D02*
X0227440Y0042581D01*
X0250445Y0031391D02*
X0024100Y0031391D01*
X0024100Y0029793D02*
X0250445Y0029793D01*
X0250445Y0028194D02*
X0024100Y0028194D01*
X0024100Y0026596D02*
X0250445Y0026596D01*
X0250445Y0024997D02*
X0024100Y0024997D01*
X0024100Y0024100D02*
X0024100Y0082476D01*
X0025245Y0081331D01*
X0027033Y0081331D01*
X0027033Y0085931D01*
X0027433Y0085931D01*
X0027433Y0086331D01*
X0027033Y0086331D01*
X0027033Y0090931D01*
X0025245Y0090931D01*
X0024100Y0089786D01*
X0024100Y0092476D01*
X0025245Y0091331D01*
X0027033Y0091331D01*
X0027033Y0095931D01*
X0027433Y0095931D01*
X0027433Y0096331D01*
X0027033Y0096331D01*
X0027033Y0100931D01*
X0025245Y0100931D01*
X0024100Y0099786D01*
X0024100Y0158199D01*
X0250445Y0158045D01*
X0250445Y0099707D01*
X0249221Y0100931D01*
X0247433Y0100931D01*
X0247433Y0096331D01*
X0247033Y0096331D01*
X0247033Y0100931D01*
X0245245Y0100931D01*
X0242433Y0098119D01*
X0242433Y0096331D01*
X0247033Y0096331D01*
X0247033Y0095931D01*
X0242433Y0095931D01*
X0242433Y0094142D01*
X0245245Y0091331D01*
X0247033Y0091331D01*
X0247033Y0095931D01*
X0247433Y0095931D01*
X0247433Y0091331D01*
X0249221Y0091331D01*
X0250445Y0092554D01*
X0250445Y0089707D01*
X0249221Y0090931D01*
X0247433Y0090931D01*
X0247433Y0086331D01*
X0247033Y0086331D01*
X0247033Y0090931D01*
X0245245Y0090931D01*
X0242433Y0088119D01*
X0242433Y0086331D01*
X0247033Y0086331D01*
X0247033Y0085931D01*
X0242433Y0085931D01*
X0242433Y0084142D01*
X0245245Y0081331D01*
X0247033Y0081331D01*
X0247033Y0085931D01*
X0247433Y0085931D01*
X0247433Y0081331D01*
X0249221Y0081331D01*
X0250445Y0082554D01*
X0250445Y0024100D01*
X0024100Y0024100D01*
X0024100Y0036187D02*
X0032543Y0036187D01*
X0032091Y0037785D02*
X0024100Y0037785D01*
X0024100Y0039384D02*
X0032124Y0039384D01*
X0032786Y0040982D02*
X0024100Y0040982D01*
X0024100Y0042581D02*
X0034268Y0042581D01*
X0035491Y0044179D02*
X0024100Y0044179D01*
X0024100Y0045778D02*
X0035491Y0045778D01*
X0035491Y0047376D02*
X0024100Y0047376D01*
X0024100Y0048975D02*
X0035491Y0048975D01*
X0035491Y0050573D02*
X0024100Y0050573D01*
X0024100Y0052172D02*
X0035491Y0052172D01*
X0035491Y0053770D02*
X0024100Y0053770D01*
X0024100Y0055369D02*
X0035491Y0055369D01*
X0035491Y0056967D02*
X0024100Y0056967D01*
X0024100Y0058566D02*
X0035491Y0058566D01*
X0033706Y0060164D02*
X0024100Y0060164D01*
X0024100Y0061763D02*
X0032553Y0061763D01*
X0032091Y0063361D02*
X0024100Y0063361D01*
X0024100Y0064960D02*
X0032114Y0064960D01*
X0032776Y0066558D02*
X0024100Y0066558D01*
X0024100Y0068157D02*
X0034244Y0068157D01*
X0035502Y0069755D02*
X0024100Y0069755D01*
X0024100Y0071354D02*
X0035505Y0071354D01*
X0035508Y0072952D02*
X0024100Y0072952D01*
X0024100Y0074551D02*
X0035511Y0074551D01*
X0035514Y0076149D02*
X0024100Y0076149D01*
X0024100Y0077748D02*
X0035517Y0077748D01*
X0035520Y0079346D02*
X0024100Y0079346D01*
X0024100Y0080945D02*
X0035523Y0080945D01*
X0034598Y0082543D02*
X0030434Y0082543D01*
X0029221Y0081331D02*
X0032033Y0084142D01*
X0032999Y0084142D01*
X0032033Y0084142D02*
X0032033Y0085931D01*
X0027433Y0085931D01*
X0027433Y0081331D01*
X0029221Y0081331D01*
X0027433Y0082543D02*
X0027033Y0082543D01*
X0027033Y0084142D02*
X0027433Y0084142D01*
X0027433Y0085740D02*
X0027033Y0085740D01*
X0027433Y0086331D02*
X0032033Y0086331D01*
X0032033Y0088119D01*
X0029221Y0090931D01*
X0027433Y0090931D01*
X0027433Y0086331D01*
X0027433Y0087339D02*
X0027033Y0087339D01*
X0027033Y0088937D02*
X0027433Y0088937D01*
X0027433Y0090536D02*
X0027033Y0090536D01*
X0027433Y0091331D02*
X0029221Y0091331D01*
X0032033Y0094142D01*
X0032033Y0095931D01*
X0027433Y0095931D01*
X0027433Y0091331D01*
X0027433Y0092134D02*
X0027033Y0092134D01*
X0027033Y0093733D02*
X0027433Y0093733D01*
X0027433Y0095332D02*
X0027033Y0095332D01*
X0027433Y0096331D02*
X0032033Y0096331D01*
X0032033Y0098119D01*
X0029221Y0100931D01*
X0027433Y0100931D01*
X0027433Y0096331D01*
X0027433Y0096930D02*
X0027033Y0096930D01*
X0027033Y0098529D02*
X0027433Y0098529D01*
X0027433Y0100127D02*
X0027033Y0100127D01*
X0024441Y0100127D02*
X0024100Y0100127D01*
X0024100Y0101726D02*
X0055533Y0101726D01*
X0055007Y0100127D02*
X0049459Y0100127D01*
X0049056Y0100531D02*
X0045411Y0100531D01*
X0042833Y0097953D01*
X0042833Y0094308D01*
X0045411Y0091731D01*
X0049056Y0091731D01*
X0051633Y0094308D01*
X0051633Y0097953D01*
X0049056Y0100531D01*
X0051058Y0098529D02*
X0053408Y0098529D01*
X0052833Y0096930D02*
X0051633Y0096930D01*
X0051633Y0095332D02*
X0052833Y0095332D01*
X0053408Y0093733D02*
X0051058Y0093733D01*
X0049459Y0092134D02*
X0055007Y0092134D01*
X0055533Y0090536D02*
X0038933Y0090536D01*
X0039459Y0092134D02*
X0045007Y0092134D01*
X0045411Y0090531D02*
X0042833Y0087953D01*
X0042833Y0084308D01*
X0045411Y0081731D01*
X0049056Y0081731D01*
X0051633Y0084308D01*
X0051633Y0087953D01*
X0049056Y0090531D01*
X0045411Y0090531D01*
X0043817Y0088937D02*
X0040649Y0088937D01*
X0041633Y0087339D02*
X0042833Y0087339D01*
X0042833Y0085740D02*
X0041633Y0085740D01*
X0041467Y0084142D02*
X0042999Y0084142D01*
X0044598Y0082543D02*
X0039868Y0082543D01*
X0038923Y0080945D02*
X0055533Y0080945D01*
X0054598Y0082543D02*
X0049868Y0082543D01*
X0051467Y0084142D02*
X0052999Y0084142D01*
X0052833Y0085740D02*
X0051633Y0085740D01*
X0051633Y0087339D02*
X0052833Y0087339D01*
X0053817Y0088937D02*
X0050649Y0088937D01*
X0058933Y0090536D02*
X0110424Y0090536D01*
X0113933Y0090536D02*
X0130424Y0090536D01*
X0129056Y0090531D02*
X0125411Y0090531D01*
X0122833Y0087953D01*
X0122833Y0084308D01*
X0125411Y0081731D01*
X0129056Y0081731D01*
X0131633Y0084308D01*
X0131633Y0087953D01*
X0129056Y0090531D01*
X0130649Y0088937D02*
X0133817Y0088937D01*
X0132833Y0087339D02*
X0131633Y0087339D01*
X0131633Y0085740D02*
X0132833Y0085740D01*
X0132999Y0084142D02*
X0131467Y0084142D01*
X0129868Y0082543D02*
X0134598Y0082543D01*
X0139868Y0082543D02*
X0144598Y0082543D01*
X0142999Y0084142D02*
X0141467Y0084142D01*
X0141633Y0085740D02*
X0142833Y0085740D01*
X0142833Y0087339D02*
X0141633Y0087339D01*
X0140649Y0088937D02*
X0143817Y0088937D01*
X0143408Y0093733D02*
X0141058Y0093733D01*
X0141633Y0095332D02*
X0142833Y0095332D01*
X0142833Y0096930D02*
X0141633Y0096930D01*
X0141058Y0098529D02*
X0143408Y0098529D01*
X0145007Y0100127D02*
X0139459Y0100127D01*
X0135007Y0100127D02*
X0129459Y0100127D01*
X0131058Y0098529D02*
X0133408Y0098529D01*
X0132833Y0096930D02*
X0131633Y0096930D01*
X0131633Y0095332D02*
X0132833Y0095332D01*
X0133408Y0093733D02*
X0132035Y0093733D01*
X0125007Y0092134D02*
X0119459Y0092134D01*
X0119056Y0091731D02*
X0115411Y0091731D01*
X0112833Y0094308D01*
X0112833Y0097953D01*
X0115411Y0100531D01*
X0119056Y0100531D01*
X0121633Y0097953D01*
X0121633Y0094308D01*
X0119056Y0091731D01*
X0120649Y0088937D02*
X0123817Y0088937D01*
X0122833Y0087339D02*
X0121633Y0087339D01*
X0121633Y0085740D02*
X0122833Y0085740D01*
X0122999Y0084142D02*
X0121467Y0084142D01*
X0119868Y0082543D02*
X0124598Y0082543D01*
X0114598Y0082543D02*
X0113933Y0082543D01*
X0113933Y0080945D02*
X0162652Y0080945D01*
X0161054Y0082543D02*
X0159868Y0082543D01*
X0164251Y0079346D02*
X0113933Y0079346D01*
X0114505Y0077748D02*
X0165850Y0077748D01*
X0167448Y0076149D02*
X0114983Y0076149D01*
X0109961Y0077748D02*
X0108918Y0077748D01*
X0108921Y0079346D02*
X0110533Y0079346D01*
X0110533Y0080945D02*
X0108924Y0080945D01*
X0109868Y0082543D02*
X0110533Y0082543D01*
X0105524Y0080945D02*
X0101453Y0080945D01*
X0101448Y0079346D02*
X0105521Y0079346D01*
X0105518Y0077748D02*
X0101445Y0077748D01*
X0101441Y0076149D02*
X0105515Y0076149D01*
X0105512Y0074551D02*
X0101437Y0074551D01*
X0098045Y0077748D02*
X0038917Y0077748D01*
X0038920Y0079346D02*
X0098048Y0079346D01*
X0100784Y0082543D02*
X0104598Y0082543D01*
X0102999Y0084142D02*
X0101467Y0084142D01*
X0101633Y0085740D02*
X0102833Y0085740D01*
X0102833Y0087339D02*
X0101633Y0087339D01*
X0100649Y0088937D02*
X0103817Y0088937D01*
X0105007Y0092134D02*
X0099459Y0092134D01*
X0099056Y0091731D02*
X0095411Y0091731D01*
X0092833Y0094308D01*
X0092833Y0097953D01*
X0095411Y0100531D01*
X0099056Y0100531D01*
X0101633Y0097953D01*
X0101633Y0094308D01*
X0099056Y0091731D01*
X0095007Y0092134D02*
X0089459Y0092134D01*
X0089056Y0091731D02*
X0091633Y0094308D01*
X0091633Y0097953D01*
X0089056Y0100531D01*
X0085411Y0100531D01*
X0082833Y0097953D01*
X0082833Y0094308D01*
X0085411Y0091731D01*
X0089056Y0091731D01*
X0090649Y0088937D02*
X0093817Y0088937D01*
X0092833Y0087339D02*
X0091633Y0087339D01*
X0091633Y0085740D02*
X0092833Y0085740D01*
X0092999Y0084142D02*
X0091467Y0084142D01*
X0082999Y0084142D02*
X0081467Y0084142D01*
X0081633Y0085740D02*
X0082833Y0085740D01*
X0082833Y0087339D02*
X0081633Y0087339D01*
X0080649Y0088937D02*
X0083817Y0088937D01*
X0085007Y0092134D02*
X0079459Y0092134D01*
X0079056Y0091731D02*
X0075411Y0091731D01*
X0072833Y0094308D01*
X0072833Y0097953D01*
X0075411Y0100531D01*
X0079056Y0100531D01*
X0081633Y0097953D01*
X0081633Y0094308D01*
X0079056Y0091731D01*
X0081058Y0093733D02*
X0083408Y0093733D01*
X0082833Y0095332D02*
X0081633Y0095332D01*
X0081633Y0096930D02*
X0082833Y0096930D01*
X0083408Y0098529D02*
X0081058Y0098529D01*
X0079459Y0100127D02*
X0085007Y0100127D01*
X0089459Y0100127D02*
X0095007Y0100127D01*
X0093408Y0098529D02*
X0091058Y0098529D01*
X0091633Y0096930D02*
X0092833Y0096930D01*
X0092833Y0095332D02*
X0091633Y0095332D01*
X0091058Y0093733D02*
X0093408Y0093733D01*
X0101058Y0093733D02*
X0103408Y0093733D01*
X0102833Y0095332D02*
X0101633Y0095332D01*
X0101633Y0096930D02*
X0102833Y0096930D01*
X0103408Y0098529D02*
X0101058Y0098529D01*
X0099459Y0100127D02*
X0105007Y0100127D01*
X0109459Y0100127D02*
X0115007Y0100127D01*
X0113408Y0098529D02*
X0111058Y0098529D01*
X0111633Y0096930D02*
X0112833Y0096930D01*
X0112833Y0095332D02*
X0111633Y0095332D01*
X0112035Y0093733D02*
X0113408Y0093733D01*
X0113633Y0092134D02*
X0115007Y0092134D01*
X0121058Y0093733D02*
X0123408Y0093733D01*
X0122833Y0095332D02*
X0121633Y0095332D01*
X0121633Y0096930D02*
X0122833Y0096930D01*
X0123408Y0098529D02*
X0121058Y0098529D01*
X0119459Y0100127D02*
X0125007Y0100127D01*
X0111753Y0103324D02*
X0150559Y0103324D01*
X0150556Y0101726D02*
X0111281Y0101726D01*
X0110758Y0101203D02*
X0110758Y0101203D01*
X0109350Y0101202D02*
X0109350Y0101202D01*
X0111753Y0103607D02*
X0111753Y0103607D01*
X0111752Y0104923D02*
X0150559Y0104923D01*
X0150559Y0106521D02*
X0111751Y0106521D01*
X0111750Y0108120D02*
X0150559Y0108120D01*
X0150559Y0109718D02*
X0111750Y0109718D01*
X0111749Y0111317D02*
X0150559Y0111317D01*
X0150559Y0112915D02*
X0111748Y0112915D01*
X0111747Y0114514D02*
X0150559Y0114514D01*
X0150559Y0116112D02*
X0111746Y0116112D01*
X0111745Y0117711D02*
X0150559Y0117711D01*
X0150559Y0119309D02*
X0111744Y0119309D01*
X0111744Y0120908D02*
X0150559Y0120908D01*
X0150559Y0122506D02*
X0111743Y0122506D01*
X0111742Y0124105D02*
X0150559Y0124105D01*
X0150559Y0125703D02*
X0111741Y0125703D01*
X0111740Y0127302D02*
X0150559Y0127302D01*
X0150559Y0128900D02*
X0111739Y0128900D01*
X0111738Y0130499D02*
X0150559Y0130499D01*
X0150559Y0132097D02*
X0111737Y0132097D01*
X0111737Y0133696D02*
X0150559Y0133696D01*
X0150559Y0135294D02*
X0126828Y0135294D01*
X0127182Y0136893D02*
X0135507Y0136893D01*
X0146758Y0136893D02*
X0150559Y0136893D01*
X0150559Y0138491D02*
X0146883Y0138491D01*
X0146883Y0140090D02*
X0150559Y0140090D01*
X0150559Y0141688D02*
X0146554Y0141688D01*
X0146349Y0146484D02*
X0156516Y0146484D01*
X0155983Y0148082D02*
X0146883Y0148082D01*
X0146883Y0149681D02*
X0155983Y0149681D01*
X0156155Y0151279D02*
X0146180Y0151279D01*
X0146883Y0152878D02*
X0155583Y0152878D01*
X0155583Y0153797D02*
X0161733Y0153797D01*
X0161733Y0153797D01*
X0161733Y0156797D01*
X0157146Y0156797D01*
X0156688Y0156674D01*
X0156277Y0156438D01*
X0155942Y0156102D01*
X0155705Y0155692D01*
X0155583Y0155234D01*
X0155583Y0153797D01*
X0155583Y0154476D02*
X0146883Y0154476D01*
X0146385Y0156075D02*
X0155927Y0156075D01*
X0161733Y0156075D02*
X0161733Y0156075D01*
X0161733Y0154476D02*
X0161733Y0154476D01*
X0167539Y0156075D02*
X0250445Y0156075D01*
X0250445Y0157673D02*
X0024100Y0157673D01*
X0024100Y0156075D02*
X0135881Y0156075D01*
X0135383Y0154476D02*
X0024100Y0154476D01*
X0024100Y0152878D02*
X0135383Y0152878D01*
X0136085Y0151279D02*
X0024100Y0151279D01*
X0024100Y0149681D02*
X0105499Y0149681D01*
X0105404Y0149515D02*
X0105281Y0149058D01*
X0105281Y0146741D01*
X0109554Y0146741D01*
X0109554Y0150621D01*
X0106844Y0150621D01*
X0106386Y0150498D01*
X0105976Y0150261D01*
X0105641Y0149926D01*
X0105404Y0149515D01*
X0105281Y0148082D02*
X0024100Y0148082D01*
X0024100Y0146484D02*
X0109554Y0146484D01*
X0110513Y0146484D02*
X0118476Y0146484D01*
X0118476Y0148082D02*
X0114787Y0148082D01*
X0114787Y0149058D02*
X0114787Y0146741D01*
X0110513Y0146741D01*
X0110513Y0150621D01*
X0113224Y0150621D01*
X0113681Y0150498D01*
X0114092Y0150261D01*
X0114427Y0149926D01*
X0114664Y0149515D01*
X0114787Y0149058D01*
X0114568Y0149681D02*
X0118751Y0149681D01*
X0118476Y0144885D02*
X0114787Y0144885D01*
X0114739Y0143287D02*
X0118476Y0143287D01*
X0118476Y0141688D02*
X0114387Y0141688D01*
X0114387Y0136893D02*
X0118476Y0136893D01*
X0118830Y0135294D02*
X0114039Y0135294D01*
X0108337Y0133696D02*
X0098065Y0133696D01*
X0097892Y0133869D02*
X0090826Y0133869D01*
X0090006Y0133049D01*
X0090006Y0131610D01*
X0078268Y0131610D01*
X0077940Y0132403D01*
X0076702Y0133640D01*
X0075085Y0134310D01*
X0067334Y0134310D01*
X0065717Y0133640D01*
X0064479Y0132403D01*
X0063809Y0130785D01*
X0063809Y0129035D01*
X0064479Y0127418D01*
X0065717Y0126180D01*
X0067334Y0125510D01*
X0075085Y0125510D01*
X0076702Y0126180D01*
X0077940Y0127418D01*
X0078268Y0128210D01*
X0090006Y0128210D01*
X0090006Y0126771D01*
X0090608Y0126170D01*
X0090006Y0125569D01*
X0090006Y0119291D01*
X0090826Y0118471D01*
X0097892Y0118471D01*
X0098712Y0119291D01*
X0098712Y0120752D01*
X0100055Y0120758D01*
X0100675Y0120138D01*
X0101686Y0119719D01*
X0102780Y0119719D01*
X0103791Y0120138D01*
X0104564Y0120912D01*
X0104983Y0121922D01*
X0104983Y0123016D01*
X0104564Y0124027D01*
X0103791Y0124801D01*
X0102780Y0125219D01*
X0101686Y0125219D01*
X0100675Y0124801D01*
X0100033Y0124158D01*
X0098712Y0124152D01*
X0098712Y0125569D01*
X0098111Y0126170D01*
X0098712Y0126771D01*
X0098712Y0133049D01*
X0097892Y0133869D01*
X0098712Y0132097D02*
X0108337Y0132097D01*
X0108338Y0130499D02*
X0098712Y0130499D01*
X0098712Y0128900D02*
X0108339Y0128900D01*
X0108340Y0127302D02*
X0098712Y0127302D01*
X0098577Y0125703D02*
X0108341Y0125703D01*
X0108342Y0124105D02*
X0104487Y0124105D01*
X0104983Y0122506D02*
X0108343Y0122506D01*
X0108344Y0120908D02*
X0104561Y0120908D01*
X0108344Y0119309D02*
X0098712Y0119309D01*
X0090006Y0119309D02*
X0078974Y0119309D01*
X0079009Y0119532D02*
X0078891Y0118786D01*
X0078658Y0118068D01*
X0078315Y0117394D01*
X0077871Y0116783D01*
X0077336Y0116249D01*
X0076725Y0115805D01*
X0076052Y0115462D01*
X0075333Y0115228D01*
X0074587Y0115110D01*
X0071409Y0115110D01*
X0071409Y0119710D01*
X0071009Y0119710D01*
X0063409Y0119710D01*
X0063409Y0119532D01*
X0063528Y0118786D01*
X0063761Y0118068D01*
X0064104Y0117394D01*
X0064548Y0116783D01*
X0065082Y0116249D01*
X0065694Y0115805D01*
X0066367Y0115462D01*
X0067085Y0115228D01*
X0067832Y0115110D01*
X0071009Y0115110D01*
X0071009Y0119710D01*
X0071009Y0120110D01*
X0063409Y0120110D01*
X0063409Y0120288D01*
X0063528Y0121034D01*
X0063761Y0121753D01*
X0064104Y0122426D01*
X0064548Y0123037D01*
X0065082Y0123571D01*
X0065694Y0124016D01*
X0066367Y0124359D01*
X0067085Y0124592D01*
X0067832Y0124710D01*
X0071009Y0124710D01*
X0071009Y0120110D01*
X0071409Y0120110D01*
X0071409Y0124710D01*
X0074587Y0124710D01*
X0075333Y0124592D01*
X0076052Y0124359D01*
X0076725Y0124016D01*
X0077336Y0123571D01*
X0077871Y0123037D01*
X0078315Y0122426D01*
X0078658Y0121753D01*
X0078891Y0121034D01*
X0079009Y0120288D01*
X0079009Y0120110D01*
X0071410Y0120110D01*
X0071410Y0119710D01*
X0079009Y0119710D01*
X0079009Y0119532D01*
X0078911Y0120908D02*
X0090006Y0120908D01*
X0090006Y0122506D02*
X0078256Y0122506D01*
X0076550Y0124105D02*
X0090006Y0124105D01*
X0090141Y0125703D02*
X0075551Y0125703D01*
X0077823Y0127302D02*
X0090006Y0127302D01*
X0090006Y0132097D02*
X0078066Y0132097D01*
X0076568Y0133696D02*
X0090653Y0133696D01*
X0078384Y0138491D02*
X0105681Y0138491D01*
X0105681Y0136893D02*
X0077415Y0136893D01*
X0077940Y0137418D02*
X0078609Y0139035D01*
X0078609Y0140785D01*
X0077940Y0142403D01*
X0076702Y0143640D01*
X0075085Y0144310D01*
X0067334Y0144310D01*
X0065717Y0143640D01*
X0064479Y0142403D01*
X0064161Y0141634D01*
X0052095Y0141674D01*
X0051690Y0142651D01*
X0050368Y0143973D01*
X0048640Y0144689D01*
X0046771Y0144689D01*
X0045043Y0143973D01*
X0043721Y0142651D01*
X0043006Y0140924D01*
X0043006Y0139054D01*
X0043721Y0137327D01*
X0045043Y0136005D01*
X0046771Y0135289D01*
X0048640Y0135289D01*
X0050368Y0136005D01*
X0051690Y0137327D01*
X0052083Y0138274D01*
X0064141Y0138234D01*
X0064479Y0137418D01*
X0065717Y0136180D01*
X0067334Y0135510D01*
X0075085Y0135510D01*
X0076702Y0136180D01*
X0077940Y0137418D01*
X0078609Y0140090D02*
X0105681Y0140090D01*
X0105681Y0141688D02*
X0078235Y0141688D01*
X0077055Y0143287D02*
X0105329Y0143287D01*
X0105281Y0144885D02*
X0024100Y0144885D01*
X0024100Y0143287D02*
X0034357Y0143287D01*
X0033322Y0141688D02*
X0024100Y0141688D01*
X0024100Y0140090D02*
X0033006Y0140090D01*
X0033239Y0138491D02*
X0024100Y0138491D01*
X0024100Y0136893D02*
X0034155Y0136893D01*
X0035998Y0135294D02*
X0024100Y0135294D01*
X0024100Y0133696D02*
X0035996Y0133696D01*
X0035993Y0132097D02*
X0024100Y0132097D01*
X0024100Y0130499D02*
X0035991Y0130499D01*
X0035988Y0128900D02*
X0024100Y0128900D01*
X0024100Y0127302D02*
X0035986Y0127302D01*
X0035983Y0125703D02*
X0024100Y0125703D01*
X0024100Y0124105D02*
X0035980Y0124105D01*
X0035978Y0122506D02*
X0024100Y0122506D01*
X0024100Y0120908D02*
X0035975Y0120908D01*
X0034495Y0119309D02*
X0024100Y0119309D01*
X0024100Y0117711D02*
X0033707Y0117711D01*
X0033707Y0116112D02*
X0024100Y0116112D01*
X0024100Y0114514D02*
X0033707Y0114514D01*
X0033707Y0112915D02*
X0024100Y0112915D01*
X0024100Y0111317D02*
X0033847Y0111317D01*
X0024100Y0109718D02*
X0048013Y0109718D01*
X0049612Y0108120D02*
X0024100Y0108120D01*
X0024100Y0106521D02*
X0051210Y0106521D01*
X0052809Y0104923D02*
X0024100Y0104923D01*
X0024100Y0103324D02*
X0054407Y0103324D01*
X0057617Y0104923D02*
X0108352Y0104923D01*
X0108351Y0106521D02*
X0056018Y0106521D01*
X0054420Y0108120D02*
X0108350Y0108120D01*
X0108350Y0109718D02*
X0052821Y0109718D01*
X0051223Y0111317D02*
X0108349Y0111317D01*
X0108348Y0112915D02*
X0049624Y0112915D01*
X0049105Y0114514D02*
X0108347Y0114514D01*
X0108346Y0116112D02*
X0077148Y0116112D01*
X0078476Y0117711D02*
X0108345Y0117711D01*
X0106029Y0135294D02*
X0048653Y0135294D01*
X0046758Y0135294D02*
X0039398Y0135294D01*
X0039396Y0133696D02*
X0065851Y0133696D01*
X0064353Y0132097D02*
X0039393Y0132097D01*
X0039391Y0130499D02*
X0063809Y0130499D01*
X0063865Y0128900D02*
X0039388Y0128900D01*
X0039386Y0127302D02*
X0064595Y0127302D01*
X0066868Y0125703D02*
X0039383Y0125703D01*
X0039380Y0124105D02*
X0065869Y0124105D01*
X0064162Y0122506D02*
X0039378Y0122506D01*
X0039375Y0120908D02*
X0063508Y0120908D01*
X0063445Y0119309D02*
X0048318Y0119309D01*
X0049105Y0117711D02*
X0063943Y0117711D01*
X0065271Y0116112D02*
X0049105Y0116112D01*
X0041975Y0119309D02*
X0040838Y0119309D01*
X0041256Y0136893D02*
X0044155Y0136893D01*
X0043239Y0138491D02*
X0042172Y0138491D01*
X0042405Y0140090D02*
X0043006Y0140090D01*
X0043322Y0141688D02*
X0042089Y0141688D01*
X0041054Y0143287D02*
X0044357Y0143287D01*
X0051054Y0143287D02*
X0065364Y0143287D01*
X0064183Y0141688D02*
X0052089Y0141688D01*
X0051256Y0136893D02*
X0065004Y0136893D01*
X0071009Y0124105D02*
X0071409Y0124105D01*
X0071409Y0122506D02*
X0071009Y0122506D01*
X0071009Y0120908D02*
X0071409Y0120908D01*
X0071409Y0119309D02*
X0071009Y0119309D01*
X0071009Y0117711D02*
X0071409Y0117711D01*
X0071409Y0116112D02*
X0071009Y0116112D01*
X0069056Y0100531D02*
X0065411Y0100531D01*
X0062833Y0097953D01*
X0062833Y0094308D01*
X0065411Y0091731D01*
X0069056Y0091731D01*
X0071633Y0094308D01*
X0071633Y0097953D01*
X0069056Y0100531D01*
X0069459Y0100127D02*
X0075007Y0100127D01*
X0073408Y0098529D02*
X0071058Y0098529D01*
X0071633Y0096930D02*
X0072833Y0096930D01*
X0072833Y0095332D02*
X0071633Y0095332D01*
X0071058Y0093733D02*
X0073408Y0093733D01*
X0075007Y0092134D02*
X0069459Y0092134D01*
X0065007Y0092134D02*
X0059459Y0092134D01*
X0061058Y0093733D02*
X0063408Y0093733D01*
X0062833Y0095332D02*
X0061633Y0095332D01*
X0061633Y0096930D02*
X0062833Y0096930D01*
X0063408Y0098529D02*
X0061058Y0098529D01*
X0059459Y0100127D02*
X0065007Y0100127D01*
X0063817Y0088937D02*
X0060649Y0088937D01*
X0061633Y0087339D02*
X0062833Y0087339D01*
X0062833Y0085740D02*
X0061633Y0085740D01*
X0061467Y0084142D02*
X0062999Y0084142D01*
X0071467Y0084142D02*
X0072999Y0084142D01*
X0072833Y0085740D02*
X0071633Y0085740D01*
X0071633Y0087339D02*
X0072833Y0087339D01*
X0073817Y0088937D02*
X0070649Y0088937D01*
X0045007Y0100127D02*
X0039459Y0100127D01*
X0041058Y0098529D02*
X0043408Y0098529D01*
X0042833Y0096930D02*
X0041633Y0096930D01*
X0041633Y0095332D02*
X0042833Y0095332D01*
X0043408Y0093733D02*
X0041058Y0093733D01*
X0035007Y0092134D02*
X0030025Y0092134D01*
X0029616Y0090536D02*
X0035533Y0090536D01*
X0033817Y0088937D02*
X0031215Y0088937D01*
X0032033Y0087339D02*
X0032833Y0087339D01*
X0032833Y0085740D02*
X0032033Y0085740D01*
X0024850Y0090536D02*
X0024100Y0090536D01*
X0024100Y0092134D02*
X0024441Y0092134D01*
X0031624Y0093733D02*
X0033408Y0093733D01*
X0032833Y0095332D02*
X0032033Y0095332D01*
X0032033Y0096930D02*
X0032833Y0096930D01*
X0033408Y0098529D02*
X0031623Y0098529D01*
X0030025Y0100127D02*
X0035007Y0100127D01*
X0108915Y0076149D02*
X0109483Y0076149D01*
X0109924Y0074551D02*
X0108912Y0074551D01*
X0149868Y0082543D02*
X0154598Y0082543D01*
X0152999Y0084142D02*
X0151467Y0084142D01*
X0151633Y0085740D02*
X0152833Y0085740D01*
X0152833Y0087339D02*
X0151633Y0087339D01*
X0150649Y0088937D02*
X0153817Y0088937D01*
X0153408Y0093733D02*
X0151058Y0093733D01*
X0151633Y0095332D02*
X0152833Y0095332D01*
X0152833Y0096930D02*
X0151633Y0096930D01*
X0151058Y0098529D02*
X0152393Y0098529D01*
X0150777Y0100127D02*
X0149459Y0100127D01*
X0153996Y0101726D02*
X0159234Y0101726D01*
X0159459Y0100127D02*
X0160833Y0100127D01*
X0161058Y0098529D02*
X0162431Y0098529D01*
X0162833Y0096930D02*
X0161633Y0096930D01*
X0161633Y0095332D02*
X0162833Y0095332D01*
X0163408Y0093733D02*
X0161058Y0093733D01*
X0163633Y0092134D02*
X0165007Y0092134D01*
X0163933Y0090536D02*
X0170606Y0090536D01*
X0170606Y0092134D02*
X0169459Y0092134D01*
X0171467Y0084142D02*
X0172999Y0084142D01*
X0174598Y0082543D02*
X0169868Y0082543D01*
X0167461Y0080945D02*
X0250445Y0080945D01*
X0250434Y0082543D02*
X0250445Y0082543D01*
X0247433Y0082543D02*
X0247033Y0082543D01*
X0247033Y0084142D02*
X0247433Y0084142D01*
X0247433Y0085740D02*
X0247033Y0085740D01*
X0247033Y0087339D02*
X0247433Y0087339D01*
X0247433Y0088937D02*
X0247033Y0088937D01*
X0247033Y0090536D02*
X0247433Y0090536D01*
X0247433Y0092134D02*
X0247033Y0092134D01*
X0247033Y0093733D02*
X0247433Y0093733D01*
X0247433Y0095332D02*
X0247033Y0095332D01*
X0247033Y0096930D02*
X0247433Y0096930D01*
X0247433Y0098529D02*
X0247033Y0098529D01*
X0247033Y0100127D02*
X0247433Y0100127D01*
X0250025Y0100127D02*
X0250445Y0100127D01*
X0250445Y0101726D02*
X0218933Y0101726D01*
X0218933Y0103324D02*
X0250445Y0103324D01*
X0250445Y0104923D02*
X0218933Y0104923D01*
X0218933Y0106521D02*
X0250445Y0106521D01*
X0250445Y0108120D02*
X0218933Y0108120D01*
X0218933Y0109718D02*
X0250445Y0109718D01*
X0250445Y0111317D02*
X0218933Y0111317D01*
X0220997Y0112915D02*
X0250445Y0112915D01*
X0250445Y0114514D02*
X0221192Y0114514D01*
X0221192Y0116112D02*
X0250445Y0116112D01*
X0250445Y0117711D02*
X0221192Y0117711D01*
X0221192Y0119309D02*
X0250445Y0119309D01*
X0250445Y0120908D02*
X0220460Y0120908D01*
X0218933Y0122506D02*
X0250445Y0122506D01*
X0250445Y0124105D02*
X0218933Y0124105D01*
X0218933Y0125703D02*
X0250445Y0125703D01*
X0250445Y0127302D02*
X0218933Y0127302D01*
X0218933Y0128900D02*
X0250445Y0128900D01*
X0250445Y0130499D02*
X0218933Y0130499D01*
X0218933Y0132097D02*
X0250445Y0132097D01*
X0250445Y0133696D02*
X0218933Y0133696D01*
X0220957Y0135294D02*
X0250445Y0135294D01*
X0250445Y0136893D02*
X0221772Y0136893D01*
X0221933Y0138491D02*
X0250445Y0138491D01*
X0250445Y0140090D02*
X0221545Y0140090D01*
X0220409Y0141688D02*
X0250445Y0141688D01*
X0250445Y0143287D02*
X0183975Y0143287D01*
X0183975Y0141688D02*
X0198309Y0141688D01*
X0198823Y0142202D02*
X0197501Y0140880D01*
X0196785Y0139152D01*
X0196785Y0137282D01*
X0197501Y0135555D01*
X0198823Y0134233D01*
X0200550Y0133517D01*
X0202420Y0133517D01*
X0204147Y0134233D01*
X0205470Y0135555D01*
X0206185Y0137282D01*
X0206185Y0139152D01*
X0205470Y0140880D01*
X0204147Y0142202D01*
X0202420Y0142917D01*
X0200550Y0142917D01*
X0198823Y0142202D01*
X0197173Y0140090D02*
X0183975Y0140090D01*
X0183975Y0138491D02*
X0196785Y0138491D01*
X0196946Y0136893D02*
X0183975Y0136893D01*
X0183975Y0135294D02*
X0197761Y0135294D01*
X0200119Y0133696D02*
X0183975Y0133696D01*
X0183975Y0132097D02*
X0215533Y0132097D01*
X0215533Y0130499D02*
X0183975Y0130499D01*
X0183975Y0128900D02*
X0215533Y0128900D01*
X0215533Y0127302D02*
X0183975Y0127302D01*
X0183975Y0125703D02*
X0215533Y0125703D01*
X0215533Y0124105D02*
X0183975Y0124105D01*
X0183975Y0122506D02*
X0215533Y0122506D01*
X0214007Y0120908D02*
X0212979Y0120908D01*
X0206526Y0120908D02*
X0183975Y0120908D01*
X0183975Y0119309D02*
X0205794Y0119309D01*
X0205794Y0117711D02*
X0183975Y0117711D01*
X0183975Y0116112D02*
X0205794Y0116112D01*
X0205220Y0114514D02*
X0183975Y0114514D01*
X0183975Y0112915D02*
X0203621Y0112915D01*
X0202023Y0111317D02*
X0183975Y0111317D01*
X0183975Y0109718D02*
X0200424Y0109718D01*
X0198826Y0108120D02*
X0183975Y0108120D01*
X0183975Y0106521D02*
X0197227Y0106521D01*
X0195629Y0104923D02*
X0183975Y0104923D01*
X0183975Y0103324D02*
X0194030Y0103324D01*
X0192432Y0101726D02*
X0183975Y0101726D01*
X0183975Y0100127D02*
X0185007Y0100127D01*
X0189459Y0100127D02*
X0190833Y0100127D01*
X0192444Y0096930D02*
X0192833Y0096930D01*
X0192833Y0095332D02*
X0191633Y0095332D01*
X0191058Y0093733D02*
X0193408Y0093733D01*
X0195007Y0092134D02*
X0189459Y0092134D01*
X0189056Y0090531D02*
X0185411Y0090531D01*
X0182833Y0087953D01*
X0182833Y0084308D01*
X0185411Y0081731D01*
X0189056Y0081731D01*
X0191633Y0084308D01*
X0191633Y0087953D01*
X0189056Y0090531D01*
X0190649Y0088937D02*
X0193817Y0088937D01*
X0192833Y0087953D02*
X0192833Y0084308D01*
X0195411Y0081731D01*
X0199056Y0081731D01*
X0201633Y0084308D01*
X0201633Y0087953D01*
X0199056Y0090531D01*
X0195411Y0090531D01*
X0192833Y0087953D01*
X0192833Y0087339D02*
X0191633Y0087339D01*
X0191633Y0085740D02*
X0192833Y0085740D01*
X0192999Y0084142D02*
X0191467Y0084142D01*
X0189868Y0082543D02*
X0194598Y0082543D01*
X0199868Y0082543D02*
X0204598Y0082543D01*
X0205411Y0081731D02*
X0209056Y0081731D01*
X0211633Y0084308D01*
X0211633Y0087953D01*
X0209056Y0090531D01*
X0205411Y0090531D01*
X0202833Y0087953D01*
X0202833Y0084308D01*
X0205411Y0081731D01*
X0202999Y0084142D02*
X0201467Y0084142D01*
X0201633Y0085740D02*
X0202833Y0085740D01*
X0202833Y0087339D02*
X0201633Y0087339D01*
X0200649Y0088937D02*
X0203817Y0088937D01*
X0205411Y0091731D02*
X0209056Y0091731D01*
X0211633Y0094308D01*
X0211633Y0097953D01*
X0209056Y0100531D01*
X0205411Y0100531D01*
X0202833Y0097953D01*
X0202833Y0094308D01*
X0205411Y0091731D01*
X0205007Y0092134D02*
X0199459Y0092134D01*
X0201058Y0093733D02*
X0203408Y0093733D01*
X0202833Y0095332D02*
X0201633Y0095332D01*
X0201633Y0096930D02*
X0202833Y0096930D01*
X0203408Y0098529D02*
X0201058Y0098529D01*
X0199459Y0100127D02*
X0205007Y0100127D01*
X0209459Y0100127D02*
X0215007Y0100127D01*
X0215533Y0101726D02*
X0197240Y0101726D01*
X0198838Y0103324D02*
X0215533Y0103324D01*
X0215533Y0104923D02*
X0200437Y0104923D01*
X0202035Y0106521D02*
X0215533Y0106521D01*
X0215533Y0108120D02*
X0203634Y0108120D01*
X0205233Y0109718D02*
X0215533Y0109718D01*
X0215533Y0111317D02*
X0206831Y0111317D01*
X0219459Y0100127D02*
X0225007Y0100127D01*
X0225411Y0100531D02*
X0222833Y0097953D01*
X0222833Y0094308D01*
X0225411Y0091731D01*
X0229056Y0091731D01*
X0231633Y0094308D01*
X0231633Y0097953D01*
X0229056Y0100531D01*
X0225411Y0100531D01*
X0223408Y0098529D02*
X0221058Y0098529D01*
X0221633Y0096930D02*
X0222833Y0096930D01*
X0222833Y0095332D02*
X0221633Y0095332D01*
X0221058Y0093733D02*
X0223408Y0093733D01*
X0225007Y0092134D02*
X0219459Y0092134D01*
X0219056Y0090531D02*
X0215411Y0090531D01*
X0212833Y0087953D01*
X0212833Y0084308D01*
X0215411Y0081731D01*
X0219056Y0081731D01*
X0221633Y0084308D01*
X0221633Y0087953D01*
X0219056Y0090531D01*
X0220649Y0088937D02*
X0223817Y0088937D01*
X0222833Y0087953D02*
X0222833Y0084308D01*
X0225411Y0081731D01*
X0229056Y0081731D01*
X0231633Y0084308D01*
X0231633Y0087953D01*
X0229056Y0090531D01*
X0225411Y0090531D01*
X0222833Y0087953D01*
X0222833Y0087339D02*
X0221633Y0087339D01*
X0221633Y0085740D02*
X0222833Y0085740D01*
X0222999Y0084142D02*
X0221467Y0084142D01*
X0219868Y0082543D02*
X0224598Y0082543D01*
X0229868Y0082543D02*
X0234032Y0082543D01*
X0235245Y0081331D02*
X0237033Y0081331D01*
X0237033Y0085931D01*
X0232433Y0085931D01*
X0232433Y0084142D01*
X0235245Y0081331D01*
X0237033Y0082543D02*
X0237433Y0082543D01*
X0237433Y0081331D02*
X0239221Y0081331D01*
X0242033Y0084142D01*
X0242434Y0084142D01*
X0242033Y0084142D02*
X0242033Y0085931D01*
X0237433Y0085931D01*
X0237433Y0086331D01*
X0237033Y0086331D01*
X0237033Y0090931D01*
X0235245Y0090931D01*
X0232433Y0088119D01*
X0232433Y0086331D01*
X0237033Y0086331D01*
X0237033Y0085931D01*
X0237433Y0085931D01*
X0237433Y0081331D01*
X0237433Y0084142D02*
X0237033Y0084142D01*
X0237033Y0085740D02*
X0237433Y0085740D01*
X0237433Y0086331D02*
X0242033Y0086331D01*
X0242033Y0088119D01*
X0239221Y0090931D01*
X0237433Y0090931D01*
X0237433Y0086331D01*
X0237433Y0087339D02*
X0237033Y0087339D01*
X0237033Y0088937D02*
X0237433Y0088937D01*
X0237433Y0090536D02*
X0237033Y0090536D01*
X0237033Y0091331D02*
X0237033Y0095931D01*
X0232433Y0095931D01*
X0232433Y0094142D01*
X0235245Y0091331D01*
X0237033Y0091331D01*
X0237433Y0091331D02*
X0239221Y0091331D01*
X0242033Y0094142D01*
X0242033Y0095931D01*
X0237433Y0095931D01*
X0237433Y0096331D01*
X0237033Y0096331D01*
X0237033Y0100931D01*
X0235245Y0100931D01*
X0232433Y0098119D01*
X0232433Y0096331D01*
X0237033Y0096331D01*
X0237033Y0095931D01*
X0237433Y0095931D01*
X0237433Y0091331D01*
X0237433Y0092134D02*
X0237033Y0092134D01*
X0237033Y0093733D02*
X0237433Y0093733D01*
X0237433Y0095332D02*
X0237033Y0095332D01*
X0237433Y0096331D02*
X0242033Y0096331D01*
X0242033Y0098119D01*
X0239221Y0100931D01*
X0237433Y0100931D01*
X0237433Y0096331D01*
X0237433Y0096930D02*
X0237033Y0096930D01*
X0237033Y0098529D02*
X0237433Y0098529D01*
X0237433Y0100127D02*
X0237033Y0100127D01*
X0234441Y0100127D02*
X0229459Y0100127D01*
X0231058Y0098529D02*
X0232843Y0098529D01*
X0232433Y0096930D02*
X0231633Y0096930D01*
X0231633Y0095332D02*
X0232433Y0095332D01*
X0232843Y0093733D02*
X0231058Y0093733D01*
X0229459Y0092134D02*
X0234441Y0092134D01*
X0234850Y0090536D02*
X0183975Y0090536D01*
X0183975Y0092134D02*
X0185007Y0092134D01*
X0183817Y0088937D02*
X0182457Y0088937D01*
X0182833Y0087339D02*
X0181633Y0087339D01*
X0181633Y0085740D02*
X0182833Y0085740D01*
X0182999Y0084142D02*
X0181467Y0084142D01*
X0179868Y0082543D02*
X0184598Y0082543D01*
X0173855Y0074551D02*
X0250445Y0074551D01*
X0250445Y0076149D02*
X0172256Y0076149D01*
X0170658Y0077748D02*
X0250445Y0077748D01*
X0250445Y0079346D02*
X0169059Y0079346D01*
X0157636Y0103324D02*
X0153959Y0103324D01*
X0153959Y0104923D02*
X0157168Y0104923D01*
X0157168Y0106521D02*
X0153959Y0106521D01*
X0153959Y0108120D02*
X0157168Y0108120D01*
X0157168Y0109718D02*
X0153959Y0109718D01*
X0153959Y0111317D02*
X0157168Y0111317D01*
X0157168Y0112915D02*
X0153959Y0112915D01*
X0153959Y0114514D02*
X0157168Y0114514D01*
X0157168Y0116112D02*
X0153959Y0116112D01*
X0153959Y0117711D02*
X0157168Y0117711D01*
X0157168Y0119309D02*
X0153959Y0119309D01*
X0153959Y0120908D02*
X0157168Y0120908D01*
X0155670Y0122506D02*
X0153959Y0122506D01*
X0153959Y0124105D02*
X0154909Y0124105D01*
X0154909Y0125703D02*
X0153959Y0125703D01*
X0153959Y0127302D02*
X0154909Y0127302D01*
X0154909Y0128900D02*
X0153959Y0128900D01*
X0153959Y0130499D02*
X0155075Y0130499D01*
X0153959Y0132097D02*
X0172885Y0132097D01*
X0172885Y0130499D02*
X0170141Y0130499D01*
X0170307Y0128900D02*
X0172885Y0128900D01*
X0172885Y0133696D02*
X0153959Y0133696D01*
X0153959Y0135294D02*
X0173224Y0135294D01*
X0172885Y0136893D02*
X0167358Y0136893D01*
X0156107Y0136893D02*
X0153959Y0136893D01*
X0153959Y0138491D02*
X0155983Y0138491D01*
X0155983Y0140090D02*
X0153959Y0140090D01*
X0153959Y0141688D02*
X0156312Y0141688D01*
X0155983Y0143287D02*
X0153959Y0143287D01*
X0153575Y0144885D02*
X0155983Y0144885D01*
X0166949Y0146484D02*
X0250445Y0146484D01*
X0250445Y0148082D02*
X0167483Y0148082D01*
X0167483Y0149681D02*
X0250445Y0149681D01*
X0250445Y0151279D02*
X0167311Y0151279D01*
X0167883Y0152878D02*
X0250445Y0152878D01*
X0250445Y0154476D02*
X0167883Y0154476D01*
X0183591Y0144885D02*
X0250445Y0144885D01*
X0215533Y0133696D02*
X0202851Y0133696D01*
X0205209Y0135294D02*
X0213509Y0135294D01*
X0212694Y0136893D02*
X0206024Y0136893D01*
X0206185Y0138491D02*
X0212533Y0138491D01*
X0212921Y0140090D02*
X0205797Y0140090D01*
X0204661Y0141688D02*
X0214057Y0141688D01*
X0240025Y0100127D02*
X0244441Y0100127D01*
X0242843Y0098529D02*
X0241623Y0098529D01*
X0242033Y0096930D02*
X0242433Y0096930D01*
X0242433Y0095332D02*
X0242033Y0095332D01*
X0241624Y0093733D02*
X0242843Y0093733D01*
X0244441Y0092134D02*
X0240025Y0092134D01*
X0239616Y0090536D02*
X0244850Y0090536D01*
X0243252Y0088937D02*
X0241215Y0088937D01*
X0242033Y0087339D02*
X0242433Y0087339D01*
X0242433Y0085740D02*
X0242033Y0085740D01*
X0240434Y0082543D02*
X0244032Y0082543D01*
X0232434Y0084142D02*
X0231467Y0084142D01*
X0231633Y0085740D02*
X0232433Y0085740D01*
X0232433Y0087339D02*
X0231633Y0087339D01*
X0230649Y0088937D02*
X0233252Y0088937D01*
X0249616Y0090536D02*
X0250445Y0090536D01*
X0250445Y0092134D02*
X0250025Y0092134D01*
X0215007Y0092134D02*
X0209459Y0092134D01*
X0211058Y0093733D02*
X0213408Y0093733D01*
X0212833Y0095332D02*
X0211633Y0095332D01*
X0211633Y0096930D02*
X0212833Y0096930D01*
X0213408Y0098529D02*
X0211058Y0098529D01*
X0210649Y0088937D02*
X0213817Y0088937D01*
X0212833Y0087339D02*
X0211633Y0087339D01*
X0211633Y0085740D02*
X0212833Y0085740D01*
X0212999Y0084142D02*
X0211467Y0084142D01*
X0209868Y0082543D02*
X0214598Y0082543D01*
X0135916Y0146484D02*
X0127182Y0146484D01*
X0127182Y0148082D02*
X0135383Y0148082D01*
X0135383Y0149681D02*
X0126907Y0149681D01*
X0110513Y0149681D02*
X0109554Y0149681D01*
X0109554Y0148082D02*
X0110513Y0148082D01*
M02*
