G75*
%MOIN*%
%OFA0B0*%
%FSLAX25Y25*%
%IPPOS*%
%LPD*%
%AMOC8*
5,1,8,0,0,1.08239X$1,22.5*
%
%ADD10C,0.00000*%
%ADD11R,0.05118X0.05906*%
%ADD12R,0.05906X0.05118*%
%ADD13R,0.04331X0.02362*%
%ADD14R,0.08700X0.02400*%
D10*
X0021800Y0021800D02*
X0021800Y0160501D01*
X0252745Y0160343D01*
X0252745Y0021800D01*
X0021800Y0021800D01*
D11*
X0099713Y0054556D03*
X0107194Y0054556D03*
X0107194Y0064556D03*
X0099713Y0064556D03*
X0045146Y0114989D03*
X0037666Y0114989D03*
X0158868Y0126800D03*
X0166348Y0126800D03*
X0209753Y0116643D03*
X0217233Y0116643D03*
D12*
X0177238Y0131292D03*
X0177238Y0138772D03*
X0122829Y0138787D03*
X0122829Y0146267D03*
X0110034Y0146262D03*
X0110034Y0138781D03*
X0094359Y0129910D03*
X0094359Y0122430D03*
X0074202Y0063926D03*
X0074202Y0056446D03*
X0099722Y0044622D03*
X0099722Y0037141D03*
D13*
X0122942Y0055816D03*
X0122942Y0063296D03*
X0133965Y0063296D03*
X0133965Y0059556D03*
X0133965Y0055816D03*
D14*
X0141133Y0138797D03*
X0141133Y0143797D03*
X0141133Y0148797D03*
X0141133Y0153797D03*
X0161733Y0153797D03*
X0161733Y0148797D03*
X0161733Y0143797D03*
X0161733Y0138797D03*
M02*
