G75*
%MOIN*%
%OFA0B0*%
%FSLAX25Y25*%
%IPPOS*%
%LPD*%
%AMOC8*
5,1,8,0,0,1.08239X$1,22.5*
%
%ADD10C,0.00000*%
%ADD11C,0.07100*%
%ADD12C,0.07900*%
%ADD13R,0.07500X0.07500*%
%ADD14C,0.07500*%
%ADD15OC8,0.06500*%
%ADD16C,0.06500*%
%ADD17C,0.03200*%
D10*
X0021800Y0021800D02*
X0021800Y0160501D01*
X0252745Y0160343D01*
X0252745Y0021800D01*
X0021800Y0021800D01*
D11*
X0037706Y0139989D03*
X0047706Y0139989D03*
X0201485Y0138217D03*
X0217233Y0138217D03*
D12*
X0054991Y0063891D03*
X0037191Y0063891D03*
X0037191Y0038291D03*
X0054991Y0038291D03*
D13*
X0198965Y0047036D03*
D14*
X0224556Y0047036D03*
D15*
X0227233Y0086131D03*
X0217233Y0086131D03*
X0207233Y0086131D03*
X0197233Y0086131D03*
X0187233Y0086131D03*
X0177233Y0086131D03*
X0167233Y0086131D03*
X0157233Y0086131D03*
X0147233Y0086131D03*
X0137233Y0086131D03*
X0127233Y0086131D03*
X0117233Y0086131D03*
X0107233Y0086131D03*
X0097233Y0086131D03*
X0087233Y0086131D03*
X0077233Y0086131D03*
X0067233Y0086131D03*
X0057233Y0086131D03*
X0047233Y0086131D03*
X0037233Y0086131D03*
X0027233Y0086131D03*
X0027233Y0096131D03*
X0037233Y0096131D03*
X0047233Y0096131D03*
X0057233Y0096131D03*
X0067233Y0096131D03*
X0077233Y0096131D03*
X0087233Y0096131D03*
X0097233Y0096131D03*
X0107233Y0096131D03*
X0117233Y0096131D03*
X0127233Y0096131D03*
X0137233Y0096131D03*
X0147233Y0096131D03*
X0157233Y0096131D03*
X0167233Y0096131D03*
X0177233Y0096131D03*
X0187233Y0096131D03*
X0197233Y0096131D03*
X0207233Y0096131D03*
X0217233Y0096131D03*
X0227233Y0096131D03*
X0237233Y0096131D03*
X0247233Y0096131D03*
X0247233Y0086131D03*
X0237233Y0086131D03*
D16*
X0074209Y0119910D02*
X0068209Y0119910D01*
X0068209Y0129910D02*
X0074209Y0129910D01*
X0074209Y0139910D02*
X0068209Y0139910D01*
D17*
X0102233Y0122469D03*
X0112233Y0076131D03*
X0112233Y0055816D03*
X0074202Y0073454D03*
M02*
