%
M48
M72
T01C0.01300
T02C0.03150
T03C0.03200
T04C0.04000
%
T01
X74202Y73454
X112233Y76131
X112233Y55816
X102233Y122469
T02
X198965Y47036
X224556Y47036
X217233Y138217
X201485Y138217
T03
X37706Y139989
X47706Y139989
T04
X71209Y139910
X71209Y129910
X71209Y119910
X67233Y96131
X77233Y96131
X87233Y96131
X97233Y96131
X107233Y96131
X117233Y96131
X127233Y96131
X137233Y96131
X147233Y96131
X157233Y96131
X167233Y96131
X177233Y96131
X187233Y96131
X197233Y96131
X207233Y96131
X217233Y96131
X227233Y96131
X237233Y96131
X247233Y96131
X247233Y86131
X237233Y86131
X227233Y86131
X217233Y86131
X207233Y86131
X197233Y86131
X187233Y86131
X177233Y86131
X167233Y86131
X157233Y86131
X147233Y86131
X137233Y86131
X127233Y86131
X117233Y86131
X107233Y86131
X97233Y86131
X87233Y86131
X77233Y86131
X67233Y86131
X57233Y86131
X47233Y86131
X37233Y86131
X27233Y86131
X27233Y96131
X37233Y96131
X47233Y96131
X57233Y96131
X54991Y63891
X37191Y63891
X37191Y38291
X54991Y38291
M30
