G75*
%MOIN*%
%OFA0B0*%
%FSLAX25Y25*%
%IPPOS*%
%LPD*%
%AMOC8*
5,1,8,0,0,1.08239X$1,22.5*
%
%ADD10C,0.00000*%
%ADD11C,0.00300*%
%ADD12C,0.00700*%
%ADD13C,0.00800*%
%ADD14C,0.01000*%
%ADD15C,0.00600*%
%ADD16C,0.00500*%
%ADD17C,0.00400*%
D10*
X0021800Y0021800D02*
X0021800Y0160501D01*
X0252745Y0160343D01*
X0252745Y0021800D01*
X0021800Y0021800D01*
D11*
X0070867Y0048367D02*
X0070867Y0051270D01*
X0072319Y0051270D01*
X0072802Y0050786D01*
X0072802Y0049819D01*
X0072319Y0049335D01*
X0070867Y0049335D01*
X0071835Y0049335D02*
X0072802Y0048367D01*
X0073814Y0048367D02*
X0075749Y0048367D01*
X0074781Y0048367D02*
X0074781Y0051270D01*
X0073814Y0050302D01*
X0076760Y0050786D02*
X0076760Y0048851D01*
X0078695Y0050786D01*
X0078695Y0048851D01*
X0078212Y0048367D01*
X0077244Y0048367D01*
X0076760Y0048851D01*
X0076760Y0050786D02*
X0077244Y0051270D01*
X0078212Y0051270D01*
X0078695Y0050786D01*
X0091740Y0052048D02*
X0091740Y0053500D01*
X0092223Y0053983D01*
X0093191Y0053983D01*
X0093675Y0053500D01*
X0093675Y0052048D01*
X0094642Y0052048D02*
X0091740Y0052048D01*
X0093675Y0053016D02*
X0094642Y0053983D01*
X0094158Y0054995D02*
X0094642Y0055479D01*
X0094642Y0056446D01*
X0094158Y0056930D01*
X0093675Y0056930D01*
X0093191Y0056446D01*
X0093191Y0055962D01*
X0093191Y0056446D02*
X0092707Y0056930D01*
X0092223Y0056930D01*
X0091740Y0056446D01*
X0091740Y0055479D01*
X0092223Y0054995D01*
X0091582Y0061891D02*
X0091582Y0063342D01*
X0092066Y0063826D01*
X0093033Y0063826D01*
X0093517Y0063342D01*
X0093517Y0061891D01*
X0093517Y0062858D02*
X0094485Y0063826D01*
X0093033Y0064837D02*
X0093033Y0066772D01*
X0091582Y0066289D02*
X0094485Y0066289D01*
X0093033Y0064837D02*
X0091582Y0066289D01*
X0091582Y0061891D02*
X0094485Y0061891D01*
X0096819Y0073722D02*
X0095585Y0074956D01*
X0099288Y0074956D01*
X0099288Y0073722D02*
X0099288Y0076190D01*
X0098671Y0077405D02*
X0099288Y0078022D01*
X0099288Y0079256D01*
X0098671Y0079874D01*
X0097436Y0079874D01*
X0096819Y0079256D01*
X0096819Y0078639D01*
X0097436Y0077405D01*
X0095585Y0077405D01*
X0095585Y0079874D01*
X0089288Y0079256D02*
X0089288Y0078022D01*
X0088671Y0077405D01*
X0089288Y0076190D02*
X0089288Y0073722D01*
X0089288Y0074956D02*
X0085585Y0074956D01*
X0086819Y0073722D01*
X0086202Y0077405D02*
X0085585Y0078022D01*
X0085585Y0079256D01*
X0086202Y0079874D01*
X0086819Y0079874D01*
X0087436Y0079256D01*
X0088053Y0079874D01*
X0088671Y0079874D01*
X0089288Y0079256D01*
X0087436Y0079256D02*
X0087436Y0078639D01*
X0079288Y0078639D02*
X0075585Y0078639D01*
X0076819Y0077405D01*
X0079288Y0077405D02*
X0079288Y0079874D01*
X0079288Y0076190D02*
X0079288Y0073722D01*
X0079288Y0074956D02*
X0075585Y0074956D01*
X0076819Y0073722D01*
X0069288Y0077488D02*
X0068671Y0076871D01*
X0069288Y0077488D02*
X0069288Y0078723D01*
X0068671Y0079340D01*
X0066202Y0079340D01*
X0065585Y0078723D01*
X0065585Y0077488D01*
X0066202Y0076871D01*
X0066819Y0076871D01*
X0067436Y0077488D01*
X0067436Y0079340D01*
X0059288Y0076871D02*
X0058671Y0076871D01*
X0056202Y0079340D01*
X0055585Y0079340D01*
X0055585Y0076871D01*
X0049288Y0077488D02*
X0048671Y0076871D01*
X0049288Y0077488D02*
X0049288Y0078723D01*
X0048671Y0079340D01*
X0047436Y0079340D01*
X0046819Y0078723D01*
X0046819Y0078106D01*
X0047436Y0076871D01*
X0045585Y0076871D01*
X0045585Y0079340D01*
X0039288Y0078723D02*
X0039288Y0077488D01*
X0038671Y0076871D01*
X0037436Y0078106D02*
X0037436Y0078723D01*
X0038053Y0079340D01*
X0038671Y0079340D01*
X0039288Y0078723D01*
X0037436Y0078723D02*
X0036819Y0079340D01*
X0036202Y0079340D01*
X0035585Y0078723D01*
X0035585Y0077488D01*
X0036202Y0076871D01*
X0029288Y0076871D02*
X0029288Y0079340D01*
X0029288Y0078106D02*
X0025585Y0078106D01*
X0026819Y0076871D01*
X0026202Y0102659D02*
X0025585Y0103276D01*
X0025585Y0104510D01*
X0026202Y0105127D01*
X0026819Y0105127D01*
X0029288Y0102659D01*
X0029288Y0105127D01*
X0035585Y0104510D02*
X0037436Y0102659D01*
X0037436Y0105127D01*
X0035585Y0104510D02*
X0039288Y0104510D01*
X0045585Y0105127D02*
X0046202Y0103893D01*
X0047436Y0102659D01*
X0047436Y0104510D01*
X0048053Y0105127D01*
X0048671Y0105127D01*
X0049288Y0104510D01*
X0049288Y0103276D01*
X0048671Y0102659D01*
X0047436Y0102659D01*
X0055585Y0103276D02*
X0055585Y0104510D01*
X0056202Y0105127D01*
X0056819Y0105127D01*
X0057436Y0104510D01*
X0057436Y0103276D01*
X0056819Y0102659D01*
X0056202Y0102659D01*
X0055585Y0103276D01*
X0057436Y0103276D02*
X0058053Y0102659D01*
X0058671Y0102659D01*
X0059288Y0103276D01*
X0059288Y0104510D01*
X0058671Y0105127D01*
X0058053Y0105127D01*
X0057436Y0104510D01*
X0065585Y0103893D02*
X0066819Y0102659D01*
X0065585Y0103893D02*
X0069288Y0103893D01*
X0069288Y0102659D02*
X0069288Y0105127D01*
X0068671Y0106342D02*
X0066202Y0108811D01*
X0068671Y0108811D01*
X0069288Y0108193D01*
X0069288Y0106959D01*
X0068671Y0106342D01*
X0066202Y0106342D01*
X0065585Y0106959D01*
X0065585Y0108193D01*
X0066202Y0108811D01*
X0075585Y0108193D02*
X0075585Y0106959D01*
X0076202Y0106342D01*
X0075585Y0108193D02*
X0076202Y0108811D01*
X0076819Y0108811D01*
X0079288Y0106342D01*
X0079288Y0108811D01*
X0079288Y0105127D02*
X0079288Y0102659D01*
X0079288Y0103893D02*
X0075585Y0103893D01*
X0076819Y0102659D01*
X0085585Y0103893D02*
X0089288Y0103893D01*
X0089288Y0102659D02*
X0089288Y0105127D01*
X0087436Y0106342D02*
X0087436Y0108811D01*
X0085585Y0108193D02*
X0087436Y0106342D01*
X0085585Y0108193D02*
X0089288Y0108193D01*
X0085585Y0103893D02*
X0086819Y0102659D01*
X0095585Y0103893D02*
X0096819Y0102659D01*
X0095585Y0103893D02*
X0099288Y0103893D01*
X0099288Y0102659D02*
X0099288Y0105127D01*
X0098671Y0106342D02*
X0099288Y0106959D01*
X0099288Y0108193D01*
X0098671Y0108811D01*
X0098053Y0108811D01*
X0097436Y0108193D01*
X0097436Y0106342D01*
X0098671Y0106342D01*
X0097436Y0106342D02*
X0096202Y0107576D01*
X0095585Y0108811D01*
X0105585Y0108193D02*
X0106202Y0108811D01*
X0106819Y0108811D01*
X0107436Y0108193D01*
X0107436Y0106959D01*
X0106819Y0106342D01*
X0106202Y0106342D01*
X0105585Y0106959D01*
X0105585Y0108193D01*
X0107436Y0108193D02*
X0108053Y0108811D01*
X0108671Y0108811D01*
X0109288Y0108193D01*
X0109288Y0106959D01*
X0108671Y0106342D01*
X0108053Y0106342D01*
X0107436Y0106959D01*
X0109288Y0105127D02*
X0109288Y0102659D01*
X0109288Y0103893D02*
X0105585Y0103893D01*
X0106819Y0102659D01*
X0115585Y0103276D02*
X0116202Y0102659D01*
X0115585Y0103276D02*
X0115585Y0104510D01*
X0116202Y0105127D01*
X0116819Y0105127D01*
X0119288Y0102659D01*
X0119288Y0105127D01*
X0118671Y0106342D02*
X0116202Y0108811D01*
X0118671Y0108811D01*
X0119288Y0108193D01*
X0119288Y0106959D01*
X0118671Y0106342D01*
X0116202Y0106342D01*
X0115585Y0106959D01*
X0115585Y0108193D01*
X0116202Y0108811D01*
X0125585Y0108193D02*
X0125585Y0106959D01*
X0126202Y0106342D01*
X0126202Y0105127D02*
X0125585Y0104510D01*
X0125585Y0103276D01*
X0126202Y0102659D01*
X0126819Y0105127D02*
X0129288Y0102659D01*
X0129288Y0105127D01*
X0129288Y0106342D02*
X0126819Y0108811D01*
X0126202Y0108811D01*
X0125585Y0108193D01*
X0126202Y0105127D02*
X0126819Y0105127D01*
X0129288Y0106342D02*
X0129288Y0108811D01*
X0135585Y0108193D02*
X0137436Y0106342D01*
X0137436Y0108811D01*
X0135585Y0108193D02*
X0139288Y0108193D01*
X0139288Y0105127D02*
X0139288Y0102659D01*
X0136819Y0105127D01*
X0136202Y0105127D01*
X0135585Y0104510D01*
X0135585Y0103276D01*
X0136202Y0102659D01*
X0145585Y0103276D02*
X0146202Y0102659D01*
X0145585Y0103276D02*
X0145585Y0104510D01*
X0146202Y0105127D01*
X0146819Y0105127D01*
X0149288Y0102659D01*
X0149288Y0105127D01*
X0148671Y0106342D02*
X0149288Y0106959D01*
X0149288Y0108193D01*
X0148671Y0108811D01*
X0148053Y0108811D01*
X0147436Y0108193D01*
X0147436Y0106342D01*
X0148671Y0106342D01*
X0147436Y0106342D02*
X0146202Y0107576D01*
X0145585Y0108811D01*
X0155585Y0108193D02*
X0156202Y0108811D01*
X0156819Y0108811D01*
X0157436Y0108193D01*
X0157436Y0106959D01*
X0156819Y0106342D01*
X0156202Y0106342D01*
X0155585Y0106959D01*
X0155585Y0108193D01*
X0157436Y0108193D02*
X0158053Y0108811D01*
X0158671Y0108811D01*
X0159288Y0108193D01*
X0159288Y0106959D01*
X0158671Y0106342D01*
X0158053Y0106342D01*
X0157436Y0106959D01*
X0156819Y0105127D02*
X0156202Y0105127D01*
X0155585Y0104510D01*
X0155585Y0103276D01*
X0156202Y0102659D01*
X0156819Y0105127D02*
X0159288Y0102659D01*
X0159288Y0105127D01*
X0165585Y0104510D02*
X0166202Y0105127D01*
X0166819Y0105127D01*
X0167436Y0104510D01*
X0168053Y0105127D01*
X0168671Y0105127D01*
X0169288Y0104510D01*
X0169288Y0103276D01*
X0168671Y0102659D01*
X0167436Y0103893D02*
X0167436Y0104510D01*
X0165585Y0104510D02*
X0165585Y0103276D01*
X0166202Y0102659D01*
X0166202Y0106342D02*
X0165585Y0106959D01*
X0165585Y0108193D01*
X0166202Y0108811D01*
X0168671Y0106342D01*
X0169288Y0106959D01*
X0169288Y0108193D01*
X0168671Y0108811D01*
X0166202Y0108811D01*
X0166202Y0106342D02*
X0168671Y0106342D01*
X0175585Y0106959D02*
X0176202Y0106342D01*
X0175585Y0106959D02*
X0175585Y0108193D01*
X0176202Y0108811D01*
X0176819Y0108811D01*
X0179288Y0106342D01*
X0179288Y0108811D01*
X0178671Y0105127D02*
X0178053Y0105127D01*
X0177436Y0104510D01*
X0177436Y0103893D01*
X0177436Y0104510D02*
X0176819Y0105127D01*
X0176202Y0105127D01*
X0175585Y0104510D01*
X0175585Y0103276D01*
X0176202Y0102659D01*
X0178671Y0102659D02*
X0179288Y0103276D01*
X0179288Y0104510D01*
X0178671Y0105127D01*
X0185585Y0104510D02*
X0186202Y0105127D01*
X0186819Y0105127D01*
X0187436Y0104510D01*
X0188053Y0105127D01*
X0188671Y0105127D01*
X0189288Y0104510D01*
X0189288Y0103276D01*
X0188671Y0102659D01*
X0187436Y0103893D02*
X0187436Y0104510D01*
X0187436Y0106342D02*
X0187436Y0108811D01*
X0185585Y0108193D02*
X0187436Y0106342D01*
X0185585Y0104510D02*
X0185585Y0103276D01*
X0186202Y0102659D01*
X0185585Y0108193D02*
X0189288Y0108193D01*
X0195585Y0108811D02*
X0196202Y0107576D01*
X0197436Y0106342D01*
X0197436Y0108193D01*
X0198053Y0108811D01*
X0198671Y0108811D01*
X0199288Y0108193D01*
X0199288Y0106959D01*
X0198671Y0106342D01*
X0197436Y0106342D01*
X0196819Y0105127D02*
X0197436Y0104510D01*
X0198053Y0105127D01*
X0198671Y0105127D01*
X0199288Y0104510D01*
X0199288Y0103276D01*
X0198671Y0102659D01*
X0197436Y0103893D02*
X0197436Y0104510D01*
X0196819Y0105127D02*
X0196202Y0105127D01*
X0195585Y0104510D01*
X0195585Y0103276D01*
X0196202Y0102659D01*
X0205585Y0103276D02*
X0205585Y0104510D01*
X0206202Y0105127D01*
X0206819Y0105127D01*
X0207436Y0104510D01*
X0208053Y0105127D01*
X0208671Y0105127D01*
X0209288Y0104510D01*
X0209288Y0103276D01*
X0208671Y0102659D01*
X0207436Y0103893D02*
X0207436Y0104510D01*
X0206819Y0106342D02*
X0206202Y0106342D01*
X0205585Y0106959D01*
X0205585Y0108193D01*
X0206202Y0108811D01*
X0206819Y0108811D01*
X0207436Y0108193D01*
X0207436Y0106959D01*
X0206819Y0106342D01*
X0207436Y0106959D02*
X0208053Y0106342D01*
X0208671Y0106342D01*
X0209288Y0106959D01*
X0209288Y0108193D01*
X0208671Y0108811D01*
X0208053Y0108811D01*
X0207436Y0108193D01*
X0205585Y0103276D02*
X0206202Y0102659D01*
X0215585Y0104510D02*
X0217436Y0102659D01*
X0217436Y0105127D01*
X0216202Y0106342D02*
X0218671Y0106342D01*
X0216202Y0108811D01*
X0218671Y0108811D01*
X0219288Y0108193D01*
X0219288Y0106959D01*
X0218671Y0106342D01*
X0219288Y0104510D02*
X0215585Y0104510D01*
X0216202Y0106342D02*
X0215585Y0106959D01*
X0215585Y0108193D01*
X0216202Y0108811D01*
X0225585Y0108193D02*
X0225585Y0106959D01*
X0226202Y0106342D01*
X0227436Y0105127D02*
X0227436Y0102659D01*
X0225585Y0104510D01*
X0229288Y0104510D01*
X0229288Y0106342D02*
X0226819Y0108811D01*
X0226202Y0108811D01*
X0225585Y0108193D01*
X0229288Y0108811D02*
X0229288Y0106342D01*
X0235585Y0104510D02*
X0237436Y0102659D01*
X0237436Y0105127D01*
X0237436Y0106342D02*
X0237436Y0108811D01*
X0235585Y0108193D02*
X0237436Y0106342D01*
X0235585Y0104510D02*
X0239288Y0104510D01*
X0239288Y0108193D02*
X0235585Y0108193D01*
X0245585Y0108811D02*
X0246202Y0107576D01*
X0247436Y0106342D01*
X0247436Y0108193D01*
X0248053Y0108811D01*
X0248671Y0108811D01*
X0249288Y0108193D01*
X0249288Y0106959D01*
X0248671Y0106342D01*
X0247436Y0106342D01*
X0247436Y0105127D02*
X0247436Y0102659D01*
X0245585Y0104510D01*
X0249288Y0104510D01*
X0215013Y0122186D02*
X0215013Y0124121D01*
X0214530Y0124605D01*
X0213562Y0124605D01*
X0213078Y0124121D01*
X0213078Y0123638D01*
X0213562Y0123154D01*
X0215013Y0123154D01*
X0215013Y0122186D02*
X0214530Y0121703D01*
X0213562Y0121703D01*
X0213078Y0122186D01*
X0212067Y0121703D02*
X0211099Y0122670D01*
X0211583Y0122670D02*
X0210132Y0122670D01*
X0210132Y0121703D02*
X0210132Y0124605D01*
X0211583Y0124605D01*
X0212067Y0124121D01*
X0212067Y0123154D01*
X0211583Y0122670D01*
X0210199Y0136624D02*
X0209231Y0136624D01*
X0208748Y0137108D01*
X0208748Y0137591D01*
X0209231Y0138075D01*
X0210199Y0138075D01*
X0210683Y0137591D01*
X0210683Y0137108D01*
X0210199Y0136624D01*
X0210199Y0138075D02*
X0210683Y0138559D01*
X0210683Y0139043D01*
X0210199Y0139526D01*
X0209231Y0139526D01*
X0208748Y0139043D01*
X0208748Y0138559D01*
X0209231Y0138075D01*
X0207736Y0138075D02*
X0207252Y0137591D01*
X0205801Y0137591D01*
X0205801Y0136624D02*
X0205801Y0139526D01*
X0207252Y0139526D01*
X0207736Y0139043D01*
X0207736Y0138075D01*
X0206769Y0137591D02*
X0207736Y0136624D01*
X0180203Y0146790D02*
X0178268Y0144855D01*
X0178268Y0144371D01*
X0177256Y0144371D02*
X0176289Y0145338D01*
X0176772Y0145338D02*
X0175321Y0145338D01*
X0175321Y0144371D02*
X0175321Y0147273D01*
X0176772Y0147273D01*
X0177256Y0146790D01*
X0177256Y0145822D01*
X0176772Y0145338D01*
X0178268Y0147273D02*
X0180203Y0147273D01*
X0180203Y0146790D01*
X0165924Y0134082D02*
X0165924Y0132147D01*
X0165924Y0133598D02*
X0163989Y0133598D01*
X0163989Y0134082D02*
X0163989Y0132147D01*
X0162977Y0132630D02*
X0162493Y0132147D01*
X0161526Y0132147D01*
X0161042Y0132630D01*
X0161042Y0134565D01*
X0161526Y0135049D01*
X0162493Y0135049D01*
X0162977Y0134565D01*
X0162977Y0132630D01*
X0163989Y0134082D02*
X0164956Y0135049D01*
X0165924Y0134082D01*
X0160031Y0135049D02*
X0160031Y0132147D01*
X0158096Y0132147D02*
X0158096Y0135049D01*
X0159063Y0134082D01*
X0160031Y0135049D01*
X0157084Y0134565D02*
X0157084Y0132630D01*
X0156600Y0132147D01*
X0155633Y0132147D01*
X0155149Y0132630D01*
X0157084Y0134565D01*
X0156600Y0135049D01*
X0155633Y0135049D01*
X0155149Y0134565D01*
X0155149Y0132630D01*
X0154160Y0132630D02*
X0154160Y0132147D01*
X0153676Y0132147D01*
X0153676Y0132630D01*
X0154160Y0132630D01*
X0152664Y0132630D02*
X0152181Y0132147D01*
X0151213Y0132147D01*
X0150729Y0132630D01*
X0150729Y0133598D02*
X0151697Y0134082D01*
X0152181Y0134082D01*
X0152664Y0133598D01*
X0152664Y0132630D01*
X0150729Y0133598D02*
X0150729Y0135049D01*
X0152664Y0135049D01*
X0149718Y0133598D02*
X0147783Y0133598D01*
X0146771Y0134565D02*
X0144836Y0132630D01*
X0144836Y0132147D01*
X0143825Y0134565D02*
X0141890Y0132630D01*
X0141890Y0132147D01*
X0140878Y0132630D02*
X0140394Y0132147D01*
X0139427Y0132147D01*
X0138943Y0132630D01*
X0138943Y0134565D01*
X0139427Y0135049D01*
X0140394Y0135049D01*
X0140878Y0134565D01*
X0141890Y0135049D02*
X0143825Y0135049D01*
X0143825Y0134565D01*
X0144836Y0135049D02*
X0146771Y0135049D01*
X0146771Y0134565D01*
X0137932Y0135049D02*
X0135997Y0135049D01*
X0136964Y0135049D02*
X0136964Y0132147D01*
X0148534Y0128120D02*
X0148534Y0125218D01*
X0148534Y0126185D02*
X0149986Y0126185D01*
X0150469Y0126669D01*
X0150469Y0127637D01*
X0149986Y0128120D01*
X0148534Y0128120D01*
X0149502Y0126185D02*
X0150469Y0125218D01*
X0151481Y0125702D02*
X0151965Y0125218D01*
X0152932Y0125218D01*
X0153416Y0125702D01*
X0153416Y0126669D01*
X0152932Y0127153D01*
X0152448Y0127153D01*
X0151481Y0126669D01*
X0151481Y0128120D01*
X0153416Y0128120D01*
X0125969Y0152432D02*
X0125485Y0151948D01*
X0124517Y0151948D01*
X0124034Y0152432D01*
X0124034Y0153399D01*
X0125485Y0153399D01*
X0125969Y0152916D01*
X0125969Y0152432D01*
X0125001Y0154367D02*
X0124034Y0153399D01*
X0123022Y0153399D02*
X0122538Y0152916D01*
X0121087Y0152916D01*
X0122055Y0152916D02*
X0123022Y0151948D01*
X0123022Y0153399D02*
X0123022Y0154367D01*
X0122538Y0154851D01*
X0121087Y0154851D01*
X0121087Y0151948D01*
X0125001Y0154367D02*
X0125969Y0154851D01*
X0111335Y0154108D02*
X0110851Y0154592D01*
X0109884Y0154592D01*
X0109400Y0154108D01*
X0108388Y0154108D02*
X0107905Y0154592D01*
X0106937Y0154592D01*
X0106453Y0154108D01*
X0106453Y0152173D01*
X0106937Y0151689D01*
X0107905Y0151689D01*
X0108388Y0152173D01*
X0109400Y0151689D02*
X0111335Y0153624D01*
X0111335Y0154108D01*
X0111335Y0151689D02*
X0109400Y0151689D01*
X0095986Y0138109D02*
X0095019Y0138109D01*
X0094535Y0137625D01*
X0093523Y0137625D02*
X0093523Y0136658D01*
X0093040Y0136174D01*
X0091588Y0136174D01*
X0091588Y0135207D02*
X0091588Y0138109D01*
X0093040Y0138109D01*
X0093523Y0137625D01*
X0092556Y0136174D02*
X0093523Y0135207D01*
X0094535Y0135207D02*
X0096470Y0137142D01*
X0096470Y0137625D01*
X0095986Y0138109D01*
X0096470Y0135207D02*
X0094535Y0135207D01*
X0043155Y0119970D02*
X0041220Y0119970D01*
X0042188Y0119970D02*
X0042188Y0122872D01*
X0041220Y0121905D01*
X0040209Y0122388D02*
X0040209Y0121421D01*
X0039725Y0120937D01*
X0038274Y0120937D01*
X0039241Y0120937D02*
X0040209Y0119970D01*
X0038274Y0119970D02*
X0038274Y0122872D01*
X0039725Y0122872D01*
X0040209Y0122388D01*
X0105585Y0079874D02*
X0106202Y0079874D01*
X0108671Y0077405D01*
X0109288Y0077405D01*
X0109288Y0076190D02*
X0109288Y0073722D01*
X0109288Y0074956D02*
X0105585Y0074956D01*
X0106819Y0073722D01*
X0105585Y0077405D02*
X0105585Y0079874D01*
X0115585Y0079256D02*
X0115585Y0078022D01*
X0116202Y0077405D01*
X0116819Y0077405D01*
X0117436Y0078022D01*
X0117436Y0079874D01*
X0116202Y0079874D02*
X0118671Y0079874D01*
X0119288Y0079256D01*
X0119288Y0078022D01*
X0118671Y0077405D01*
X0119288Y0076190D02*
X0119288Y0073722D01*
X0119288Y0074956D02*
X0115585Y0074956D01*
X0116819Y0073722D01*
X0115585Y0079256D02*
X0116202Y0079874D01*
X0125585Y0078639D02*
X0129288Y0078639D01*
X0129288Y0077405D02*
X0129288Y0079874D01*
X0126819Y0077405D02*
X0125585Y0078639D01*
X0126202Y0076190D02*
X0125585Y0075573D01*
X0125585Y0074339D01*
X0126202Y0073722D01*
X0126202Y0076190D02*
X0126819Y0076190D01*
X0129288Y0073722D01*
X0129288Y0076190D01*
X0135585Y0075573D02*
X0135585Y0074339D01*
X0136202Y0073722D01*
X0135585Y0075573D02*
X0136202Y0076190D01*
X0136819Y0076190D01*
X0139288Y0073722D01*
X0139288Y0076190D01*
X0138671Y0077405D02*
X0139288Y0078022D01*
X0139288Y0079256D01*
X0138671Y0079874D01*
X0138053Y0079874D01*
X0137436Y0079256D01*
X0137436Y0078639D01*
X0137436Y0079256D02*
X0136819Y0079874D01*
X0136202Y0079874D01*
X0135585Y0079256D01*
X0135585Y0078022D01*
X0136202Y0077405D01*
X0145585Y0077405D02*
X0147436Y0077405D01*
X0146819Y0078639D01*
X0146819Y0079256D01*
X0147436Y0079874D01*
X0148671Y0079874D01*
X0149288Y0079256D01*
X0149288Y0078022D01*
X0148671Y0077405D01*
X0149288Y0076190D02*
X0149288Y0073722D01*
X0146819Y0076190D01*
X0146202Y0076190D01*
X0145585Y0075573D01*
X0145585Y0074339D01*
X0146202Y0073722D01*
X0145585Y0077405D02*
X0145585Y0079874D01*
X0155585Y0079874D02*
X0155585Y0077405D01*
X0156202Y0076190D02*
X0155585Y0075573D01*
X0155585Y0074339D01*
X0156202Y0073722D01*
X0156202Y0076190D02*
X0156819Y0076190D01*
X0159288Y0073722D01*
X0159288Y0076190D01*
X0159288Y0077405D02*
X0158671Y0077405D01*
X0156202Y0079874D01*
X0155585Y0079874D01*
X0165585Y0079256D02*
X0165585Y0078022D01*
X0166202Y0077405D01*
X0166819Y0077405D01*
X0167436Y0078022D01*
X0167436Y0079874D01*
X0166202Y0079874D02*
X0168671Y0079874D01*
X0169288Y0079256D01*
X0169288Y0078022D01*
X0168671Y0077405D01*
X0169288Y0076190D02*
X0169288Y0073722D01*
X0166819Y0076190D01*
X0166202Y0076190D01*
X0165585Y0075573D01*
X0165585Y0074339D01*
X0166202Y0073722D01*
X0165585Y0079256D02*
X0166202Y0079874D01*
X0175585Y0078639D02*
X0179288Y0078639D01*
X0179288Y0077405D02*
X0179288Y0079874D01*
X0176819Y0077405D02*
X0175585Y0078639D01*
X0176202Y0076190D02*
X0176819Y0076190D01*
X0177436Y0075573D01*
X0178053Y0076190D01*
X0178671Y0076190D01*
X0179288Y0075573D01*
X0179288Y0074339D01*
X0178671Y0073722D01*
X0177436Y0074956D02*
X0177436Y0075573D01*
X0176202Y0076190D02*
X0175585Y0075573D01*
X0175585Y0074339D01*
X0176202Y0073722D01*
X0185585Y0074339D02*
X0185585Y0075573D01*
X0186202Y0076190D01*
X0186819Y0076190D01*
X0187436Y0075573D01*
X0188053Y0076190D01*
X0188671Y0076190D01*
X0189288Y0075573D01*
X0189288Y0074339D01*
X0188671Y0073722D01*
X0187436Y0074956D02*
X0187436Y0075573D01*
X0186202Y0077405D02*
X0185585Y0078022D01*
X0185585Y0079256D01*
X0186202Y0079874D01*
X0186819Y0079874D01*
X0187436Y0079256D01*
X0188053Y0079874D01*
X0188671Y0079874D01*
X0189288Y0079256D01*
X0189288Y0078022D01*
X0188671Y0077405D01*
X0187436Y0078639D02*
X0187436Y0079256D01*
X0185585Y0074339D02*
X0186202Y0073722D01*
X0195585Y0074339D02*
X0195585Y0075573D01*
X0196202Y0076190D01*
X0196819Y0076190D01*
X0197436Y0075573D01*
X0198053Y0076190D01*
X0198671Y0076190D01*
X0199288Y0075573D01*
X0199288Y0074339D01*
X0198671Y0073722D01*
X0197436Y0074956D02*
X0197436Y0075573D01*
X0197436Y0077405D02*
X0196819Y0078639D01*
X0196819Y0079256D01*
X0197436Y0079874D01*
X0198671Y0079874D01*
X0199288Y0079256D01*
X0199288Y0078022D01*
X0198671Y0077405D01*
X0197436Y0077405D02*
X0195585Y0077405D01*
X0195585Y0079874D01*
X0195585Y0074339D02*
X0196202Y0073722D01*
X0205585Y0074339D02*
X0205585Y0075573D01*
X0206202Y0076190D01*
X0206819Y0076190D01*
X0207436Y0075573D01*
X0208053Y0076190D01*
X0208671Y0076190D01*
X0209288Y0075573D01*
X0209288Y0074339D01*
X0208671Y0073722D01*
X0207436Y0074956D02*
X0207436Y0075573D01*
X0208671Y0077405D02*
X0209288Y0077405D01*
X0208671Y0077405D02*
X0206202Y0079874D01*
X0205585Y0079874D01*
X0205585Y0077405D01*
X0205585Y0074339D02*
X0206202Y0073722D01*
X0215585Y0074339D02*
X0215585Y0075573D01*
X0216202Y0076190D01*
X0216819Y0076190D01*
X0217436Y0075573D01*
X0218053Y0076190D01*
X0218671Y0076190D01*
X0219288Y0075573D01*
X0219288Y0074339D01*
X0218671Y0073722D01*
X0217436Y0074956D02*
X0217436Y0075573D01*
X0216819Y0077405D02*
X0217436Y0078022D01*
X0217436Y0079874D01*
X0216202Y0079874D02*
X0218671Y0079874D01*
X0219288Y0079256D01*
X0219288Y0078022D01*
X0218671Y0077405D01*
X0216819Y0077405D02*
X0216202Y0077405D01*
X0215585Y0078022D01*
X0215585Y0079256D01*
X0216202Y0079874D01*
X0215585Y0074339D02*
X0216202Y0073722D01*
X0225585Y0075573D02*
X0227436Y0073722D01*
X0227436Y0076190D01*
X0226819Y0077405D02*
X0225585Y0078639D01*
X0229288Y0078639D01*
X0229288Y0077405D02*
X0229288Y0079874D01*
X0229288Y0075573D02*
X0225585Y0075573D01*
X0235585Y0075573D02*
X0237436Y0073722D01*
X0237436Y0076190D01*
X0236202Y0077405D02*
X0235585Y0078022D01*
X0235585Y0079256D01*
X0236202Y0079874D01*
X0236819Y0079874D01*
X0237436Y0079256D01*
X0238053Y0079874D01*
X0238671Y0079874D01*
X0239288Y0079256D01*
X0239288Y0078022D01*
X0238671Y0077405D01*
X0237436Y0078639D02*
X0237436Y0079256D01*
X0235585Y0075573D02*
X0239288Y0075573D01*
X0245585Y0075573D02*
X0247436Y0073722D01*
X0247436Y0076190D01*
X0247436Y0077405D02*
X0246819Y0078639D01*
X0246819Y0079256D01*
X0247436Y0079874D01*
X0248671Y0079874D01*
X0249288Y0079256D01*
X0249288Y0078022D01*
X0248671Y0077405D01*
X0247436Y0077405D02*
X0245585Y0077405D01*
X0245585Y0079874D01*
X0245585Y0075573D02*
X0249288Y0075573D01*
X0095043Y0043196D02*
X0095043Y0041261D01*
X0095043Y0042228D02*
X0092140Y0042228D01*
X0093108Y0041261D01*
X0092624Y0040249D02*
X0092140Y0039765D01*
X0092140Y0038798D01*
X0092624Y0038314D01*
X0094559Y0038314D01*
X0095043Y0038798D01*
X0095043Y0039765D01*
X0094559Y0040249D01*
D12*
X0103920Y0029961D02*
X0106556Y0032596D01*
X0109192Y0029961D01*
X0109192Y0024689D01*
X0111839Y0024689D02*
X0114475Y0024689D01*
X0113157Y0024689D02*
X0113157Y0032596D01*
X0111839Y0032596D01*
X0109192Y0028643D02*
X0103920Y0028643D01*
X0103920Y0029961D02*
X0103920Y0024689D01*
X0117118Y0024689D02*
X0119754Y0024689D01*
X0118436Y0024689D02*
X0118436Y0032596D01*
X0117118Y0032596D01*
X0122398Y0029961D02*
X0125033Y0032596D01*
X0127669Y0029961D01*
X0127669Y0024689D01*
X0130316Y0024689D02*
X0134270Y0024689D01*
X0135588Y0026007D01*
X0135588Y0028643D01*
X0134270Y0029961D01*
X0130316Y0029961D01*
X0130316Y0032596D02*
X0130316Y0024689D01*
X0127669Y0028643D02*
X0122398Y0028643D01*
X0122398Y0029961D02*
X0122398Y0024689D01*
X0138235Y0026007D02*
X0139553Y0024689D01*
X0142188Y0024689D01*
X0143506Y0026007D01*
X0143506Y0028643D01*
X0142188Y0029961D01*
X0139553Y0029961D01*
X0138235Y0028643D01*
X0138235Y0026007D01*
X0146154Y0026007D02*
X0147472Y0024689D01*
X0151425Y0024689D01*
X0151425Y0029961D01*
X0154073Y0029961D02*
X0156708Y0029961D01*
X0155390Y0031278D02*
X0155390Y0026007D01*
X0156708Y0024689D01*
X0159352Y0024689D02*
X0164623Y0024689D01*
X0167271Y0024689D02*
X0172542Y0024689D01*
X0167271Y0024689D02*
X0167271Y0032596D01*
X0172542Y0032596D01*
X0169906Y0028643D02*
X0167271Y0028643D01*
X0164623Y0032596D02*
X0159352Y0032596D01*
X0159352Y0024689D01*
X0159352Y0028643D02*
X0161987Y0028643D01*
X0146154Y0029961D02*
X0146154Y0026007D01*
D13*
X0058091Y0042591D02*
X0058091Y0059591D01*
X0050139Y0063091D02*
X0042091Y0063091D01*
X0034091Y0059591D02*
X0034091Y0042591D01*
X0042091Y0039091D02*
X0050020Y0039091D01*
X0039091Y0051091D02*
X0039093Y0051263D01*
X0039099Y0051434D01*
X0039110Y0051606D01*
X0039125Y0051777D01*
X0039144Y0051948D01*
X0039167Y0052118D01*
X0039194Y0052288D01*
X0039226Y0052457D01*
X0039261Y0052625D01*
X0039301Y0052792D01*
X0039345Y0052958D01*
X0039392Y0053123D01*
X0039444Y0053287D01*
X0039500Y0053449D01*
X0039560Y0053610D01*
X0039624Y0053770D01*
X0039692Y0053928D01*
X0039763Y0054084D01*
X0039838Y0054238D01*
X0039918Y0054391D01*
X0040000Y0054541D01*
X0040087Y0054690D01*
X0040177Y0054836D01*
X0040271Y0054980D01*
X0040368Y0055122D01*
X0040469Y0055261D01*
X0040573Y0055398D01*
X0040680Y0055532D01*
X0040791Y0055663D01*
X0040904Y0055792D01*
X0041021Y0055918D01*
X0041141Y0056041D01*
X0041264Y0056161D01*
X0041390Y0056278D01*
X0041519Y0056391D01*
X0041650Y0056502D01*
X0041784Y0056609D01*
X0041921Y0056713D01*
X0042060Y0056814D01*
X0042202Y0056911D01*
X0042346Y0057005D01*
X0042492Y0057095D01*
X0042641Y0057182D01*
X0042791Y0057264D01*
X0042944Y0057344D01*
X0043098Y0057419D01*
X0043254Y0057490D01*
X0043412Y0057558D01*
X0043572Y0057622D01*
X0043733Y0057682D01*
X0043895Y0057738D01*
X0044059Y0057790D01*
X0044224Y0057837D01*
X0044390Y0057881D01*
X0044557Y0057921D01*
X0044725Y0057956D01*
X0044894Y0057988D01*
X0045064Y0058015D01*
X0045234Y0058038D01*
X0045405Y0058057D01*
X0045576Y0058072D01*
X0045748Y0058083D01*
X0045919Y0058089D01*
X0046091Y0058091D01*
X0046263Y0058089D01*
X0046434Y0058083D01*
X0046606Y0058072D01*
X0046777Y0058057D01*
X0046948Y0058038D01*
X0047118Y0058015D01*
X0047288Y0057988D01*
X0047457Y0057956D01*
X0047625Y0057921D01*
X0047792Y0057881D01*
X0047958Y0057837D01*
X0048123Y0057790D01*
X0048287Y0057738D01*
X0048449Y0057682D01*
X0048610Y0057622D01*
X0048770Y0057558D01*
X0048928Y0057490D01*
X0049084Y0057419D01*
X0049238Y0057344D01*
X0049391Y0057264D01*
X0049541Y0057182D01*
X0049690Y0057095D01*
X0049836Y0057005D01*
X0049980Y0056911D01*
X0050122Y0056814D01*
X0050261Y0056713D01*
X0050398Y0056609D01*
X0050532Y0056502D01*
X0050663Y0056391D01*
X0050792Y0056278D01*
X0050918Y0056161D01*
X0051041Y0056041D01*
X0051161Y0055918D01*
X0051278Y0055792D01*
X0051391Y0055663D01*
X0051502Y0055532D01*
X0051609Y0055398D01*
X0051713Y0055261D01*
X0051814Y0055122D01*
X0051911Y0054980D01*
X0052005Y0054836D01*
X0052095Y0054690D01*
X0052182Y0054541D01*
X0052264Y0054391D01*
X0052344Y0054238D01*
X0052419Y0054084D01*
X0052490Y0053928D01*
X0052558Y0053770D01*
X0052622Y0053610D01*
X0052682Y0053449D01*
X0052738Y0053287D01*
X0052790Y0053123D01*
X0052837Y0052958D01*
X0052881Y0052792D01*
X0052921Y0052625D01*
X0052956Y0052457D01*
X0052988Y0052288D01*
X0053015Y0052118D01*
X0053038Y0051948D01*
X0053057Y0051777D01*
X0053072Y0051606D01*
X0053083Y0051434D01*
X0053089Y0051263D01*
X0053091Y0051091D01*
X0053089Y0050919D01*
X0053083Y0050748D01*
X0053072Y0050576D01*
X0053057Y0050405D01*
X0053038Y0050234D01*
X0053015Y0050064D01*
X0052988Y0049894D01*
X0052956Y0049725D01*
X0052921Y0049557D01*
X0052881Y0049390D01*
X0052837Y0049224D01*
X0052790Y0049059D01*
X0052738Y0048895D01*
X0052682Y0048733D01*
X0052622Y0048572D01*
X0052558Y0048412D01*
X0052490Y0048254D01*
X0052419Y0048098D01*
X0052344Y0047944D01*
X0052264Y0047791D01*
X0052182Y0047641D01*
X0052095Y0047492D01*
X0052005Y0047346D01*
X0051911Y0047202D01*
X0051814Y0047060D01*
X0051713Y0046921D01*
X0051609Y0046784D01*
X0051502Y0046650D01*
X0051391Y0046519D01*
X0051278Y0046390D01*
X0051161Y0046264D01*
X0051041Y0046141D01*
X0050918Y0046021D01*
X0050792Y0045904D01*
X0050663Y0045791D01*
X0050532Y0045680D01*
X0050398Y0045573D01*
X0050261Y0045469D01*
X0050122Y0045368D01*
X0049980Y0045271D01*
X0049836Y0045177D01*
X0049690Y0045087D01*
X0049541Y0045000D01*
X0049391Y0044918D01*
X0049238Y0044838D01*
X0049084Y0044763D01*
X0048928Y0044692D01*
X0048770Y0044624D01*
X0048610Y0044560D01*
X0048449Y0044500D01*
X0048287Y0044444D01*
X0048123Y0044392D01*
X0047958Y0044345D01*
X0047792Y0044301D01*
X0047625Y0044261D01*
X0047457Y0044226D01*
X0047288Y0044194D01*
X0047118Y0044167D01*
X0046948Y0044144D01*
X0046777Y0044125D01*
X0046606Y0044110D01*
X0046434Y0044099D01*
X0046263Y0044093D01*
X0046091Y0044091D01*
X0045919Y0044093D01*
X0045748Y0044099D01*
X0045576Y0044110D01*
X0045405Y0044125D01*
X0045234Y0044144D01*
X0045064Y0044167D01*
X0044894Y0044194D01*
X0044725Y0044226D01*
X0044557Y0044261D01*
X0044390Y0044301D01*
X0044224Y0044345D01*
X0044059Y0044392D01*
X0043895Y0044444D01*
X0043733Y0044500D01*
X0043572Y0044560D01*
X0043412Y0044624D01*
X0043254Y0044692D01*
X0043098Y0044763D01*
X0042944Y0044838D01*
X0042791Y0044918D01*
X0042641Y0045000D01*
X0042492Y0045087D01*
X0042346Y0045177D01*
X0042202Y0045271D01*
X0042060Y0045368D01*
X0041921Y0045469D01*
X0041784Y0045573D01*
X0041650Y0045680D01*
X0041519Y0045791D01*
X0041390Y0045904D01*
X0041264Y0046021D01*
X0041141Y0046141D01*
X0041021Y0046264D01*
X0040904Y0046390D01*
X0040791Y0046519D01*
X0040680Y0046650D01*
X0040573Y0046784D01*
X0040469Y0046921D01*
X0040368Y0047060D01*
X0040271Y0047202D01*
X0040177Y0047346D01*
X0040087Y0047492D01*
X0040000Y0047641D01*
X0039918Y0047791D01*
X0039838Y0047944D01*
X0039763Y0048098D01*
X0039692Y0048254D01*
X0039624Y0048412D01*
X0039560Y0048572D01*
X0039500Y0048733D01*
X0039444Y0048895D01*
X0039392Y0049059D01*
X0039345Y0049224D01*
X0039301Y0049390D01*
X0039261Y0049557D01*
X0039226Y0049725D01*
X0039194Y0049894D01*
X0039167Y0050064D01*
X0039144Y0050234D01*
X0039125Y0050405D01*
X0039110Y0050576D01*
X0039099Y0050748D01*
X0039093Y0050919D01*
X0039091Y0051091D01*
X0052706Y0132489D02*
X0052706Y0147489D01*
X0154768Y0139197D02*
X0154770Y0139244D01*
X0154776Y0139291D01*
X0154786Y0139338D01*
X0154799Y0139383D01*
X0154817Y0139427D01*
X0154838Y0139469D01*
X0154862Y0139510D01*
X0154890Y0139548D01*
X0154921Y0139584D01*
X0154955Y0139617D01*
X0154991Y0139647D01*
X0155030Y0139674D01*
X0155071Y0139698D01*
X0155114Y0139718D01*
X0155158Y0139734D01*
X0155204Y0139747D01*
X0155250Y0139756D01*
X0155298Y0139761D01*
X0155345Y0139762D01*
X0155392Y0139759D01*
X0155439Y0139752D01*
X0155485Y0139741D01*
X0155530Y0139727D01*
X0155574Y0139708D01*
X0155615Y0139686D01*
X0155655Y0139661D01*
X0155693Y0139632D01*
X0155728Y0139601D01*
X0155761Y0139566D01*
X0155790Y0139529D01*
X0155816Y0139490D01*
X0155839Y0139448D01*
X0155858Y0139405D01*
X0155874Y0139360D01*
X0155886Y0139314D01*
X0155894Y0139268D01*
X0155898Y0139221D01*
X0155898Y0139173D01*
X0155894Y0139126D01*
X0155886Y0139080D01*
X0155874Y0139034D01*
X0155858Y0138989D01*
X0155839Y0138946D01*
X0155816Y0138904D01*
X0155790Y0138865D01*
X0155761Y0138828D01*
X0155728Y0138793D01*
X0155693Y0138762D01*
X0155655Y0138733D01*
X0155616Y0138708D01*
X0155574Y0138686D01*
X0155530Y0138667D01*
X0155485Y0138653D01*
X0155439Y0138642D01*
X0155392Y0138635D01*
X0155345Y0138632D01*
X0155298Y0138633D01*
X0155250Y0138638D01*
X0155204Y0138647D01*
X0155158Y0138660D01*
X0155114Y0138676D01*
X0155071Y0138696D01*
X0155030Y0138720D01*
X0154991Y0138747D01*
X0154955Y0138777D01*
X0154921Y0138810D01*
X0154890Y0138846D01*
X0154862Y0138884D01*
X0154838Y0138925D01*
X0154817Y0138967D01*
X0154799Y0139011D01*
X0154786Y0139056D01*
X0154776Y0139103D01*
X0154770Y0139150D01*
X0154768Y0139197D01*
X0200304Y0141761D02*
X0200340Y0141906D01*
X0200381Y0142050D01*
X0200425Y0142192D01*
X0200473Y0142334D01*
X0200525Y0142474D01*
X0200581Y0142613D01*
X0200640Y0142750D01*
X0200702Y0142886D01*
X0200769Y0143020D01*
X0200839Y0143152D01*
X0200912Y0143282D01*
X0200988Y0143411D01*
X0201069Y0143537D01*
X0201152Y0143661D01*
X0201238Y0143783D01*
X0201328Y0143902D01*
X0201421Y0144019D01*
X0201517Y0144134D01*
X0201616Y0144246D01*
X0201718Y0144355D01*
X0201823Y0144462D01*
X0201930Y0144566D01*
X0202040Y0144667D01*
X0202153Y0144765D01*
X0202268Y0144860D01*
X0202386Y0144952D01*
X0202506Y0145041D01*
X0202629Y0145126D01*
X0202754Y0145209D01*
X0202881Y0145288D01*
X0203010Y0145364D01*
X0203140Y0145436D01*
X0203273Y0145504D01*
X0203408Y0145570D01*
X0203544Y0145631D01*
X0203682Y0145689D01*
X0203821Y0145744D01*
X0203961Y0145794D01*
X0204103Y0145841D01*
X0204246Y0145885D01*
X0204391Y0145924D01*
X0204536Y0145960D01*
X0204682Y0145991D01*
X0204829Y0146019D01*
X0204976Y0146043D01*
X0205124Y0146063D01*
X0205273Y0146079D01*
X0205422Y0146092D01*
X0205422Y0146091D02*
X0213296Y0146091D01*
X0213296Y0146092D02*
X0213445Y0146079D01*
X0213593Y0146063D01*
X0213742Y0146043D01*
X0213889Y0146019D01*
X0214036Y0145991D01*
X0214182Y0145960D01*
X0214327Y0145924D01*
X0214471Y0145885D01*
X0214615Y0145841D01*
X0214756Y0145794D01*
X0214897Y0145744D01*
X0215036Y0145689D01*
X0215174Y0145631D01*
X0215310Y0145570D01*
X0215445Y0145505D01*
X0215578Y0145436D01*
X0215708Y0145364D01*
X0215837Y0145288D01*
X0215964Y0145209D01*
X0216089Y0145127D01*
X0216212Y0145041D01*
X0216332Y0144952D01*
X0216450Y0144860D01*
X0216565Y0144765D01*
X0216678Y0144667D01*
X0216788Y0144566D01*
X0216896Y0144462D01*
X0217000Y0144355D01*
X0217102Y0144246D01*
X0217201Y0144134D01*
X0217297Y0144019D01*
X0217390Y0143902D01*
X0217480Y0143783D01*
X0217566Y0143661D01*
X0217650Y0143537D01*
X0217730Y0143411D01*
X0217806Y0143282D01*
X0217880Y0143152D01*
X0217949Y0143020D01*
X0218016Y0142886D01*
X0218078Y0142750D01*
X0218137Y0142613D01*
X0218193Y0142474D01*
X0218245Y0142334D01*
X0218293Y0142192D01*
X0218337Y0142049D01*
X0218378Y0141906D01*
X0218414Y0141761D01*
X0218414Y0134674D02*
X0218378Y0134529D01*
X0218337Y0134385D01*
X0218293Y0134243D01*
X0218245Y0134101D01*
X0218193Y0133961D01*
X0218137Y0133822D01*
X0218078Y0133685D01*
X0218016Y0133549D01*
X0217949Y0133415D01*
X0217879Y0133283D01*
X0217806Y0133153D01*
X0217730Y0133024D01*
X0217649Y0132898D01*
X0217566Y0132774D01*
X0217480Y0132652D01*
X0217390Y0132533D01*
X0217297Y0132416D01*
X0217201Y0132301D01*
X0217102Y0132189D01*
X0217000Y0132080D01*
X0216895Y0131973D01*
X0216788Y0131869D01*
X0216678Y0131768D01*
X0216565Y0131670D01*
X0216450Y0131575D01*
X0216332Y0131483D01*
X0216212Y0131394D01*
X0216089Y0131309D01*
X0215964Y0131226D01*
X0215837Y0131147D01*
X0215708Y0131071D01*
X0215578Y0130999D01*
X0215445Y0130931D01*
X0215310Y0130865D01*
X0215174Y0130804D01*
X0215036Y0130746D01*
X0214897Y0130691D01*
X0214757Y0130641D01*
X0214615Y0130594D01*
X0214472Y0130550D01*
X0214327Y0130511D01*
X0214182Y0130475D01*
X0214036Y0130444D01*
X0213889Y0130416D01*
X0213742Y0130392D01*
X0213594Y0130372D01*
X0213445Y0130356D01*
X0213296Y0130343D01*
X0205422Y0130343D01*
X0205273Y0130356D01*
X0205125Y0130372D01*
X0204976Y0130392D01*
X0204829Y0130416D01*
X0204682Y0130444D01*
X0204536Y0130475D01*
X0204391Y0130511D01*
X0204247Y0130550D01*
X0204103Y0130594D01*
X0203962Y0130641D01*
X0203821Y0130691D01*
X0203682Y0130746D01*
X0203544Y0130804D01*
X0203408Y0130865D01*
X0203273Y0130930D01*
X0203140Y0130999D01*
X0203010Y0131071D01*
X0202881Y0131147D01*
X0202754Y0131226D01*
X0202629Y0131308D01*
X0202506Y0131394D01*
X0202386Y0131483D01*
X0202268Y0131575D01*
X0202153Y0131670D01*
X0202040Y0131768D01*
X0201930Y0131869D01*
X0201822Y0131973D01*
X0201718Y0132080D01*
X0201616Y0132189D01*
X0201517Y0132301D01*
X0201421Y0132416D01*
X0201328Y0132533D01*
X0201238Y0132652D01*
X0201152Y0132774D01*
X0201068Y0132898D01*
X0200988Y0133024D01*
X0200912Y0133153D01*
X0200838Y0133283D01*
X0200769Y0133415D01*
X0200702Y0133549D01*
X0200640Y0133685D01*
X0200581Y0133822D01*
X0200525Y0133961D01*
X0200473Y0134101D01*
X0200425Y0134243D01*
X0200381Y0134386D01*
X0200340Y0134529D01*
X0200304Y0134674D01*
D14*
X0052705Y0132489D02*
X0052518Y0132246D01*
X0052326Y0132008D01*
X0052127Y0131775D01*
X0051923Y0131547D01*
X0051714Y0131324D01*
X0051499Y0131106D01*
X0051279Y0130893D01*
X0051054Y0130686D01*
X0050823Y0130484D01*
X0050588Y0130288D01*
X0050348Y0130098D01*
X0050104Y0129914D01*
X0049855Y0129736D01*
X0049601Y0129564D01*
X0049344Y0129398D01*
X0049083Y0129238D01*
X0048818Y0129085D01*
X0048549Y0128939D01*
X0048276Y0128799D01*
X0048001Y0128666D01*
X0047722Y0128540D01*
X0047440Y0128420D01*
X0047155Y0128308D01*
X0046868Y0128203D01*
X0046578Y0128104D01*
X0046286Y0128013D01*
X0045991Y0127929D01*
X0045695Y0127852D01*
X0045397Y0127782D01*
X0045097Y0127720D01*
X0044796Y0127665D01*
X0044494Y0127618D01*
X0044190Y0127578D01*
X0043886Y0127545D01*
X0043581Y0127520D01*
X0043275Y0127502D01*
X0042969Y0127492D01*
X0042663Y0127489D01*
X0042357Y0127494D01*
X0042051Y0127506D01*
X0041745Y0127526D01*
X0041441Y0127553D01*
X0041136Y0127588D01*
X0040833Y0127630D01*
X0040531Y0127679D01*
X0040230Y0127736D01*
X0039931Y0127801D01*
X0039633Y0127872D01*
X0039338Y0127951D01*
X0039044Y0128037D01*
X0038752Y0128130D01*
X0038463Y0128231D01*
X0038176Y0128338D01*
X0037892Y0128453D01*
X0037611Y0128574D01*
X0037333Y0128702D01*
X0037058Y0128837D01*
X0036787Y0128979D01*
X0036519Y0129127D01*
X0036255Y0129282D01*
X0035995Y0129443D01*
X0035739Y0129610D01*
X0035486Y0129784D01*
X0035239Y0129964D01*
X0034995Y0130150D01*
X0034757Y0130341D01*
X0034523Y0130539D01*
X0034294Y0130742D01*
X0034070Y0130951D01*
X0033851Y0131165D01*
X0033638Y0131385D01*
X0033430Y0131609D01*
X0033227Y0131839D01*
X0033031Y0132073D01*
X0032840Y0132313D01*
X0032655Y0132556D01*
X0032476Y0132805D01*
X0032303Y0133057D01*
X0032136Y0133314D01*
X0031976Y0133575D01*
X0031822Y0133840D01*
X0031675Y0134108D01*
X0031534Y0134380D01*
X0031400Y0134655D01*
X0031273Y0134934D01*
X0031152Y0135215D01*
X0031039Y0135500D01*
X0030933Y0135787D01*
X0030833Y0136076D01*
X0030741Y0136368D01*
X0030656Y0136662D01*
X0030578Y0136958D01*
X0030507Y0137256D01*
X0030444Y0137556D01*
X0030388Y0137857D01*
X0030340Y0138159D01*
X0030299Y0138462D01*
X0030265Y0138766D01*
X0030239Y0139071D01*
X0030220Y0139377D01*
X0030209Y0139683D01*
X0030205Y0139989D01*
X0030209Y0140295D01*
X0030220Y0140601D01*
X0030239Y0140907D01*
X0030265Y0141212D01*
X0030299Y0141516D01*
X0030340Y0141819D01*
X0030388Y0142121D01*
X0030444Y0142422D01*
X0030507Y0142722D01*
X0030578Y0143020D01*
X0030656Y0143316D01*
X0030741Y0143610D01*
X0030833Y0143902D01*
X0030933Y0144191D01*
X0031039Y0144478D01*
X0031152Y0144763D01*
X0031273Y0145044D01*
X0031400Y0145323D01*
X0031534Y0145598D01*
X0031675Y0145870D01*
X0031822Y0146138D01*
X0031976Y0146403D01*
X0032136Y0146664D01*
X0032303Y0146921D01*
X0032476Y0147173D01*
X0032655Y0147422D01*
X0032840Y0147665D01*
X0033031Y0147905D01*
X0033227Y0148139D01*
X0033430Y0148369D01*
X0033638Y0148593D01*
X0033851Y0148813D01*
X0034070Y0149027D01*
X0034294Y0149236D01*
X0034523Y0149439D01*
X0034757Y0149637D01*
X0034995Y0149828D01*
X0035239Y0150014D01*
X0035486Y0150194D01*
X0035739Y0150368D01*
X0035995Y0150535D01*
X0036255Y0150696D01*
X0036519Y0150851D01*
X0036787Y0150999D01*
X0037058Y0151141D01*
X0037333Y0151276D01*
X0037611Y0151404D01*
X0037892Y0151525D01*
X0038176Y0151640D01*
X0038463Y0151747D01*
X0038752Y0151848D01*
X0039044Y0151941D01*
X0039338Y0152027D01*
X0039633Y0152106D01*
X0039931Y0152177D01*
X0040230Y0152242D01*
X0040531Y0152299D01*
X0040833Y0152348D01*
X0041136Y0152390D01*
X0041441Y0152425D01*
X0041745Y0152452D01*
X0042051Y0152472D01*
X0042357Y0152484D01*
X0042663Y0152489D01*
X0042969Y0152486D01*
X0043275Y0152476D01*
X0043581Y0152458D01*
X0043886Y0152433D01*
X0044190Y0152400D01*
X0044494Y0152360D01*
X0044796Y0152313D01*
X0045097Y0152258D01*
X0045397Y0152196D01*
X0045695Y0152126D01*
X0045991Y0152049D01*
X0046286Y0151965D01*
X0046578Y0151874D01*
X0046868Y0151775D01*
X0047155Y0151670D01*
X0047440Y0151558D01*
X0047722Y0151438D01*
X0048001Y0151312D01*
X0048276Y0151179D01*
X0048549Y0151039D01*
X0048818Y0150893D01*
X0049083Y0150740D01*
X0049344Y0150580D01*
X0049601Y0150414D01*
X0049855Y0150242D01*
X0050104Y0150064D01*
X0050348Y0149880D01*
X0050588Y0149690D01*
X0050823Y0149494D01*
X0051054Y0149292D01*
X0051279Y0149085D01*
X0051499Y0148872D01*
X0051714Y0148654D01*
X0051923Y0148431D01*
X0052127Y0148203D01*
X0052326Y0147970D01*
X0052518Y0147732D01*
X0052705Y0147489D01*
D15*
X0032706Y0139989D02*
X0032709Y0140234D01*
X0032718Y0140480D01*
X0032733Y0140725D01*
X0032754Y0140969D01*
X0032781Y0141213D01*
X0032814Y0141456D01*
X0032853Y0141699D01*
X0032898Y0141940D01*
X0032949Y0142180D01*
X0033006Y0142419D01*
X0033068Y0142656D01*
X0033137Y0142892D01*
X0033211Y0143126D01*
X0033291Y0143358D01*
X0033376Y0143588D01*
X0033467Y0143816D01*
X0033564Y0144041D01*
X0033666Y0144265D01*
X0033774Y0144485D01*
X0033887Y0144703D01*
X0034005Y0144918D01*
X0034129Y0145130D01*
X0034257Y0145339D01*
X0034391Y0145545D01*
X0034530Y0145747D01*
X0034674Y0145946D01*
X0034823Y0146141D01*
X0034976Y0146333D01*
X0035134Y0146521D01*
X0035296Y0146705D01*
X0035464Y0146884D01*
X0035635Y0147060D01*
X0035811Y0147231D01*
X0035990Y0147399D01*
X0036174Y0147561D01*
X0036362Y0147719D01*
X0036554Y0147872D01*
X0036749Y0148021D01*
X0036948Y0148165D01*
X0037150Y0148304D01*
X0037356Y0148438D01*
X0037565Y0148566D01*
X0037777Y0148690D01*
X0037992Y0148808D01*
X0038210Y0148921D01*
X0038430Y0149029D01*
X0038654Y0149131D01*
X0038879Y0149228D01*
X0039107Y0149319D01*
X0039337Y0149404D01*
X0039569Y0149484D01*
X0039803Y0149558D01*
X0040039Y0149627D01*
X0040276Y0149689D01*
X0040515Y0149746D01*
X0040755Y0149797D01*
X0040996Y0149842D01*
X0041239Y0149881D01*
X0041482Y0149914D01*
X0041726Y0149941D01*
X0041970Y0149962D01*
X0042215Y0149977D01*
X0042461Y0149986D01*
X0042706Y0149989D01*
X0042951Y0149986D01*
X0043197Y0149977D01*
X0043442Y0149962D01*
X0043686Y0149941D01*
X0043930Y0149914D01*
X0044173Y0149881D01*
X0044416Y0149842D01*
X0044657Y0149797D01*
X0044897Y0149746D01*
X0045136Y0149689D01*
X0045373Y0149627D01*
X0045609Y0149558D01*
X0045843Y0149484D01*
X0046075Y0149404D01*
X0046305Y0149319D01*
X0046533Y0149228D01*
X0046758Y0149131D01*
X0046982Y0149029D01*
X0047202Y0148921D01*
X0047420Y0148808D01*
X0047635Y0148690D01*
X0047847Y0148566D01*
X0048056Y0148438D01*
X0048262Y0148304D01*
X0048464Y0148165D01*
X0048663Y0148021D01*
X0048858Y0147872D01*
X0049050Y0147719D01*
X0049238Y0147561D01*
X0049422Y0147399D01*
X0049601Y0147231D01*
X0049777Y0147060D01*
X0049948Y0146884D01*
X0050116Y0146705D01*
X0050278Y0146521D01*
X0050436Y0146333D01*
X0050589Y0146141D01*
X0050738Y0145946D01*
X0050882Y0145747D01*
X0051021Y0145545D01*
X0051155Y0145339D01*
X0051283Y0145130D01*
X0051407Y0144918D01*
X0051525Y0144703D01*
X0051638Y0144485D01*
X0051746Y0144265D01*
X0051848Y0144041D01*
X0051945Y0143816D01*
X0052036Y0143588D01*
X0052121Y0143358D01*
X0052201Y0143126D01*
X0052275Y0142892D01*
X0052344Y0142656D01*
X0052406Y0142419D01*
X0052463Y0142180D01*
X0052514Y0141940D01*
X0052559Y0141699D01*
X0052598Y0141456D01*
X0052631Y0141213D01*
X0052658Y0140969D01*
X0052679Y0140725D01*
X0052694Y0140480D01*
X0052703Y0140234D01*
X0052706Y0139989D01*
X0052703Y0139744D01*
X0052694Y0139498D01*
X0052679Y0139253D01*
X0052658Y0139009D01*
X0052631Y0138765D01*
X0052598Y0138522D01*
X0052559Y0138279D01*
X0052514Y0138038D01*
X0052463Y0137798D01*
X0052406Y0137559D01*
X0052344Y0137322D01*
X0052275Y0137086D01*
X0052201Y0136852D01*
X0052121Y0136620D01*
X0052036Y0136390D01*
X0051945Y0136162D01*
X0051848Y0135937D01*
X0051746Y0135713D01*
X0051638Y0135493D01*
X0051525Y0135275D01*
X0051407Y0135060D01*
X0051283Y0134848D01*
X0051155Y0134639D01*
X0051021Y0134433D01*
X0050882Y0134231D01*
X0050738Y0134032D01*
X0050589Y0133837D01*
X0050436Y0133645D01*
X0050278Y0133457D01*
X0050116Y0133273D01*
X0049948Y0133094D01*
X0049777Y0132918D01*
X0049601Y0132747D01*
X0049422Y0132579D01*
X0049238Y0132417D01*
X0049050Y0132259D01*
X0048858Y0132106D01*
X0048663Y0131957D01*
X0048464Y0131813D01*
X0048262Y0131674D01*
X0048056Y0131540D01*
X0047847Y0131412D01*
X0047635Y0131288D01*
X0047420Y0131170D01*
X0047202Y0131057D01*
X0046982Y0130949D01*
X0046758Y0130847D01*
X0046533Y0130750D01*
X0046305Y0130659D01*
X0046075Y0130574D01*
X0045843Y0130494D01*
X0045609Y0130420D01*
X0045373Y0130351D01*
X0045136Y0130289D01*
X0044897Y0130232D01*
X0044657Y0130181D01*
X0044416Y0130136D01*
X0044173Y0130097D01*
X0043930Y0130064D01*
X0043686Y0130037D01*
X0043442Y0130016D01*
X0043197Y0130001D01*
X0042951Y0129992D01*
X0042706Y0129989D01*
X0042461Y0129992D01*
X0042215Y0130001D01*
X0041970Y0130016D01*
X0041726Y0130037D01*
X0041482Y0130064D01*
X0041239Y0130097D01*
X0040996Y0130136D01*
X0040755Y0130181D01*
X0040515Y0130232D01*
X0040276Y0130289D01*
X0040039Y0130351D01*
X0039803Y0130420D01*
X0039569Y0130494D01*
X0039337Y0130574D01*
X0039107Y0130659D01*
X0038879Y0130750D01*
X0038654Y0130847D01*
X0038430Y0130949D01*
X0038210Y0131057D01*
X0037992Y0131170D01*
X0037777Y0131288D01*
X0037565Y0131412D01*
X0037356Y0131540D01*
X0037150Y0131674D01*
X0036948Y0131813D01*
X0036749Y0131957D01*
X0036554Y0132106D01*
X0036362Y0132259D01*
X0036174Y0132417D01*
X0035990Y0132579D01*
X0035811Y0132747D01*
X0035635Y0132918D01*
X0035464Y0133094D01*
X0035296Y0133273D01*
X0035134Y0133457D01*
X0034976Y0133645D01*
X0034823Y0133837D01*
X0034674Y0134032D01*
X0034530Y0134231D01*
X0034391Y0134433D01*
X0034257Y0134639D01*
X0034129Y0134848D01*
X0034005Y0135060D01*
X0033887Y0135275D01*
X0033774Y0135493D01*
X0033666Y0135713D01*
X0033564Y0135937D01*
X0033467Y0136162D01*
X0033376Y0136390D01*
X0033291Y0136620D01*
X0033211Y0136852D01*
X0033137Y0137086D01*
X0033068Y0137322D01*
X0033006Y0137559D01*
X0032949Y0137798D01*
X0032898Y0138038D01*
X0032853Y0138279D01*
X0032814Y0138522D01*
X0032781Y0138765D01*
X0032754Y0139009D01*
X0032733Y0139253D01*
X0032718Y0139498D01*
X0032709Y0139744D01*
X0032706Y0139989D01*
X0066209Y0142410D02*
X0066209Y0137410D01*
X0068709Y0134910D01*
X0073709Y0134910D01*
X0076209Y0137410D01*
X0076209Y0142410D01*
X0073709Y0144910D01*
X0068709Y0144910D01*
X0066209Y0142410D01*
X0068709Y0134910D02*
X0066209Y0132410D01*
X0066209Y0127410D01*
X0068709Y0124910D01*
X0073709Y0124910D01*
X0076209Y0127410D01*
X0076209Y0132410D01*
X0073709Y0134910D01*
X0073709Y0124910D02*
X0076209Y0122410D01*
X0076209Y0117410D01*
X0073709Y0114910D01*
X0068709Y0114910D01*
X0066209Y0117410D01*
X0066209Y0122410D01*
X0068709Y0124910D01*
X0069733Y0101131D02*
X0064733Y0101131D01*
X0062233Y0098631D01*
X0062233Y0083631D01*
X0064733Y0081131D01*
X0069733Y0081131D01*
X0072233Y0083631D01*
X0072233Y0098631D01*
X0074733Y0101131D01*
X0079733Y0101131D01*
X0082233Y0098631D01*
X0082233Y0083631D01*
X0084733Y0081131D01*
X0089733Y0081131D01*
X0092233Y0083631D01*
X0092233Y0098631D01*
X0094733Y0101131D01*
X0099733Y0101131D01*
X0102233Y0098631D01*
X0102233Y0083631D01*
X0099733Y0081131D01*
X0094733Y0081131D01*
X0092233Y0083631D01*
X0102233Y0083631D02*
X0104733Y0081131D01*
X0109733Y0081131D01*
X0112233Y0083631D01*
X0112233Y0098631D01*
X0114733Y0101131D01*
X0119733Y0101131D01*
X0122233Y0098631D01*
X0122233Y0083631D01*
X0119733Y0081131D01*
X0114733Y0081131D01*
X0112233Y0083631D01*
X0122233Y0083631D02*
X0124733Y0081131D01*
X0129733Y0081131D01*
X0132233Y0083631D01*
X0132233Y0098631D01*
X0134733Y0101131D01*
X0139733Y0101131D01*
X0142233Y0098631D01*
X0142233Y0083631D01*
X0139733Y0081131D01*
X0134733Y0081131D01*
X0132233Y0083631D01*
X0142233Y0083631D02*
X0144733Y0081131D01*
X0149733Y0081131D01*
X0152233Y0083631D01*
X0152233Y0098631D01*
X0154733Y0101131D01*
X0159733Y0101131D01*
X0162233Y0098631D01*
X0162233Y0083631D01*
X0159733Y0081131D01*
X0154733Y0081131D01*
X0152233Y0083631D01*
X0162233Y0083631D02*
X0164733Y0081131D01*
X0169733Y0081131D01*
X0172233Y0083631D01*
X0172233Y0098631D01*
X0174733Y0101131D01*
X0179733Y0101131D01*
X0182233Y0098631D01*
X0182233Y0083631D01*
X0179733Y0081131D01*
X0174733Y0081131D01*
X0172233Y0083631D01*
X0182233Y0083631D02*
X0184733Y0081131D01*
X0189733Y0081131D01*
X0192233Y0083631D01*
X0192233Y0098631D01*
X0194733Y0101131D01*
X0199733Y0101131D01*
X0202233Y0098631D01*
X0202233Y0083631D01*
X0199733Y0081131D01*
X0194733Y0081131D01*
X0192233Y0083631D01*
X0202233Y0083631D02*
X0204733Y0081131D01*
X0209733Y0081131D01*
X0212233Y0083631D01*
X0214733Y0081131D01*
X0219733Y0081131D01*
X0222233Y0083631D01*
X0224733Y0081131D01*
X0229733Y0081131D01*
X0232233Y0083631D01*
X0234733Y0081131D01*
X0239733Y0081131D01*
X0242233Y0083631D01*
X0244733Y0081131D01*
X0249733Y0081131D01*
X0252233Y0083631D01*
X0252233Y0098631D01*
X0249733Y0101131D01*
X0244733Y0101131D01*
X0242233Y0098631D01*
X0242233Y0083631D01*
X0232233Y0083631D02*
X0232233Y0098631D01*
X0234733Y0101131D01*
X0239733Y0101131D01*
X0242233Y0098631D01*
X0232233Y0098631D02*
X0229733Y0101131D01*
X0224733Y0101131D01*
X0222233Y0098631D01*
X0222233Y0083631D01*
X0212233Y0083631D02*
X0212233Y0098631D01*
X0214733Y0101131D01*
X0219733Y0101131D01*
X0222233Y0098631D01*
X0212233Y0098631D02*
X0209733Y0101131D01*
X0204733Y0101131D01*
X0202233Y0098631D01*
X0192233Y0098631D02*
X0189733Y0101131D01*
X0184733Y0101131D01*
X0182233Y0098631D01*
X0172233Y0098631D02*
X0169733Y0101131D01*
X0164733Y0101131D01*
X0162233Y0098631D01*
X0152233Y0098631D02*
X0149733Y0101131D01*
X0144733Y0101131D01*
X0142233Y0098631D01*
X0132233Y0098631D02*
X0129733Y0101131D01*
X0124733Y0101131D01*
X0122233Y0098631D01*
X0112233Y0098631D02*
X0109733Y0101131D01*
X0104733Y0101131D01*
X0102233Y0098631D01*
X0092233Y0098631D02*
X0089733Y0101131D01*
X0084733Y0101131D01*
X0082233Y0098631D01*
X0072233Y0098631D02*
X0069733Y0101131D01*
X0062233Y0098631D02*
X0059733Y0101131D01*
X0054733Y0101131D01*
X0052233Y0098631D01*
X0052233Y0083631D01*
X0054733Y0081131D01*
X0059733Y0081131D01*
X0062233Y0083631D01*
X0072233Y0083631D02*
X0074733Y0081131D01*
X0079733Y0081131D01*
X0082233Y0083631D01*
X0052233Y0083631D02*
X0049733Y0081131D01*
X0044733Y0081131D01*
X0042233Y0083631D01*
X0042233Y0098631D01*
X0044733Y0101131D01*
X0049733Y0101131D01*
X0052233Y0098631D01*
X0042233Y0098631D02*
X0039733Y0101131D01*
X0034733Y0101131D01*
X0032233Y0098631D01*
X0032233Y0083631D01*
X0034733Y0081131D01*
X0039733Y0081131D01*
X0042233Y0083631D01*
X0032233Y0083631D02*
X0029733Y0081131D01*
X0024733Y0081131D01*
X0022233Y0083631D01*
X0022233Y0098631D01*
X0024733Y0101131D01*
X0029733Y0101131D01*
X0032233Y0098631D01*
X0144334Y0136998D02*
X0158531Y0136998D01*
X0158531Y0155596D02*
X0144334Y0155596D01*
X0188139Y0047036D02*
X0188146Y0047616D01*
X0188167Y0048195D01*
X0188203Y0048774D01*
X0188253Y0049351D01*
X0188317Y0049928D01*
X0188395Y0050502D01*
X0188487Y0051074D01*
X0188593Y0051644D01*
X0188713Y0052212D01*
X0188847Y0052776D01*
X0188995Y0053336D01*
X0189156Y0053893D01*
X0189331Y0054446D01*
X0189520Y0054994D01*
X0189722Y0055537D01*
X0189937Y0056076D01*
X0190166Y0056609D01*
X0190407Y0057136D01*
X0190661Y0057657D01*
X0190928Y0058171D01*
X0191208Y0058679D01*
X0191500Y0059180D01*
X0191804Y0059674D01*
X0192120Y0060160D01*
X0192448Y0060638D01*
X0192788Y0061108D01*
X0193139Y0061569D01*
X0193501Y0062022D01*
X0193874Y0062465D01*
X0194258Y0062900D01*
X0194653Y0063324D01*
X0195058Y0063739D01*
X0195473Y0064144D01*
X0195897Y0064539D01*
X0196332Y0064923D01*
X0196775Y0065296D01*
X0197228Y0065658D01*
X0197689Y0066009D01*
X0198159Y0066349D01*
X0198637Y0066677D01*
X0199123Y0066993D01*
X0199617Y0067297D01*
X0200118Y0067589D01*
X0200626Y0067869D01*
X0201140Y0068136D01*
X0201661Y0068390D01*
X0202188Y0068631D01*
X0202721Y0068860D01*
X0203260Y0069075D01*
X0203803Y0069277D01*
X0204351Y0069466D01*
X0204904Y0069641D01*
X0205461Y0069802D01*
X0206021Y0069950D01*
X0206585Y0070084D01*
X0207153Y0070204D01*
X0207723Y0070310D01*
X0208295Y0070402D01*
X0208869Y0070480D01*
X0209446Y0070544D01*
X0210023Y0070594D01*
X0210602Y0070630D01*
X0211181Y0070651D01*
X0211761Y0070658D01*
X0212341Y0070651D01*
X0212920Y0070630D01*
X0213499Y0070594D01*
X0214076Y0070544D01*
X0214653Y0070480D01*
X0215227Y0070402D01*
X0215799Y0070310D01*
X0216369Y0070204D01*
X0216937Y0070084D01*
X0217501Y0069950D01*
X0218061Y0069802D01*
X0218618Y0069641D01*
X0219171Y0069466D01*
X0219719Y0069277D01*
X0220262Y0069075D01*
X0220801Y0068860D01*
X0221334Y0068631D01*
X0221861Y0068390D01*
X0222382Y0068136D01*
X0222896Y0067869D01*
X0223404Y0067589D01*
X0223905Y0067297D01*
X0224399Y0066993D01*
X0224885Y0066677D01*
X0225363Y0066349D01*
X0225833Y0066009D01*
X0226294Y0065658D01*
X0226747Y0065296D01*
X0227190Y0064923D01*
X0227625Y0064539D01*
X0228049Y0064144D01*
X0228464Y0063739D01*
X0228869Y0063324D01*
X0229264Y0062900D01*
X0229648Y0062465D01*
X0230021Y0062022D01*
X0230383Y0061569D01*
X0230734Y0061108D01*
X0231074Y0060638D01*
X0231402Y0060160D01*
X0231718Y0059674D01*
X0232022Y0059180D01*
X0232314Y0058679D01*
X0232594Y0058171D01*
X0232861Y0057657D01*
X0233115Y0057136D01*
X0233356Y0056609D01*
X0233585Y0056076D01*
X0233800Y0055537D01*
X0234002Y0054994D01*
X0234191Y0054446D01*
X0234366Y0053893D01*
X0234527Y0053336D01*
X0234675Y0052776D01*
X0234809Y0052212D01*
X0234929Y0051644D01*
X0235035Y0051074D01*
X0235127Y0050502D01*
X0235205Y0049928D01*
X0235269Y0049351D01*
X0235319Y0048774D01*
X0235355Y0048195D01*
X0235376Y0047616D01*
X0235383Y0047036D01*
X0235376Y0046456D01*
X0235355Y0045877D01*
X0235319Y0045298D01*
X0235269Y0044721D01*
X0235205Y0044144D01*
X0235127Y0043570D01*
X0235035Y0042998D01*
X0234929Y0042428D01*
X0234809Y0041860D01*
X0234675Y0041296D01*
X0234527Y0040736D01*
X0234366Y0040179D01*
X0234191Y0039626D01*
X0234002Y0039078D01*
X0233800Y0038535D01*
X0233585Y0037996D01*
X0233356Y0037463D01*
X0233115Y0036936D01*
X0232861Y0036415D01*
X0232594Y0035901D01*
X0232314Y0035393D01*
X0232022Y0034892D01*
X0231718Y0034398D01*
X0231402Y0033912D01*
X0231074Y0033434D01*
X0230734Y0032964D01*
X0230383Y0032503D01*
X0230021Y0032050D01*
X0229648Y0031607D01*
X0229264Y0031172D01*
X0228869Y0030748D01*
X0228464Y0030333D01*
X0228049Y0029928D01*
X0227625Y0029533D01*
X0227190Y0029149D01*
X0226747Y0028776D01*
X0226294Y0028414D01*
X0225833Y0028063D01*
X0225363Y0027723D01*
X0224885Y0027395D01*
X0224399Y0027079D01*
X0223905Y0026775D01*
X0223404Y0026483D01*
X0222896Y0026203D01*
X0222382Y0025936D01*
X0221861Y0025682D01*
X0221334Y0025441D01*
X0220801Y0025212D01*
X0220262Y0024997D01*
X0219719Y0024795D01*
X0219171Y0024606D01*
X0218618Y0024431D01*
X0218061Y0024270D01*
X0217501Y0024122D01*
X0216937Y0023988D01*
X0216369Y0023868D01*
X0215799Y0023762D01*
X0215227Y0023670D01*
X0214653Y0023592D01*
X0214076Y0023528D01*
X0213499Y0023478D01*
X0212920Y0023442D01*
X0212341Y0023421D01*
X0211761Y0023414D01*
X0211181Y0023421D01*
X0210602Y0023442D01*
X0210023Y0023478D01*
X0209446Y0023528D01*
X0208869Y0023592D01*
X0208295Y0023670D01*
X0207723Y0023762D01*
X0207153Y0023868D01*
X0206585Y0023988D01*
X0206021Y0024122D01*
X0205461Y0024270D01*
X0204904Y0024431D01*
X0204351Y0024606D01*
X0203803Y0024795D01*
X0203260Y0024997D01*
X0202721Y0025212D01*
X0202188Y0025441D01*
X0201661Y0025682D01*
X0201140Y0025936D01*
X0200626Y0026203D01*
X0200118Y0026483D01*
X0199617Y0026775D01*
X0199123Y0027079D01*
X0198637Y0027395D01*
X0198159Y0027723D01*
X0197689Y0028063D01*
X0197228Y0028414D01*
X0196775Y0028776D01*
X0196332Y0029149D01*
X0195897Y0029533D01*
X0195473Y0029928D01*
X0195058Y0030333D01*
X0194653Y0030748D01*
X0194258Y0031172D01*
X0193874Y0031607D01*
X0193501Y0032050D01*
X0193139Y0032503D01*
X0192788Y0032964D01*
X0192448Y0033434D01*
X0192120Y0033912D01*
X0191804Y0034398D01*
X0191500Y0034892D01*
X0191208Y0035393D01*
X0190928Y0035901D01*
X0190661Y0036415D01*
X0190407Y0036936D01*
X0190166Y0037463D01*
X0189937Y0037996D01*
X0189722Y0038535D01*
X0189520Y0039078D01*
X0189331Y0039626D01*
X0189156Y0040179D01*
X0188995Y0040736D01*
X0188847Y0041296D01*
X0188713Y0041860D01*
X0188593Y0042428D01*
X0188487Y0042998D01*
X0188395Y0043570D01*
X0188317Y0044144D01*
X0188253Y0044721D01*
X0188203Y0045298D01*
X0188167Y0045877D01*
X0188146Y0046456D01*
X0188139Y0047036D01*
D16*
X0131997Y0053454D02*
X0124910Y0053454D01*
X0124910Y0065658D01*
X0131997Y0065658D01*
X0131997Y0053454D01*
D17*
X0197000Y0055050D02*
X0200069Y0055050D01*
X0198535Y0056585D02*
X0198535Y0053515D01*
X0222591Y0055050D02*
X0225660Y0055050D01*
M02*
