G75*
%MOIN*%
%OFA0B0*%
%FSLAX25Y25*%
%IPPOS*%
%LPD*%
%AMOC8*
5,1,8,0,0,1.08239X$1,22.5*
%
%ADD10C,0.00000*%
%ADD11C,0.06600*%
%ADD12C,0.07400*%
%ADD13R,0.07000X0.07000*%
%ADD14C,0.07000*%
%ADD15OC8,0.06000*%
%ADD16C,0.06000*%
%ADD17C,0.00600*%
%ADD18C,0.02700*%
%ADD19C,0.01600*%
D10*
X0021800Y0021800D02*
X0021800Y0160501D01*
X0252745Y0160343D01*
X0252745Y0021800D01*
X0021800Y0021800D01*
D11*
X0037706Y0139989D03*
X0047706Y0139989D03*
X0201485Y0138217D03*
X0217233Y0138217D03*
D12*
X0054991Y0063891D03*
X0037191Y0063891D03*
X0037191Y0038291D03*
X0054991Y0038291D03*
D13*
X0198965Y0047036D03*
D14*
X0224556Y0047036D03*
D15*
X0227233Y0086131D03*
X0217233Y0086131D03*
X0207233Y0086131D03*
X0197233Y0086131D03*
X0187233Y0086131D03*
X0177233Y0086131D03*
X0167233Y0086131D03*
X0157233Y0086131D03*
X0147233Y0086131D03*
X0137233Y0086131D03*
X0127233Y0086131D03*
X0117233Y0086131D03*
X0107233Y0086131D03*
X0097233Y0086131D03*
X0087233Y0086131D03*
X0077233Y0086131D03*
X0067233Y0086131D03*
X0057233Y0086131D03*
X0047233Y0086131D03*
X0037233Y0086131D03*
X0027233Y0086131D03*
X0027233Y0096131D03*
X0037233Y0096131D03*
X0047233Y0096131D03*
X0057233Y0096131D03*
X0067233Y0096131D03*
X0077233Y0096131D03*
X0087233Y0096131D03*
X0097233Y0096131D03*
X0107233Y0096131D03*
X0117233Y0096131D03*
X0127233Y0096131D03*
X0137233Y0096131D03*
X0147233Y0096131D03*
X0157233Y0096131D03*
X0167233Y0096131D03*
X0177233Y0096131D03*
X0187233Y0096131D03*
X0197233Y0096131D03*
X0207233Y0096131D03*
X0217233Y0096131D03*
X0227233Y0096131D03*
X0237233Y0096131D03*
X0247233Y0096131D03*
X0247233Y0086131D03*
X0237233Y0086131D03*
D16*
X0074209Y0119910D02*
X0068209Y0119910D01*
X0068209Y0129910D02*
X0074209Y0129910D01*
X0074209Y0139910D02*
X0068209Y0139910D01*
D17*
X0102233Y0122469D02*
X0102233Y0091131D01*
X0132233Y0091131D01*
X0137233Y0086131D01*
X0152312Y0081209D02*
X0074202Y0081209D01*
X0074202Y0073454D01*
X0112233Y0076131D02*
X0112233Y0055816D01*
X0152312Y0081209D02*
X0157233Y0086131D01*
X0177233Y0096131D02*
X0201485Y0120383D01*
X0201485Y0138217D01*
D18*
X0112233Y0076131D03*
X0112233Y0055816D03*
X0074202Y0073454D03*
X0102233Y0122469D03*
D19*
X0099483Y0122506D02*
X0078256Y0122506D01*
X0078315Y0122426D02*
X0077871Y0123037D01*
X0077336Y0123571D01*
X0076725Y0124016D01*
X0076052Y0124359D01*
X0075333Y0124592D01*
X0074587Y0124710D01*
X0071409Y0124710D01*
X0071409Y0120110D01*
X0071009Y0120110D01*
X0071009Y0119710D01*
X0063409Y0119710D01*
X0063409Y0119532D01*
X0063528Y0118786D01*
X0063761Y0118068D01*
X0064104Y0117394D01*
X0064548Y0116783D01*
X0065082Y0116249D01*
X0065694Y0115805D01*
X0066367Y0115462D01*
X0067085Y0115228D01*
X0067832Y0115110D01*
X0071009Y0115110D01*
X0071009Y0119710D01*
X0071409Y0119710D01*
X0071409Y0115110D01*
X0074587Y0115110D01*
X0075333Y0115228D01*
X0076052Y0115462D01*
X0076725Y0115805D01*
X0077336Y0116249D01*
X0077871Y0116783D01*
X0078315Y0117394D01*
X0078658Y0118068D01*
X0078891Y0118786D01*
X0079009Y0119532D01*
X0079009Y0119710D01*
X0071410Y0119710D01*
X0071410Y0120110D01*
X0079009Y0120110D01*
X0079009Y0120288D01*
X0078891Y0121034D01*
X0078658Y0121753D01*
X0078315Y0122426D01*
X0078911Y0120908D02*
X0099906Y0120908D01*
X0099902Y0120912D02*
X0100533Y0120280D01*
X0100533Y0099053D01*
X0099056Y0100531D01*
X0095411Y0100531D01*
X0092833Y0097953D01*
X0092833Y0094308D01*
X0095411Y0091731D01*
X0099056Y0091731D01*
X0100533Y0093208D01*
X0100533Y0090427D01*
X0101529Y0089431D01*
X0104311Y0089431D01*
X0102833Y0087953D01*
X0102833Y0084308D01*
X0104232Y0082909D01*
X0100234Y0082909D01*
X0101633Y0084308D01*
X0101633Y0087953D01*
X0099056Y0090531D01*
X0095411Y0090531D01*
X0092833Y0087953D01*
X0092833Y0084308D01*
X0094232Y0082909D01*
X0090234Y0082909D01*
X0091633Y0084308D01*
X0091633Y0087953D01*
X0089056Y0090531D01*
X0085411Y0090531D01*
X0082833Y0087953D01*
X0082833Y0084308D01*
X0084232Y0082909D01*
X0080234Y0082909D01*
X0081633Y0084308D01*
X0081633Y0087953D01*
X0079056Y0090531D01*
X0075411Y0090531D01*
X0072833Y0087953D01*
X0072833Y0084308D01*
X0074232Y0082909D01*
X0073497Y0082909D01*
X0072502Y0081914D01*
X0072502Y0075643D01*
X0071870Y0075011D01*
X0071452Y0074001D01*
X0071452Y0072907D01*
X0071870Y0071896D01*
X0072644Y0071122D01*
X0073655Y0070704D01*
X0074749Y0070704D01*
X0075759Y0071122D01*
X0076533Y0071896D01*
X0076952Y0072907D01*
X0076952Y0074001D01*
X0076533Y0075011D01*
X0075902Y0075643D01*
X0075902Y0079509D01*
X0153016Y0079509D01*
X0154012Y0080505D01*
X0155324Y0081817D01*
X0155411Y0081731D01*
X0159056Y0081731D01*
X0161633Y0084308D01*
X0161633Y0087953D01*
X0159056Y0090531D01*
X0155411Y0090531D01*
X0152833Y0087953D01*
X0152833Y0084308D01*
X0152920Y0084222D01*
X0151608Y0082909D01*
X0150234Y0082909D01*
X0151633Y0084308D01*
X0151633Y0087953D01*
X0149056Y0090531D01*
X0145411Y0090531D01*
X0142833Y0087953D01*
X0142833Y0084308D01*
X0144232Y0082909D01*
X0140234Y0082909D01*
X0141633Y0084308D01*
X0141633Y0087953D01*
X0139056Y0090531D01*
X0135411Y0090531D01*
X0135324Y0090444D01*
X0133933Y0091835D01*
X0132937Y0092831D01*
X0130156Y0092831D01*
X0131633Y0094308D01*
X0131633Y0097953D01*
X0129056Y0100531D01*
X0125411Y0100531D01*
X0122833Y0097953D01*
X0122833Y0094308D01*
X0124311Y0092831D01*
X0120156Y0092831D01*
X0121633Y0094308D01*
X0121633Y0097953D01*
X0119056Y0100531D01*
X0115411Y0100531D01*
X0112833Y0097953D01*
X0112833Y0094308D01*
X0114311Y0092831D01*
X0110156Y0092831D01*
X0111633Y0094308D01*
X0111633Y0097953D01*
X0109056Y0100531D01*
X0105411Y0100531D01*
X0103933Y0099053D01*
X0103933Y0120280D01*
X0104564Y0120912D01*
X0104983Y0121922D01*
X0104983Y0123016D01*
X0104564Y0124027D01*
X0103791Y0124801D01*
X0102780Y0125219D01*
X0101686Y0125219D01*
X0100675Y0124801D01*
X0099902Y0124027D01*
X0099483Y0123016D01*
X0099483Y0121922D01*
X0099902Y0120912D01*
X0100533Y0119309D02*
X0078974Y0119309D01*
X0078476Y0117711D02*
X0100533Y0117711D01*
X0100533Y0116112D02*
X0077148Y0116112D01*
X0071409Y0116112D02*
X0071009Y0116112D01*
X0071009Y0117711D02*
X0071409Y0117711D01*
X0071409Y0119309D02*
X0071009Y0119309D01*
X0071009Y0120110D02*
X0063409Y0120110D01*
X0063409Y0120288D01*
X0063528Y0121034D01*
X0063761Y0121753D01*
X0064104Y0122426D01*
X0064548Y0123037D01*
X0065082Y0123571D01*
X0065694Y0124016D01*
X0066367Y0124359D01*
X0067085Y0124592D01*
X0067832Y0124710D01*
X0071009Y0124710D01*
X0071009Y0120110D01*
X0071009Y0120908D02*
X0071409Y0120908D01*
X0071409Y0122506D02*
X0071009Y0122506D01*
X0071009Y0124105D02*
X0071409Y0124105D01*
X0075085Y0125510D02*
X0067334Y0125510D01*
X0065717Y0126180D01*
X0064479Y0127418D01*
X0063809Y0129035D01*
X0063809Y0130785D01*
X0064479Y0132403D01*
X0065717Y0133640D01*
X0067334Y0134310D01*
X0075085Y0134310D01*
X0076702Y0133640D01*
X0077940Y0132403D01*
X0078609Y0130785D01*
X0078609Y0129035D01*
X0077940Y0127418D01*
X0076702Y0126180D01*
X0075085Y0125510D01*
X0075551Y0125703D02*
X0199785Y0125703D01*
X0199785Y0124105D02*
X0104487Y0124105D01*
X0104983Y0122506D02*
X0199785Y0122506D01*
X0199785Y0121087D02*
X0179142Y0100444D01*
X0179056Y0100531D01*
X0175411Y0100531D01*
X0172833Y0097953D01*
X0172833Y0094308D01*
X0175411Y0091731D01*
X0179056Y0091731D01*
X0181633Y0094308D01*
X0181633Y0097953D01*
X0181546Y0098040D01*
X0203185Y0119679D01*
X0203185Y0133834D01*
X0204147Y0134233D01*
X0205470Y0135555D01*
X0206185Y0137282D01*
X0206185Y0139152D01*
X0205470Y0140880D01*
X0204147Y0142202D01*
X0202420Y0142917D01*
X0200550Y0142917D01*
X0198823Y0142202D01*
X0197501Y0140880D01*
X0196785Y0139152D01*
X0196785Y0137282D01*
X0197501Y0135555D01*
X0198823Y0134233D01*
X0199785Y0133834D01*
X0199785Y0121087D01*
X0199606Y0120908D02*
X0104561Y0120908D01*
X0103933Y0119309D02*
X0198007Y0119309D01*
X0196409Y0117711D02*
X0103933Y0117711D01*
X0103933Y0116112D02*
X0194810Y0116112D01*
X0193212Y0114514D02*
X0103933Y0114514D01*
X0103933Y0112915D02*
X0191613Y0112915D01*
X0190015Y0111317D02*
X0103933Y0111317D01*
X0103933Y0109718D02*
X0188416Y0109718D01*
X0186818Y0108120D02*
X0103933Y0108120D01*
X0103933Y0106521D02*
X0185219Y0106521D01*
X0183621Y0104923D02*
X0103933Y0104923D01*
X0103933Y0103324D02*
X0182022Y0103324D01*
X0180424Y0101726D02*
X0103933Y0101726D01*
X0103933Y0100127D02*
X0105007Y0100127D01*
X0100533Y0100127D02*
X0099459Y0100127D01*
X0100533Y0101726D02*
X0024100Y0101726D01*
X0025245Y0100931D02*
X0024100Y0099786D01*
X0024100Y0158199D01*
X0250445Y0158045D01*
X0250445Y0099707D01*
X0249221Y0100931D01*
X0247433Y0100931D01*
X0247433Y0096331D01*
X0247033Y0096331D01*
X0247033Y0100931D01*
X0245245Y0100931D01*
X0242433Y0098119D01*
X0242433Y0096331D01*
X0247033Y0096331D01*
X0247033Y0095931D01*
X0242433Y0095931D01*
X0242433Y0094142D01*
X0245245Y0091331D01*
X0247033Y0091331D01*
X0247033Y0095931D01*
X0247433Y0095931D01*
X0247433Y0091331D01*
X0249221Y0091331D01*
X0250445Y0092554D01*
X0250445Y0089707D01*
X0249221Y0090931D01*
X0247433Y0090931D01*
X0247433Y0086331D01*
X0247033Y0086331D01*
X0247033Y0090931D01*
X0245245Y0090931D01*
X0242433Y0088119D01*
X0242433Y0086331D01*
X0247033Y0086331D01*
X0247033Y0085931D01*
X0242433Y0085931D01*
X0242433Y0084142D01*
X0245245Y0081331D01*
X0247033Y0081331D01*
X0247033Y0085931D01*
X0247433Y0085931D01*
X0247433Y0081331D01*
X0249221Y0081331D01*
X0250445Y0082554D01*
X0250445Y0024100D01*
X0024100Y0024100D01*
X0024100Y0082476D01*
X0025245Y0081331D01*
X0027033Y0081331D01*
X0027033Y0085931D01*
X0027433Y0085931D01*
X0027433Y0086331D01*
X0027033Y0086331D01*
X0027033Y0090931D01*
X0025245Y0090931D01*
X0024100Y0089786D01*
X0024100Y0092476D01*
X0025245Y0091331D01*
X0027033Y0091331D01*
X0027033Y0095931D01*
X0027433Y0095931D01*
X0027433Y0096331D01*
X0027033Y0096331D01*
X0027033Y0100931D01*
X0025245Y0100931D01*
X0024441Y0100127D02*
X0024100Y0100127D01*
X0027033Y0100127D02*
X0027433Y0100127D01*
X0027433Y0100931D02*
X0027433Y0096331D01*
X0032033Y0096331D01*
X0032033Y0098119D01*
X0029221Y0100931D01*
X0027433Y0100931D01*
X0027433Y0098529D02*
X0027033Y0098529D01*
X0027033Y0096930D02*
X0027433Y0096930D01*
X0027433Y0095931D02*
X0032033Y0095931D01*
X0032033Y0094142D01*
X0029221Y0091331D01*
X0027433Y0091331D01*
X0027433Y0095931D01*
X0027433Y0095332D02*
X0027033Y0095332D01*
X0027033Y0093733D02*
X0027433Y0093733D01*
X0027433Y0092134D02*
X0027033Y0092134D01*
X0027433Y0090931D02*
X0027433Y0086331D01*
X0032033Y0086331D01*
X0032033Y0088119D01*
X0029221Y0090931D01*
X0027433Y0090931D01*
X0027433Y0090536D02*
X0027033Y0090536D01*
X0027033Y0088937D02*
X0027433Y0088937D01*
X0027433Y0087339D02*
X0027033Y0087339D01*
X0027433Y0085931D02*
X0032033Y0085931D01*
X0032033Y0084142D01*
X0032999Y0084142D01*
X0032833Y0084308D02*
X0035411Y0081731D01*
X0039056Y0081731D01*
X0041633Y0084308D01*
X0041633Y0087953D01*
X0039056Y0090531D01*
X0035411Y0090531D01*
X0032833Y0087953D01*
X0032833Y0084308D01*
X0032033Y0084142D02*
X0029221Y0081331D01*
X0027433Y0081331D01*
X0027433Y0085931D01*
X0027433Y0085740D02*
X0027033Y0085740D01*
X0027033Y0084142D02*
X0027433Y0084142D01*
X0027433Y0082543D02*
X0027033Y0082543D01*
X0024100Y0080945D02*
X0072502Y0080945D01*
X0072502Y0079346D02*
X0024100Y0079346D01*
X0024100Y0077748D02*
X0072502Y0077748D01*
X0072502Y0076149D02*
X0024100Y0076149D01*
X0024100Y0074551D02*
X0071680Y0074551D01*
X0071452Y0072952D02*
X0024100Y0072952D01*
X0024100Y0071354D02*
X0072412Y0071354D01*
X0075991Y0071354D02*
X0110533Y0071354D01*
X0110533Y0072952D02*
X0076952Y0072952D01*
X0076724Y0074551D02*
X0109924Y0074551D01*
X0109902Y0074573D02*
X0110533Y0073942D01*
X0110533Y0058005D01*
X0109902Y0057373D01*
X0109483Y0056363D01*
X0109483Y0055269D01*
X0109902Y0054258D01*
X0110675Y0053484D01*
X0111686Y0053066D01*
X0112780Y0053066D01*
X0113791Y0053484D01*
X0114564Y0054258D01*
X0114983Y0055269D01*
X0114983Y0056363D01*
X0114564Y0057373D01*
X0113933Y0058005D01*
X0113933Y0073942D01*
X0114564Y0074573D01*
X0114983Y0075584D01*
X0114983Y0076678D01*
X0114564Y0077688D01*
X0113791Y0078462D01*
X0112780Y0078881D01*
X0111686Y0078881D01*
X0110675Y0078462D01*
X0109902Y0077688D01*
X0109483Y0076678D01*
X0109483Y0075584D01*
X0109902Y0074573D01*
X0109483Y0076149D02*
X0075902Y0076149D01*
X0075902Y0077748D02*
X0109961Y0077748D01*
X0114505Y0077748D02*
X0250445Y0077748D01*
X0250445Y0079346D02*
X0075902Y0079346D01*
X0073131Y0082543D02*
X0069868Y0082543D01*
X0069056Y0081731D02*
X0071633Y0084308D01*
X0071633Y0087953D01*
X0069056Y0090531D01*
X0065411Y0090531D01*
X0062833Y0087953D01*
X0062833Y0084308D01*
X0065411Y0081731D01*
X0069056Y0081731D01*
X0071467Y0084142D02*
X0072999Y0084142D01*
X0072833Y0085740D02*
X0071633Y0085740D01*
X0071633Y0087339D02*
X0072833Y0087339D01*
X0073817Y0088937D02*
X0070649Y0088937D01*
X0069056Y0091731D02*
X0071633Y0094308D01*
X0071633Y0097953D01*
X0069056Y0100531D01*
X0065411Y0100531D01*
X0062833Y0097953D01*
X0062833Y0094308D01*
X0065411Y0091731D01*
X0069056Y0091731D01*
X0069459Y0092134D02*
X0075007Y0092134D01*
X0075411Y0091731D02*
X0072833Y0094308D01*
X0072833Y0097953D01*
X0075411Y0100531D01*
X0079056Y0100531D01*
X0081633Y0097953D01*
X0081633Y0094308D01*
X0079056Y0091731D01*
X0075411Y0091731D01*
X0079459Y0092134D02*
X0085007Y0092134D01*
X0085411Y0091731D02*
X0082833Y0094308D01*
X0082833Y0097953D01*
X0085411Y0100531D01*
X0089056Y0100531D01*
X0091633Y0097953D01*
X0091633Y0094308D01*
X0089056Y0091731D01*
X0085411Y0091731D01*
X0083817Y0088937D02*
X0080649Y0088937D01*
X0081633Y0087339D02*
X0082833Y0087339D01*
X0082833Y0085740D02*
X0081633Y0085740D01*
X0081467Y0084142D02*
X0082999Y0084142D01*
X0091467Y0084142D02*
X0092999Y0084142D01*
X0092833Y0085740D02*
X0091633Y0085740D01*
X0091633Y0087339D02*
X0092833Y0087339D01*
X0093817Y0088937D02*
X0090649Y0088937D01*
X0089459Y0092134D02*
X0095007Y0092134D01*
X0093408Y0093733D02*
X0091058Y0093733D01*
X0091633Y0095332D02*
X0092833Y0095332D01*
X0092833Y0096930D02*
X0091633Y0096930D01*
X0091058Y0098529D02*
X0093408Y0098529D01*
X0095007Y0100127D02*
X0089459Y0100127D01*
X0085007Y0100127D02*
X0079459Y0100127D01*
X0081058Y0098529D02*
X0083408Y0098529D01*
X0082833Y0096930D02*
X0081633Y0096930D01*
X0081633Y0095332D02*
X0082833Y0095332D01*
X0083408Y0093733D02*
X0081058Y0093733D01*
X0073408Y0093733D02*
X0071058Y0093733D01*
X0071633Y0095332D02*
X0072833Y0095332D01*
X0072833Y0096930D02*
X0071633Y0096930D01*
X0071058Y0098529D02*
X0073408Y0098529D01*
X0075007Y0100127D02*
X0069459Y0100127D01*
X0065007Y0100127D02*
X0059459Y0100127D01*
X0059056Y0100531D02*
X0055411Y0100531D01*
X0052833Y0097953D01*
X0052833Y0094308D01*
X0055411Y0091731D01*
X0059056Y0091731D01*
X0061633Y0094308D01*
X0061633Y0097953D01*
X0059056Y0100531D01*
X0061058Y0098529D02*
X0063408Y0098529D01*
X0062833Y0096930D02*
X0061633Y0096930D01*
X0061633Y0095332D02*
X0062833Y0095332D01*
X0063408Y0093733D02*
X0061058Y0093733D01*
X0059459Y0092134D02*
X0065007Y0092134D01*
X0063817Y0088937D02*
X0060649Y0088937D01*
X0061633Y0087953D02*
X0059056Y0090531D01*
X0055411Y0090531D01*
X0052833Y0087953D01*
X0052833Y0084308D01*
X0055411Y0081731D01*
X0059056Y0081731D01*
X0061633Y0084308D01*
X0061633Y0087953D01*
X0061633Y0087339D02*
X0062833Y0087339D01*
X0062833Y0085740D02*
X0061633Y0085740D01*
X0061467Y0084142D02*
X0062999Y0084142D01*
X0064598Y0082543D02*
X0059868Y0082543D01*
X0054598Y0082543D02*
X0049868Y0082543D01*
X0049056Y0081731D02*
X0051633Y0084308D01*
X0051633Y0087953D01*
X0049056Y0090531D01*
X0045411Y0090531D01*
X0042833Y0087953D01*
X0042833Y0084308D01*
X0045411Y0081731D01*
X0049056Y0081731D01*
X0051467Y0084142D02*
X0052999Y0084142D01*
X0052833Y0085740D02*
X0051633Y0085740D01*
X0051633Y0087339D02*
X0052833Y0087339D01*
X0053817Y0088937D02*
X0050649Y0088937D01*
X0049056Y0091731D02*
X0051633Y0094308D01*
X0051633Y0097953D01*
X0049056Y0100531D01*
X0045411Y0100531D01*
X0042833Y0097953D01*
X0042833Y0094308D01*
X0045411Y0091731D01*
X0049056Y0091731D01*
X0049459Y0092134D02*
X0055007Y0092134D01*
X0053408Y0093733D02*
X0051058Y0093733D01*
X0051633Y0095332D02*
X0052833Y0095332D01*
X0052833Y0096930D02*
X0051633Y0096930D01*
X0051058Y0098529D02*
X0053408Y0098529D01*
X0055007Y0100127D02*
X0049459Y0100127D01*
X0045007Y0100127D02*
X0039459Y0100127D01*
X0039056Y0100531D02*
X0035411Y0100531D01*
X0032833Y0097953D01*
X0032833Y0094308D01*
X0035411Y0091731D01*
X0039056Y0091731D01*
X0041633Y0094308D01*
X0041633Y0097953D01*
X0039056Y0100531D01*
X0041058Y0098529D02*
X0043408Y0098529D01*
X0042833Y0096930D02*
X0041633Y0096930D01*
X0041633Y0095332D02*
X0042833Y0095332D01*
X0043408Y0093733D02*
X0041058Y0093733D01*
X0039459Y0092134D02*
X0045007Y0092134D01*
X0043817Y0088937D02*
X0040649Y0088937D01*
X0041633Y0087339D02*
X0042833Y0087339D01*
X0042833Y0085740D02*
X0041633Y0085740D01*
X0041467Y0084142D02*
X0042999Y0084142D01*
X0044598Y0082543D02*
X0039868Y0082543D01*
X0034598Y0082543D02*
X0030434Y0082543D01*
X0032033Y0085740D02*
X0032833Y0085740D01*
X0032833Y0087339D02*
X0032033Y0087339D01*
X0031215Y0088937D02*
X0033817Y0088937D01*
X0035007Y0092134D02*
X0030025Y0092134D01*
X0029616Y0090536D02*
X0100533Y0090536D01*
X0100533Y0092134D02*
X0099459Y0092134D01*
X0100649Y0088937D02*
X0103817Y0088937D01*
X0102833Y0087339D02*
X0101633Y0087339D01*
X0101633Y0085740D02*
X0102833Y0085740D01*
X0102999Y0084142D02*
X0101467Y0084142D01*
X0114983Y0076149D02*
X0250445Y0076149D01*
X0250445Y0074551D02*
X0114542Y0074551D01*
X0113933Y0072952D02*
X0250445Y0072952D01*
X0250445Y0071354D02*
X0113933Y0071354D01*
X0113933Y0069755D02*
X0250445Y0069755D01*
X0250445Y0068157D02*
X0113933Y0068157D01*
X0113933Y0066558D02*
X0250445Y0066558D01*
X0250445Y0064960D02*
X0113933Y0064960D01*
X0113933Y0063361D02*
X0250445Y0063361D01*
X0250445Y0061763D02*
X0113933Y0061763D01*
X0113933Y0060164D02*
X0250445Y0060164D01*
X0250445Y0058566D02*
X0113933Y0058566D01*
X0114733Y0056967D02*
X0250445Y0056967D01*
X0250445Y0055369D02*
X0114983Y0055369D01*
X0114077Y0053770D02*
X0250445Y0053770D01*
X0250445Y0052172D02*
X0225902Y0052172D01*
X0225797Y0052206D02*
X0224973Y0052336D01*
X0224556Y0052336D01*
X0224556Y0047036D01*
X0224556Y0041736D01*
X0224973Y0041736D01*
X0225797Y0041867D01*
X0226590Y0042125D01*
X0227334Y0042503D01*
X0228009Y0042994D01*
X0228599Y0043584D01*
X0229089Y0044258D01*
X0229468Y0045002D01*
X0229725Y0045795D01*
X0229856Y0046619D01*
X0229856Y0047036D01*
X0224556Y0047036D01*
X0224556Y0047036D01*
X0224556Y0047036D01*
X0224556Y0041736D01*
X0224139Y0041736D01*
X0223315Y0041867D01*
X0222521Y0042125D01*
X0221778Y0042503D01*
X0221103Y0042994D01*
X0220513Y0043584D01*
X0220023Y0044258D01*
X0219644Y0045002D01*
X0219386Y0045795D01*
X0219256Y0046619D01*
X0219256Y0047036D01*
X0224556Y0047036D01*
X0229856Y0047036D01*
X0229856Y0047453D01*
X0229725Y0048277D01*
X0229468Y0049071D01*
X0229089Y0049814D01*
X0228599Y0050489D01*
X0228009Y0051079D01*
X0227334Y0051569D01*
X0226590Y0051948D01*
X0225797Y0052206D01*
X0224556Y0052172D02*
X0224556Y0052172D01*
X0224556Y0052336D02*
X0224139Y0052336D01*
X0223315Y0052206D01*
X0222521Y0051948D01*
X0221778Y0051569D01*
X0221103Y0051079D01*
X0220513Y0050489D01*
X0220023Y0049814D01*
X0219644Y0049071D01*
X0219386Y0048277D01*
X0219256Y0047453D01*
X0219256Y0047036D01*
X0224556Y0047036D01*
X0224556Y0047036D01*
X0224556Y0047036D01*
X0224556Y0052336D01*
X0223210Y0052172D02*
X0024100Y0052172D01*
X0024100Y0053770D02*
X0110390Y0053770D01*
X0109483Y0055369D02*
X0024100Y0055369D01*
X0024100Y0056967D02*
X0109733Y0056967D01*
X0110533Y0058566D02*
X0024100Y0058566D01*
X0024100Y0060164D02*
X0033706Y0060164D01*
X0034302Y0059568D02*
X0036177Y0058791D01*
X0038206Y0058791D01*
X0040080Y0059568D01*
X0041515Y0061002D01*
X0042291Y0062877D01*
X0042291Y0064906D01*
X0041515Y0066780D01*
X0040080Y0068215D01*
X0038206Y0068991D01*
X0036177Y0068991D01*
X0034302Y0068215D01*
X0032868Y0066780D01*
X0032091Y0064906D01*
X0032091Y0062877D01*
X0032868Y0061002D01*
X0034302Y0059568D01*
X0032553Y0061763D02*
X0024100Y0061763D01*
X0024100Y0063361D02*
X0032091Y0063361D01*
X0032114Y0064960D02*
X0024100Y0064960D01*
X0024100Y0066558D02*
X0032776Y0066558D01*
X0034244Y0068157D02*
X0024100Y0068157D01*
X0024100Y0069755D02*
X0110533Y0069755D01*
X0110533Y0068157D02*
X0057938Y0068157D01*
X0057880Y0068215D02*
X0056006Y0068991D01*
X0053977Y0068991D01*
X0052102Y0068215D01*
X0050668Y0066780D01*
X0049891Y0064906D01*
X0049891Y0062877D01*
X0050668Y0061002D01*
X0052102Y0059568D01*
X0053977Y0058791D01*
X0056006Y0058791D01*
X0057880Y0059568D01*
X0059315Y0061002D01*
X0060091Y0062877D01*
X0060091Y0064906D01*
X0059315Y0066780D01*
X0057880Y0068215D01*
X0059407Y0066558D02*
X0110533Y0066558D01*
X0110533Y0064960D02*
X0060069Y0064960D01*
X0060091Y0063361D02*
X0110533Y0063361D01*
X0110533Y0061763D02*
X0059630Y0061763D01*
X0058477Y0060164D02*
X0110533Y0060164D01*
X0141467Y0084142D02*
X0142999Y0084142D01*
X0142833Y0085740D02*
X0141633Y0085740D01*
X0141633Y0087339D02*
X0142833Y0087339D01*
X0143817Y0088937D02*
X0140649Y0088937D01*
X0139056Y0091731D02*
X0141633Y0094308D01*
X0141633Y0097953D01*
X0139056Y0100531D01*
X0135411Y0100531D01*
X0132833Y0097953D01*
X0132833Y0094308D01*
X0135411Y0091731D01*
X0139056Y0091731D01*
X0139459Y0092134D02*
X0145007Y0092134D01*
X0145411Y0091731D02*
X0142833Y0094308D01*
X0142833Y0097953D01*
X0145411Y0100531D01*
X0149056Y0100531D01*
X0151633Y0097953D01*
X0151633Y0094308D01*
X0149056Y0091731D01*
X0145411Y0091731D01*
X0149459Y0092134D02*
X0155007Y0092134D01*
X0155411Y0091731D02*
X0152833Y0094308D01*
X0152833Y0097953D01*
X0155411Y0100531D01*
X0159056Y0100531D01*
X0161633Y0097953D01*
X0161633Y0094308D01*
X0159056Y0091731D01*
X0155411Y0091731D01*
X0153817Y0088937D02*
X0150649Y0088937D01*
X0151633Y0087339D02*
X0152833Y0087339D01*
X0152833Y0085740D02*
X0151633Y0085740D01*
X0151467Y0084142D02*
X0152840Y0084142D01*
X0154451Y0080945D02*
X0250445Y0080945D01*
X0250434Y0082543D02*
X0250445Y0082543D01*
X0247433Y0082543D02*
X0247033Y0082543D01*
X0247033Y0084142D02*
X0247433Y0084142D01*
X0247433Y0085740D02*
X0247033Y0085740D01*
X0247033Y0087339D02*
X0247433Y0087339D01*
X0247433Y0088937D02*
X0247033Y0088937D01*
X0247033Y0090536D02*
X0247433Y0090536D01*
X0247433Y0092134D02*
X0247033Y0092134D01*
X0247033Y0093733D02*
X0247433Y0093733D01*
X0247433Y0095332D02*
X0247033Y0095332D01*
X0247033Y0096930D02*
X0247433Y0096930D01*
X0247433Y0098529D02*
X0247033Y0098529D01*
X0247033Y0100127D02*
X0247433Y0100127D01*
X0250025Y0100127D02*
X0250445Y0100127D01*
X0250445Y0101726D02*
X0185232Y0101726D01*
X0185411Y0100531D02*
X0182833Y0097953D01*
X0182833Y0094308D01*
X0185411Y0091731D01*
X0189056Y0091731D01*
X0191633Y0094308D01*
X0191633Y0097953D01*
X0189056Y0100531D01*
X0185411Y0100531D01*
X0185007Y0100127D02*
X0183634Y0100127D01*
X0183408Y0098529D02*
X0182035Y0098529D01*
X0181633Y0096930D02*
X0182833Y0096930D01*
X0182833Y0095332D02*
X0181633Y0095332D01*
X0181058Y0093733D02*
X0183408Y0093733D01*
X0185007Y0092134D02*
X0179459Y0092134D01*
X0179056Y0090531D02*
X0175411Y0090531D01*
X0172833Y0087953D01*
X0172833Y0084308D01*
X0175411Y0081731D01*
X0179056Y0081731D01*
X0181633Y0084308D01*
X0181633Y0087953D01*
X0179056Y0090531D01*
X0180649Y0088937D02*
X0183817Y0088937D01*
X0182833Y0087953D02*
X0182833Y0084308D01*
X0185411Y0081731D01*
X0189056Y0081731D01*
X0191633Y0084308D01*
X0191633Y0087953D01*
X0189056Y0090531D01*
X0185411Y0090531D01*
X0182833Y0087953D01*
X0182833Y0087339D02*
X0181633Y0087339D01*
X0181633Y0085740D02*
X0182833Y0085740D01*
X0182999Y0084142D02*
X0181467Y0084142D01*
X0179868Y0082543D02*
X0184598Y0082543D01*
X0189868Y0082543D02*
X0194598Y0082543D01*
X0195411Y0081731D02*
X0192833Y0084308D01*
X0192833Y0087953D01*
X0195411Y0090531D01*
X0199056Y0090531D01*
X0201633Y0087953D01*
X0201633Y0084308D01*
X0199056Y0081731D01*
X0195411Y0081731D01*
X0192999Y0084142D02*
X0191467Y0084142D01*
X0191633Y0085740D02*
X0192833Y0085740D01*
X0192833Y0087339D02*
X0191633Y0087339D01*
X0190649Y0088937D02*
X0193817Y0088937D01*
X0195411Y0091731D02*
X0199056Y0091731D01*
X0201633Y0094308D01*
X0201633Y0097953D01*
X0199056Y0100531D01*
X0195411Y0100531D01*
X0192833Y0097953D01*
X0192833Y0094308D01*
X0195411Y0091731D01*
X0195007Y0092134D02*
X0189459Y0092134D01*
X0191058Y0093733D02*
X0193408Y0093733D01*
X0192833Y0095332D02*
X0191633Y0095332D01*
X0191633Y0096930D02*
X0192833Y0096930D01*
X0193408Y0098529D02*
X0191058Y0098529D01*
X0189459Y0100127D02*
X0195007Y0100127D01*
X0199459Y0100127D02*
X0205007Y0100127D01*
X0205411Y0100531D02*
X0202833Y0097953D01*
X0202833Y0094308D01*
X0205411Y0091731D01*
X0209056Y0091731D01*
X0211633Y0094308D01*
X0211633Y0097953D01*
X0209056Y0100531D01*
X0205411Y0100531D01*
X0203408Y0098529D02*
X0201058Y0098529D01*
X0201633Y0096930D02*
X0202833Y0096930D01*
X0202833Y0095332D02*
X0201633Y0095332D01*
X0201058Y0093733D02*
X0203408Y0093733D01*
X0205007Y0092134D02*
X0199459Y0092134D01*
X0200649Y0088937D02*
X0203817Y0088937D01*
X0202833Y0087953D02*
X0202833Y0084308D01*
X0205411Y0081731D01*
X0209056Y0081731D01*
X0211633Y0084308D01*
X0211633Y0087953D01*
X0209056Y0090531D01*
X0205411Y0090531D01*
X0202833Y0087953D01*
X0202833Y0087339D02*
X0201633Y0087339D01*
X0201633Y0085740D02*
X0202833Y0085740D01*
X0202999Y0084142D02*
X0201467Y0084142D01*
X0199868Y0082543D02*
X0204598Y0082543D01*
X0209868Y0082543D02*
X0214598Y0082543D01*
X0215411Y0081731D02*
X0219056Y0081731D01*
X0221633Y0084308D01*
X0221633Y0087953D01*
X0219056Y0090531D01*
X0215411Y0090531D01*
X0212833Y0087953D01*
X0212833Y0084308D01*
X0215411Y0081731D01*
X0212999Y0084142D02*
X0211467Y0084142D01*
X0211633Y0085740D02*
X0212833Y0085740D01*
X0212833Y0087339D02*
X0211633Y0087339D01*
X0210649Y0088937D02*
X0213817Y0088937D01*
X0215411Y0091731D02*
X0219056Y0091731D01*
X0221633Y0094308D01*
X0221633Y0097953D01*
X0219056Y0100531D01*
X0215411Y0100531D01*
X0212833Y0097953D01*
X0212833Y0094308D01*
X0215411Y0091731D01*
X0215007Y0092134D02*
X0209459Y0092134D01*
X0211058Y0093733D02*
X0213408Y0093733D01*
X0212833Y0095332D02*
X0211633Y0095332D01*
X0211633Y0096930D02*
X0212833Y0096930D01*
X0213408Y0098529D02*
X0211058Y0098529D01*
X0209459Y0100127D02*
X0215007Y0100127D01*
X0219459Y0100127D02*
X0225007Y0100127D01*
X0225411Y0100531D02*
X0222833Y0097953D01*
X0222833Y0094308D01*
X0225411Y0091731D01*
X0229056Y0091731D01*
X0231633Y0094308D01*
X0231633Y0097953D01*
X0229056Y0100531D01*
X0225411Y0100531D01*
X0223408Y0098529D02*
X0221058Y0098529D01*
X0221633Y0096930D02*
X0222833Y0096930D01*
X0222833Y0095332D02*
X0221633Y0095332D01*
X0221058Y0093733D02*
X0223408Y0093733D01*
X0225007Y0092134D02*
X0219459Y0092134D01*
X0220649Y0088937D02*
X0223817Y0088937D01*
X0222833Y0087953D02*
X0222833Y0084308D01*
X0225411Y0081731D01*
X0229056Y0081731D01*
X0231633Y0084308D01*
X0231633Y0087953D01*
X0229056Y0090531D01*
X0225411Y0090531D01*
X0222833Y0087953D01*
X0222833Y0087339D02*
X0221633Y0087339D01*
X0221633Y0085740D02*
X0222833Y0085740D01*
X0222999Y0084142D02*
X0221467Y0084142D01*
X0219868Y0082543D02*
X0224598Y0082543D01*
X0229868Y0082543D02*
X0234032Y0082543D01*
X0235245Y0081331D02*
X0237033Y0081331D01*
X0237033Y0085931D01*
X0232433Y0085931D01*
X0232433Y0084142D01*
X0235245Y0081331D01*
X0237033Y0082543D02*
X0237433Y0082543D01*
X0237433Y0081331D02*
X0239221Y0081331D01*
X0242033Y0084142D01*
X0242434Y0084142D01*
X0242033Y0084142D02*
X0242033Y0085931D01*
X0237433Y0085931D01*
X0237433Y0086331D01*
X0237033Y0086331D01*
X0237033Y0090931D01*
X0235245Y0090931D01*
X0232433Y0088119D01*
X0232433Y0086331D01*
X0237033Y0086331D01*
X0237033Y0085931D01*
X0237433Y0085931D01*
X0237433Y0081331D01*
X0237433Y0084142D02*
X0237033Y0084142D01*
X0237033Y0085740D02*
X0237433Y0085740D01*
X0237433Y0086331D02*
X0242033Y0086331D01*
X0242033Y0088119D01*
X0239221Y0090931D01*
X0237433Y0090931D01*
X0237433Y0086331D01*
X0237433Y0087339D02*
X0237033Y0087339D01*
X0237033Y0088937D02*
X0237433Y0088937D01*
X0237433Y0090536D02*
X0237033Y0090536D01*
X0237033Y0091331D02*
X0237033Y0095931D01*
X0232433Y0095931D01*
X0232433Y0094142D01*
X0235245Y0091331D01*
X0237033Y0091331D01*
X0237433Y0091331D02*
X0239221Y0091331D01*
X0242033Y0094142D01*
X0242033Y0095931D01*
X0237433Y0095931D01*
X0237433Y0096331D01*
X0237033Y0096331D01*
X0237033Y0100931D01*
X0235245Y0100931D01*
X0232433Y0098119D01*
X0232433Y0096331D01*
X0237033Y0096331D01*
X0237033Y0095931D01*
X0237433Y0095931D01*
X0237433Y0091331D01*
X0237433Y0092134D02*
X0237033Y0092134D01*
X0237033Y0093733D02*
X0237433Y0093733D01*
X0237433Y0095332D02*
X0237033Y0095332D01*
X0237433Y0096331D02*
X0242033Y0096331D01*
X0242033Y0098119D01*
X0239221Y0100931D01*
X0237433Y0100931D01*
X0237433Y0096331D01*
X0237433Y0096930D02*
X0237033Y0096930D01*
X0237033Y0098529D02*
X0237433Y0098529D01*
X0237433Y0100127D02*
X0237033Y0100127D01*
X0234441Y0100127D02*
X0229459Y0100127D01*
X0231058Y0098529D02*
X0232843Y0098529D01*
X0232433Y0096930D02*
X0231633Y0096930D01*
X0231633Y0095332D02*
X0232433Y0095332D01*
X0232843Y0093733D02*
X0231058Y0093733D01*
X0229459Y0092134D02*
X0234441Y0092134D01*
X0234850Y0090536D02*
X0135232Y0090536D01*
X0135007Y0092134D02*
X0133633Y0092134D01*
X0133408Y0093733D02*
X0131058Y0093733D01*
X0131633Y0095332D02*
X0132833Y0095332D01*
X0132833Y0096930D02*
X0131633Y0096930D01*
X0131058Y0098529D02*
X0133408Y0098529D01*
X0135007Y0100127D02*
X0129459Y0100127D01*
X0125007Y0100127D02*
X0119459Y0100127D01*
X0121058Y0098529D02*
X0123408Y0098529D01*
X0122833Y0096930D02*
X0121633Y0096930D01*
X0121633Y0095332D02*
X0122833Y0095332D01*
X0123408Y0093733D02*
X0121058Y0093733D01*
X0113408Y0093733D02*
X0111058Y0093733D01*
X0111633Y0095332D02*
X0112833Y0095332D01*
X0112833Y0096930D02*
X0111633Y0096930D01*
X0111058Y0098529D02*
X0113408Y0098529D01*
X0115007Y0100127D02*
X0109459Y0100127D01*
X0100533Y0103324D02*
X0024100Y0103324D01*
X0024100Y0104923D02*
X0100533Y0104923D01*
X0100533Y0106521D02*
X0024100Y0106521D01*
X0024100Y0108120D02*
X0100533Y0108120D01*
X0100533Y0109718D02*
X0024100Y0109718D01*
X0024100Y0111317D02*
X0100533Y0111317D01*
X0100533Y0112915D02*
X0024100Y0112915D01*
X0024100Y0114514D02*
X0100533Y0114514D01*
X0099979Y0124105D02*
X0076550Y0124105D01*
X0077823Y0127302D02*
X0199785Y0127302D01*
X0199785Y0128900D02*
X0078554Y0128900D01*
X0078609Y0130499D02*
X0199785Y0130499D01*
X0199785Y0132097D02*
X0078066Y0132097D01*
X0076568Y0133696D02*
X0199785Y0133696D01*
X0197761Y0135294D02*
X0048653Y0135294D01*
X0048640Y0135289D02*
X0050368Y0136005D01*
X0051690Y0137327D01*
X0052405Y0139054D01*
X0052405Y0140924D01*
X0051690Y0142651D01*
X0050368Y0143973D01*
X0048640Y0144689D01*
X0046771Y0144689D01*
X0045043Y0143973D01*
X0043721Y0142651D01*
X0043006Y0140924D01*
X0043006Y0139054D01*
X0043721Y0137327D01*
X0045043Y0136005D01*
X0046771Y0135289D01*
X0048640Y0135289D01*
X0046758Y0135294D02*
X0038653Y0135294D01*
X0038640Y0135289D02*
X0040368Y0136005D01*
X0041690Y0137327D01*
X0042405Y0139054D01*
X0042405Y0140924D01*
X0041690Y0142651D01*
X0040368Y0143973D01*
X0038640Y0144689D01*
X0036771Y0144689D01*
X0035043Y0143973D01*
X0033721Y0142651D01*
X0033006Y0140924D01*
X0033006Y0139054D01*
X0033721Y0137327D01*
X0035043Y0136005D01*
X0036771Y0135289D01*
X0038640Y0135289D01*
X0036758Y0135294D02*
X0024100Y0135294D01*
X0024100Y0133696D02*
X0065851Y0133696D01*
X0064353Y0132097D02*
X0024100Y0132097D01*
X0024100Y0130499D02*
X0063809Y0130499D01*
X0063865Y0128900D02*
X0024100Y0128900D01*
X0024100Y0127302D02*
X0064595Y0127302D01*
X0066868Y0125703D02*
X0024100Y0125703D01*
X0024100Y0124105D02*
X0065869Y0124105D01*
X0064162Y0122506D02*
X0024100Y0122506D01*
X0024100Y0120908D02*
X0063508Y0120908D01*
X0063445Y0119309D02*
X0024100Y0119309D01*
X0024100Y0117711D02*
X0063943Y0117711D01*
X0065271Y0116112D02*
X0024100Y0116112D01*
X0030025Y0100127D02*
X0035007Y0100127D01*
X0033408Y0098529D02*
X0031623Y0098529D01*
X0032033Y0096930D02*
X0032833Y0096930D01*
X0032833Y0095332D02*
X0032033Y0095332D01*
X0031624Y0093733D02*
X0033408Y0093733D01*
X0024441Y0092134D02*
X0024100Y0092134D01*
X0024100Y0090536D02*
X0024850Y0090536D01*
X0040138Y0068157D02*
X0052044Y0068157D01*
X0050576Y0066558D02*
X0041607Y0066558D01*
X0042269Y0064960D02*
X0049914Y0064960D01*
X0049891Y0063361D02*
X0042291Y0063361D01*
X0041830Y0061763D02*
X0050353Y0061763D01*
X0051506Y0060164D02*
X0040677Y0060164D01*
X0024100Y0050573D02*
X0194065Y0050573D01*
X0194065Y0051116D02*
X0194065Y0042956D01*
X0194885Y0042136D01*
X0203045Y0042136D01*
X0203865Y0042956D01*
X0203865Y0051116D01*
X0203045Y0051936D01*
X0194885Y0051936D01*
X0194065Y0051116D01*
X0194065Y0048975D02*
X0024100Y0048975D01*
X0024100Y0047376D02*
X0194065Y0047376D01*
X0194065Y0045778D02*
X0024100Y0045778D01*
X0024100Y0044179D02*
X0194065Y0044179D01*
X0194441Y0042581D02*
X0057915Y0042581D01*
X0057880Y0042615D02*
X0056006Y0043391D01*
X0053977Y0043391D01*
X0052102Y0042615D01*
X0050668Y0041180D01*
X0049891Y0039306D01*
X0049891Y0037277D01*
X0050668Y0035402D01*
X0052102Y0033968D01*
X0053977Y0033191D01*
X0056006Y0033191D01*
X0057880Y0033968D01*
X0059315Y0035402D01*
X0060091Y0037277D01*
X0060091Y0039306D01*
X0059315Y0041180D01*
X0057880Y0042615D01*
X0059397Y0040982D02*
X0250445Y0040982D01*
X0250445Y0039384D02*
X0060059Y0039384D01*
X0060091Y0037785D02*
X0250445Y0037785D01*
X0250445Y0036187D02*
X0059640Y0036187D01*
X0058501Y0034588D02*
X0250445Y0034588D01*
X0250445Y0032990D02*
X0024100Y0032990D01*
X0024100Y0034588D02*
X0033682Y0034588D01*
X0034302Y0033968D02*
X0036177Y0033191D01*
X0038206Y0033191D01*
X0040080Y0033968D01*
X0041515Y0035402D01*
X0042291Y0037277D01*
X0042291Y0039306D01*
X0041515Y0041180D01*
X0040080Y0042615D01*
X0038206Y0043391D01*
X0036177Y0043391D01*
X0034302Y0042615D01*
X0032868Y0041180D01*
X0032091Y0039306D01*
X0032091Y0037277D01*
X0032868Y0035402D01*
X0034302Y0033968D01*
X0032543Y0036187D02*
X0024100Y0036187D01*
X0024100Y0037785D02*
X0032091Y0037785D01*
X0032124Y0039384D02*
X0024100Y0039384D01*
X0024100Y0040982D02*
X0032786Y0040982D01*
X0034268Y0042581D02*
X0024100Y0042581D01*
X0024100Y0031391D02*
X0250445Y0031391D01*
X0250445Y0029793D02*
X0024100Y0029793D01*
X0024100Y0028194D02*
X0250445Y0028194D01*
X0250445Y0026596D02*
X0024100Y0026596D01*
X0024100Y0024997D02*
X0250445Y0024997D01*
X0250445Y0042581D02*
X0227440Y0042581D01*
X0229031Y0044179D02*
X0250445Y0044179D01*
X0250445Y0045778D02*
X0229720Y0045778D01*
X0229856Y0047376D02*
X0250445Y0047376D01*
X0250445Y0048975D02*
X0229499Y0048975D01*
X0228514Y0050573D02*
X0250445Y0050573D01*
X0224556Y0050573D02*
X0224556Y0050573D01*
X0224556Y0048975D02*
X0224556Y0048975D01*
X0224556Y0047376D02*
X0224556Y0047376D01*
X0224556Y0045778D02*
X0224556Y0045778D01*
X0224556Y0044179D02*
X0224556Y0044179D01*
X0224556Y0042581D02*
X0224556Y0042581D01*
X0221672Y0042581D02*
X0203490Y0042581D01*
X0203865Y0044179D02*
X0220080Y0044179D01*
X0219392Y0045778D02*
X0203865Y0045778D01*
X0203865Y0047376D02*
X0219256Y0047376D01*
X0219613Y0048975D02*
X0203865Y0048975D01*
X0203865Y0050573D02*
X0220598Y0050573D01*
X0240434Y0082543D02*
X0244032Y0082543D01*
X0242433Y0085740D02*
X0242033Y0085740D01*
X0242033Y0087339D02*
X0242433Y0087339D01*
X0243252Y0088937D02*
X0241215Y0088937D01*
X0239616Y0090536D02*
X0244850Y0090536D01*
X0244441Y0092134D02*
X0240025Y0092134D01*
X0241624Y0093733D02*
X0242843Y0093733D01*
X0242433Y0095332D02*
X0242033Y0095332D01*
X0242033Y0096930D02*
X0242433Y0096930D01*
X0242843Y0098529D02*
X0241623Y0098529D01*
X0240025Y0100127D02*
X0244441Y0100127D01*
X0250445Y0103324D02*
X0186831Y0103324D01*
X0188429Y0104923D02*
X0250445Y0104923D01*
X0250445Y0106521D02*
X0190028Y0106521D01*
X0191626Y0108120D02*
X0250445Y0108120D01*
X0250445Y0109718D02*
X0193225Y0109718D01*
X0194823Y0111317D02*
X0250445Y0111317D01*
X0250445Y0112915D02*
X0196422Y0112915D01*
X0198020Y0114514D02*
X0250445Y0114514D01*
X0250445Y0116112D02*
X0199619Y0116112D01*
X0201217Y0117711D02*
X0250445Y0117711D01*
X0250445Y0119309D02*
X0202816Y0119309D01*
X0203185Y0120908D02*
X0250445Y0120908D01*
X0250445Y0122506D02*
X0203185Y0122506D01*
X0203185Y0124105D02*
X0250445Y0124105D01*
X0250445Y0125703D02*
X0203185Y0125703D01*
X0203185Y0127302D02*
X0250445Y0127302D01*
X0250445Y0128900D02*
X0203185Y0128900D01*
X0203185Y0130499D02*
X0250445Y0130499D01*
X0250445Y0132097D02*
X0203185Y0132097D01*
X0203185Y0133696D02*
X0215867Y0133696D01*
X0216298Y0133517D02*
X0218168Y0133517D01*
X0219895Y0134233D01*
X0221218Y0135555D01*
X0221933Y0137282D01*
X0221933Y0139152D01*
X0221218Y0140880D01*
X0219895Y0142202D01*
X0218168Y0142917D01*
X0216298Y0142917D01*
X0214571Y0142202D01*
X0213249Y0140880D01*
X0212533Y0139152D01*
X0212533Y0137282D01*
X0213249Y0135555D01*
X0214571Y0134233D01*
X0216298Y0133517D01*
X0218599Y0133696D02*
X0250445Y0133696D01*
X0250445Y0135294D02*
X0220957Y0135294D01*
X0221772Y0136893D02*
X0250445Y0136893D01*
X0250445Y0138491D02*
X0221933Y0138491D01*
X0221545Y0140090D02*
X0250445Y0140090D01*
X0250445Y0141688D02*
X0220409Y0141688D01*
X0214057Y0141688D02*
X0204661Y0141688D01*
X0205797Y0140090D02*
X0212921Y0140090D01*
X0212533Y0138491D02*
X0206185Y0138491D01*
X0206024Y0136893D02*
X0212694Y0136893D01*
X0213509Y0135294D02*
X0205209Y0135294D01*
X0196946Y0136893D02*
X0077415Y0136893D01*
X0077940Y0137418D02*
X0078609Y0139035D01*
X0078609Y0140785D01*
X0077940Y0142403D01*
X0076702Y0143640D01*
X0075085Y0144310D01*
X0067334Y0144310D01*
X0065717Y0143640D01*
X0064479Y0142403D01*
X0063809Y0140785D01*
X0063809Y0139035D01*
X0064479Y0137418D01*
X0065717Y0136180D01*
X0067334Y0135510D01*
X0075085Y0135510D01*
X0076702Y0136180D01*
X0077940Y0137418D01*
X0078384Y0138491D02*
X0196785Y0138491D01*
X0197173Y0140090D02*
X0078609Y0140090D01*
X0078235Y0141688D02*
X0198309Y0141688D01*
X0250445Y0143287D02*
X0077055Y0143287D01*
X0065364Y0143287D02*
X0051054Y0143287D01*
X0052089Y0141688D02*
X0064183Y0141688D01*
X0063809Y0140090D02*
X0052405Y0140090D01*
X0052172Y0138491D02*
X0064035Y0138491D01*
X0065004Y0136893D02*
X0051256Y0136893D01*
X0044155Y0136893D02*
X0041256Y0136893D01*
X0042172Y0138491D02*
X0043239Y0138491D01*
X0043006Y0140090D02*
X0042405Y0140090D01*
X0042089Y0141688D02*
X0043322Y0141688D01*
X0044357Y0143287D02*
X0041054Y0143287D01*
X0034357Y0143287D02*
X0024100Y0143287D01*
X0024100Y0144885D02*
X0250445Y0144885D01*
X0250445Y0146484D02*
X0024100Y0146484D01*
X0024100Y0148082D02*
X0250445Y0148082D01*
X0250445Y0149681D02*
X0024100Y0149681D01*
X0024100Y0151279D02*
X0250445Y0151279D01*
X0250445Y0152878D02*
X0024100Y0152878D01*
X0024100Y0154476D02*
X0250445Y0154476D01*
X0250445Y0156075D02*
X0024100Y0156075D01*
X0024100Y0157673D02*
X0250445Y0157673D01*
X0175007Y0100127D02*
X0169459Y0100127D01*
X0169056Y0100531D02*
X0165411Y0100531D01*
X0162833Y0097953D01*
X0162833Y0094308D01*
X0165411Y0091731D01*
X0169056Y0091731D01*
X0171633Y0094308D01*
X0171633Y0097953D01*
X0169056Y0100531D01*
X0171058Y0098529D02*
X0173408Y0098529D01*
X0172833Y0096930D02*
X0171633Y0096930D01*
X0171633Y0095332D02*
X0172833Y0095332D01*
X0173408Y0093733D02*
X0171058Y0093733D01*
X0169459Y0092134D02*
X0175007Y0092134D01*
X0173817Y0088937D02*
X0170649Y0088937D01*
X0171633Y0087953D02*
X0169056Y0090531D01*
X0165411Y0090531D01*
X0162833Y0087953D01*
X0162833Y0084308D01*
X0165411Y0081731D01*
X0169056Y0081731D01*
X0171633Y0084308D01*
X0171633Y0087953D01*
X0171633Y0087339D02*
X0172833Y0087339D01*
X0172833Y0085740D02*
X0171633Y0085740D01*
X0171467Y0084142D02*
X0172999Y0084142D01*
X0174598Y0082543D02*
X0169868Y0082543D01*
X0164598Y0082543D02*
X0159868Y0082543D01*
X0161467Y0084142D02*
X0162999Y0084142D01*
X0162833Y0085740D02*
X0161633Y0085740D01*
X0161633Y0087339D02*
X0162833Y0087339D01*
X0163817Y0088937D02*
X0160649Y0088937D01*
X0159459Y0092134D02*
X0165007Y0092134D01*
X0163408Y0093733D02*
X0161058Y0093733D01*
X0161633Y0095332D02*
X0162833Y0095332D01*
X0162833Y0096930D02*
X0161633Y0096930D01*
X0161058Y0098529D02*
X0163408Y0098529D01*
X0165007Y0100127D02*
X0159459Y0100127D01*
X0155007Y0100127D02*
X0149459Y0100127D01*
X0151058Y0098529D02*
X0153408Y0098529D01*
X0152833Y0096930D02*
X0151633Y0096930D01*
X0151633Y0095332D02*
X0152833Y0095332D01*
X0153408Y0093733D02*
X0151058Y0093733D01*
X0143408Y0093733D02*
X0141058Y0093733D01*
X0141633Y0095332D02*
X0142833Y0095332D01*
X0142833Y0096930D02*
X0141633Y0096930D01*
X0141058Y0098529D02*
X0143408Y0098529D01*
X0145007Y0100127D02*
X0139459Y0100127D01*
X0230649Y0088937D02*
X0233252Y0088937D01*
X0232433Y0087339D02*
X0231633Y0087339D01*
X0231633Y0085740D02*
X0232433Y0085740D01*
X0232434Y0084142D02*
X0231467Y0084142D01*
X0249616Y0090536D02*
X0250445Y0090536D01*
X0250445Y0092134D02*
X0250025Y0092134D01*
X0052068Y0042581D02*
X0040115Y0042581D01*
X0041597Y0040982D02*
X0050586Y0040982D01*
X0049924Y0039384D02*
X0042259Y0039384D01*
X0042291Y0037785D02*
X0049891Y0037785D01*
X0050343Y0036187D02*
X0041840Y0036187D01*
X0040701Y0034588D02*
X0051482Y0034588D01*
X0034155Y0136893D02*
X0024100Y0136893D01*
X0024100Y0138491D02*
X0033239Y0138491D01*
X0033006Y0140090D02*
X0024100Y0140090D01*
X0024100Y0141688D02*
X0033322Y0141688D01*
M02*
